<svg xmlns="http://www.w3.org/2000/svg" width="381.603" height="415" viewBox="0 0 381.603 415">
  <g id="Group_3127" data-name="Group 3127" transform="translate(-1512 -638)">
    <g id="Group_123" data-name="Group 123" transform="translate(1167.722 366.551)">
      <g id="Group_114" data-name="Group 114" transform="translate(344.278 271.449)">
        <g id="Group_2" data-name="Group 2" transform="translate(7.431 211.722)">
          <g id="Group_1" data-name="Group 1">
            <path id="Path_1" data-name="Path 1" d="M391.43,381.6a66.993,66.993,0,0,0-28.662-9.865c-4.682-.48-9.8-.343-13.557,2.494a2.784,2.784,0,0,0-1.394,2.475,3.017,3.017,0,0,0,1.324,1.692c11.661,8.9,29.3,10.02,42.289,3.2" transform="translate(-347.791 -371.525)" fill="#e8505b"/>
          </g>
        </g>
        <g id="Group_4" data-name="Group 4" transform="translate(19.873 176.056)">
          <g id="Group_3" data-name="Group 3">
            <path id="Path_2" data-name="Path 2" d="M384.133,399.6c-6.489-5.063-13.013-10.161-18.512-16.288s-9.962-13.4-11.606-21.463c-.5-2.446-.652-5.24.918-7.183,14.756,11.524,26.348,26.428,29.2,44.933" transform="translate(-353.671 -354.667)" fill="#e8505b"/>
          </g>
        </g>
        <g id="Group_6" data-name="Group 6" transform="translate(49.977 177.33)">
          <g id="Group_5" data-name="Group 5">
            <path id="Path_3" data-name="Path 3" d="M368.843,399.629c-1.113-8.073-1.513-16.371.343-24.3s6.169-15.531,12.945-20.056c2.551,5.96,1.453,12.827-.343,19.055a92.569,92.569,0,0,1-12.837,27.027" transform="translate(-367.901 -355.269)" fill="#e8505b"/>
          </g>
        </g>
        <g id="Group_8" data-name="Group 8" transform="translate(29.25 247.608)">
          <g id="Group_7" data-name="Group 7">
            <path id="Path_4" data-name="Path 4" d="M394.236,388.488c-8.78,1.068-16.428,5.7-22.984,11.634A43.475,43.475,0,0,0,358.1,422.691c8.613-.531,15.92-6.6,21.219-13.417s8.972-14.282,14.792-20.652" transform="translate(-358.104 -388.488)" fill="#e8505b"/>
          </g>
        </g>
        <g id="Group_10" data-name="Group 10" transform="translate(64.572 198.13)">
          <g id="Group_9" data-name="Group 9">
            <path id="Path_5" data-name="Path 5" d="M378.752,418.725A56.69,56.69,0,0,1,385.3,365.1c5,17.8,3.165,37.895-6.546,53.624" transform="translate(-374.8 -365.101)" fill="#e8505b"/>
          </g>
        </g>
        <g id="Group_12" data-name="Group 12" transform="translate(47.847 274.435)">
          <g id="Group_11" data-name="Group 11">
            <path id="Path_6" data-name="Path 6" d="M406.684,401.246a40.992,40.992,0,0,0-39.2,22.563c-.484.969-.914,2.2-.264,3.072a2.922,2.922,0,0,0,2.6.766c7.724-.5,14.57-5.149,20.221-10.44s10.57-11.405,16.813-15.983" transform="translate(-366.894 -401.168)" fill="#e8505b"/>
          </g>
        </g>
        <g id="Group_14" data-name="Group 14" transform="translate(83.745 218.962)">
          <g id="Group_13" data-name="Group 13">
            <path id="Path_7" data-name="Path 7" d="M387.145,429.258a73.01,73.01,0,0,1-.73-40.778c1.439-5.249,3.85-10.775,8.7-13.235a1.7,1.7,0,0,1,1.331-.235,1.76,1.76,0,0,1,.842.975,24.572,24.572,0,0,1,2.052,11.7,73.29,73.29,0,0,1-1.834,11.843c-1.527,7.238-2.342,15.017-6.311,21.26a42.8,42.8,0,0,0-2.524,4.669c-.753,1.587-.757,2.145-1.447,3.406" transform="translate(-383.863 -374.948)" fill="#e8505b"/>
          </g>
        </g>
        <g id="Group_16" data-name="Group 16" transform="translate(136.213 235.889)">
          <g id="Group_15" data-name="Group 15">
            <path id="Path_8" data-name="Path 8" d="M410.068,427.87c-3.747-14.257.231-31.542,9.216-43.23.662-.861,1.538-1.783,2.619-1.684,1.654.155,2.084,2.359,2.01,4.02a78.119,78.119,0,0,1-13.845,40.895" transform="translate(-408.663 -382.948)" fill="#e8505b"/>
          </g>
        </g>
        <g id="Group_18" data-name="Group 18" transform="translate(142.179 268.982)">
          <g id="Group_17" data-name="Group 17">
            <path id="Path_9" data-name="Path 9" d="M411.483,413.538c17.323,4.506,37.194.125,51.6-10.5a41.781,41.781,0,0,0-27.934-3.429c-9.33,2.135-17.858,6.315-23.667,13.925" transform="translate(-411.483 -398.591)" fill="#e8505b"/>
          </g>
        </g>
        <g id="Group_20" data-name="Group 20" transform="translate(146.027 247.354)">
          <g id="Group_19" data-name="Group 19">
            <path id="Path_10" data-name="Path 10" d="M413.3,415.448c9.7-15.816,28.3-26.138,46.831-27.08-2.135,7.538-8.329,13.4-15.317,16.935s-14.79,5.082-22.48,6.575c-2.991.582-7.1,1.221-9.034,3.569" transform="translate(-413.302 -388.368)" fill="#e8505b"/>
          </g>
        </g>
        <g id="Group_22" data-name="Group 22" transform="translate(131.854 173.814)">
          <g id="Group_21" data-name="Group 21">
            <path id="Path_11" data-name="Path 11" d="M413.331,408.164c2.628-9,5.268-18.08,5.989-27.429s-.611-19.106-5.462-27.128c-9.061,17.534-9.979,38.022-.8,55.5" transform="translate(-406.603 -353.607)" fill="#e8505b"/>
          </g>
        </g>
        <g id="Group_24" data-name="Group 24" transform="translate(169.092 176.149)">
          <g id="Group_23" data-name="Group 23">
            <path id="Path_12" data-name="Path 12" d="M424.2,391.512c10.6-19.26,32.219-34.645,54.1-36.8-8.439,21.012-31.455,37.252-54.1,36.8" transform="translate(-424.204 -354.711)" fill="#e8505b"/>
          </g>
        </g>
        <g id="Group_26" data-name="Group 26" transform="translate(162.425 213.563)">
          <g id="Group_25" data-name="Group 25">
            <path id="Path_13" data-name="Path 13" d="M421.053,375.557c15.8,2.408,29.269,12.5,44.038,18.619,3.159,1.31,6.567,2.353,9.956,1.908s6.736-2.719,7.5-6.053a8.7,8.7,0,0,0-2.615-7.735,21.314,21.314,0,0,0-7.233-4.388c-16.085-6.7-33.338-6.865-50.281-2.8" transform="translate(-421.053 -372.396)" fill="#e8505b"/>
          </g>
        </g>
        <g id="Group_28" data-name="Group 28" transform="translate(153.28 227.044)">
          <g id="Group_27" data-name="Group 27">
            <path id="Path_14" data-name="Path 14" d="M416.73,379.532c3.577,1.026,4.8,2.877,7.633,5.291a82.377,82.377,0,0,0,33.4,17.155c1.276.317,2.949.442,3.58-.711.552-1.007-.146-2.226-.863-3.123-5.134-6.423-12.457-10.817-20.164-13.688s-14.384-6.328-23.583-5.587" transform="translate(-416.73 -378.768)" fill="#e8505b"/>
          </g>
        </g>
        <g id="Group_30" data-name="Group 30" transform="translate(142.958 159.15)">
          <g id="Group_29" data-name="Group 29">
            <path id="Path_15" data-name="Path 15" d="M411.851,348.386a63.2,63.2,0,0,0,48.456,16.485,3.312,3.312,0,0,0,2.2-.791c1.221-1.327-.243-3.374-1.663-4.483-14.246-11.107-31.5-15.71-49-11.211" transform="translate(-411.851 -346.676)" fill="#e8505b"/>
          </g>
        </g>
        <g id="Group_32" data-name="Group 32" transform="translate(155.194 143.223)">
          <g id="Group_31" data-name="Group 31">
            <path id="Path_16" data-name="Path 16" d="M417.635,352.305a67.541,67.541,0,0,1,60.464-9.977c-7.616,7.506-18.179,11.543-28.812,12.649a91.164,91.164,0,0,1-31.652-2.672" transform="translate(-417.635 -339.147)" fill="#e8505b"/>
          </g>
        </g>
        <g id="Group_34" data-name="Group 34" transform="translate(142.165 82.854)">
          <g id="Group_33" data-name="Group 33">
            <path id="Path_17" data-name="Path 17" d="M419.644,353.374c-1.4-14.219-.493-25.442-1.479-39.729-.078-1.14-.324-2.513-1.392-2.926-1.487-.571-2.727,1.255-3.214,2.771a45.543,45.543,0,0,0,6.063,39.57" transform="translate(-411.476 -310.612)" fill="#e8505b"/>
          </g>
        </g>
        <g id="Group_36" data-name="Group 36" transform="translate(149.309 82.488)">
          <g id="Group_35" data-name="Group 35">
            <path id="Path_18" data-name="Path 18" d="M414.853,355.139c9.637-5.96,16.868-13.743,23.553-22.893,4.652-6.366,8.575-13.99,7.517-21.8-6.533-.131-12.74,3.472-16.988,8.437s-6.776,11.17-8.661,17.426-3.207,12.685-5.42,18.833" transform="translate(-414.853 -310.439)" fill="#e8505b"/>
          </g>
        </g>
        <g id="Group_38" data-name="Group 38" transform="translate(172.149 85.145)">
          <g id="Group_37" data-name="Group 37">
            <path id="Path_19" data-name="Path 19" d="M425.949,347.309a189.9,189.9,0,0,0,57.968-34.18c-6.924-2.788-14.852-1.119-21.774,1.676-15.816,6.383-28.738,17.16-36.494,32.35" transform="translate(-425.649 -311.695)" fill="#e8505b"/>
          </g>
        </g>
        <g id="Group_40" data-name="Group 40" transform="translate(155.816 118.201)">
          <g id="Group_39" data-name="Group 39">
            <path id="Path_20" data-name="Path 20" d="M417.929,344.086c10.7,1.17,21.569,1.931,32.187.157,10.434-1.743,20.295-5.879,30.048-9.984a3.536,3.536,0,0,0,2.042-1.551,2.35,2.35,0,0,0-.732-2.57,6.235,6.235,0,0,0-2.562-1.2c-10.6-2.964-22.042-1.576-32.472,1.94a150.627,150.627,0,0,0-28.51,13.21" transform="translate(-417.929 -327.32)" fill="#e8505b"/>
          </g>
        </g>
        <g id="Group_42" data-name="Group 42" transform="translate(89.352 114.223)">
          <g id="Group_41" data-name="Group 41">
            <path id="Path_21" data-name="Path 21" d="M391.876,372.563c-7.3-14.737-6.827-31.935-.52-47.123,4.438,6.766,4.982,15.38,4.17,23.43s-3.262,16.335-3.421,24.425" transform="translate(-386.513 -325.44)" fill="#e8505b"/>
          </g>
        </g>
        <g id="Group_44" data-name="Group 44" transform="translate(16.713 146.625)">
          <g id="Group_43" data-name="Group 43">
            <path id="Path_22" data-name="Path 22" d="M401.015,340.767a65.719,65.719,0,0,0-48.837,20.8c9.1,1.428,18.467-.918,26.741-4.959s15.628-9.709,22.918-15.338" transform="translate(-352.178 -340.756)" fill="#e8505b"/>
          </g>
        </g>
        <g id="Group_46" data-name="Group 46" transform="translate(0 139.22)">
          <g id="Group_45" data-name="Group 45">
            <path id="Path_23" data-name="Path 23" d="M390.22,338.114c-8.917-.724-17.5-1.826-26.071.8s-16.377,8.591-19.872,16.851c8.34.939,16.8-1.153,24.441-4.616s14.6-8.261,21.5-13.034" transform="translate(-344.278 -337.255)" fill="#e8505b"/>
          </g>
        </g>
        <g id="Group_48" data-name="Group 48" transform="translate(22.698 126.689)">
          <g id="Group_47" data-name="Group 47">
            <path id="Path_24" data-name="Path 24" d="M407.284,345.022c-8.022-5.257-16.26-10.608-25.6-12.787s-20.164-.567-26.676,6.472c7.559,4.438,16.734,4.961,25.5,4.955s19.514-.106,27.778,2.818" transform="translate(-355.007 -331.332)" fill="#e8505b"/>
          </g>
        </g>
        <g id="Group_50" data-name="Group 50" transform="translate(59.456 84.734)">
          <g id="Group_49" data-name="Group 49">
            <path id="Path_25" data-name="Path 25" d="M387.947,367.569c-13.713-13.466-18.914-37.658-13.4-56.068a85.418,85.418,0,0,1,13.4,56.068" transform="translate(-372.382 -311.501)" fill="#e8505b"/>
          </g>
        </g>
        <g id="Group_52" data-name="Group 52" transform="translate(112.732 58.397)">
          <g id="Group_51" data-name="Group 51">
            <path id="Path_26" data-name="Path 26" d="M397.564,343.3c2.585-6.013,4.4-12.323,6.726-18.444s5.2-12.143,9.588-17,10.449-8.477,16.986-8.8A68.4,68.4,0,0,1,397.9,343.4" transform="translate(-397.564 -299.052)" fill="#e8505b"/>
          </g>
        </g>
        <g id="Group_54" data-name="Group 54" transform="translate(70.433 86.43)">
          <g id="Group_53" data-name="Group 53">
            <path id="Path_27" data-name="Path 27" d="M413.044,336.47c-4.28-5.892-9.224-13.889-15.029-18.285s-13.362-7.058-20.445-5.369a47.622,47.622,0,0,0,35.474,23.655" transform="translate(-377.57 -312.303)" fill="#e8505b"/>
          </g>
        </g>
        <g id="Group_56" data-name="Group 56" transform="translate(100.012 58.949)">
          <g id="Group_55" data-name="Group 55">
            <path id="Path_28" data-name="Path 28" d="M398.811,343.5c-2.805-7.13-5.63-14.333-6.766-21.909s-.442-15.67,3.431-22.279c7.527,14.232,9.952,29.506,3.719,44.349" transform="translate(-391.552 -299.313)" fill="#e8505b"/>
          </g>
        </g>
        <g id="Group_58" data-name="Group 58" transform="translate(112.8 28.79)">
          <g id="Group_57" data-name="Group 57">
            <path id="Path_29" data-name="Path 29" d="M397.6,315.216c4.265-14.107,17.181-24.492,31.127-29.259a11.624,11.624,0,0,1,5.458-.819A4.735,4.735,0,0,1,438.2,288.5c.508,2.4-1.475,4.551-3.338,6.144A105.907,105.907,0,0,1,397.6,315.216" transform="translate(-397.596 -285.057)" fill="#e8505b"/>
          </g>
        </g>
        <g id="Group_60" data-name="Group 60" transform="translate(112.732)">
          <g id="Group_59" data-name="Group 59">
            <path id="Path_30" data-name="Path 30" d="M397.786,318.862c.542-9.095,1.111-18.321,4.068-26.94s8.659-16.7,16.954-20.473c1.411,9.186-2.642,18.325-7.529,26.229s-10.779,15.366-13.715,24.183" transform="translate(-397.564 -271.449)" fill="#e8505b"/>
          </g>
        </g>
        <g id="Group_62" data-name="Group 62" transform="translate(86.28 4.223)">
          <g id="Group_61" data-name="Group 61">
            <path id="Path_31" data-name="Path 31" d="M411.513,322.9c-3.525-10.282-3.888-23.339-10.045-32.3-4.3-6.26-11.2-10.525-14.9-17.155-2.465,6.192-1.71,13.328.867,19.476s6.831,11.439,11.388,16.3,8.456,8.526,12.691,13.673" transform="translate(-385.061 -273.445)" fill="#e8505b"/>
          </g>
        </g>
        <g id="Group_65" data-name="Group 65" transform="translate(112.27 50.091)">
          <g id="Group_64" data-name="Group 64">
            <g id="Group_63" data-name="Group 63">
              <path id="Path_32" data-name="Path 32" d="M397.876,601.467c-.273,0-.51-68.581-.529-153.163-.019-84.609.186-153.178.461-153.178s.51,68.569.529,153.178C398.356,532.886,398.151,601.467,397.876,601.467Z" transform="translate(-397.345 -295.126)" fill="#263238"/>
            </g>
          </g>
        </g>
        <g id="Group_68" data-name="Group 68" transform="translate(112.712 150.985)">
          <g id="Group_67" data-name="Group 67">
            <g id="Group_66" data-name="Group 66">
              <path id="Path_33" data-name="Path 33" d="M457.575,342.828A14.788,14.788,0,0,1,455,343.8l-7.1,2.393c-5.983,2.039-14.2,4.991-23.124,8.646-8.835,3.789-17.164,6.865-21.909,10.976a16.094,16.094,0,0,0-4.4,5.824c-.681,1.61-.8,2.6-.893,2.579a1.98,1.98,0,0,1,.03-.719,10.821,10.821,0,0,1,.5-2,15.447,15.447,0,0,1,4.295-6.207,38.518,38.518,0,0,1,9.508-5.907c3.8-1.773,8.016-3.624,12.49-5.462,8.949-3.669,17.232-6.525,23.282-8.4,3.025-.944,5.492-1.638,7.2-2.1A14.618,14.618,0,0,1,457.575,342.828Z" transform="translate(-397.555 -342.816)" fill="#263238"/>
            </g>
          </g>
        </g>
        <g id="Group_71" data-name="Group 71" transform="translate(117.429 102.74)">
          <g id="Group_70" data-name="Group 70">
            <g id="Group_69" data-name="Group 69">
              <path id="Path_34" data-name="Path 34" d="M474.733,320.014a4.076,4.076,0,0,1-.723.772c-.584.548-1.312,1.231-2.2,2.067l-8.215,7.464c-7.094,6.317-16.715,14.883-27.346,24.348-10.673,9.5-19.9,18.579-26.291,25.415-3.2,3.415-5.723,6.241-7.443,8.215-.8.918-1.458,1.667-1.987,2.27a4.182,4.182,0,0,1-.743.753,4.367,4.367,0,0,1,.588-.878c.415-.552,1.02-1.373,1.847-2.391,1.631-2.054,4.077-4.961,7.221-8.443a346.569,346.569,0,0,1,26.147-25.681c10.711-9.48,20.46-18,27.543-24.133l8.422-7.229,2.325-1.927A4.274,4.274,0,0,1,474.733,320.014Z" transform="translate(-399.784 -320.012)" fill="#263238"/>
            </g>
          </g>
        </g>
        <g id="Group_74" data-name="Group 74" transform="translate(142.347 123.31)">
          <g id="Group_73" data-name="Group 73">
            <g id="Group_72" data-name="Group 72">
              <path id="Path_35" data-name="Path 35" d="M411.587,353.479c-.281-.125,1.951-5.272,4.172-11.784,2.243-6.51,3.3-12.006,3.582-11.96.258.027-.372,5.682-2.645,12.277a79.724,79.724,0,0,1-3.319,8.242A12.806,12.806,0,0,1,411.587,353.479Z" transform="translate(-411.563 -329.735)" fill="#263238"/>
            </g>
          </g>
        </g>
        <g id="Group_77" data-name="Group 77" transform="translate(73.112 138.485)">
          <g id="Group_76" data-name="Group 76">
            <g id="Group_75" data-name="Group 75">
              <path id="Path_36" data-name="Path 36" d="M418.588,386.986a12.157,12.157,0,0,1-1.646-1.908c-1.115-1.432-2.528-3.243-4.212-5.4-3.541-4.576-8.433-10.891-13.919-17.8s-10.527-13.111-14.181-17.6c-1.722-2.13-3.165-3.918-4.305-5.329a12.062,12.062,0,0,1-1.485-2.035,12.4,12.4,0,0,1,1.779,1.786c1.1,1.189,2.653,2.941,4.549,5.128,3.793,4.375,8.926,10.512,14.42,17.433s10.3,13.311,13.7,18c1.7,2.344,3.053,4.254,3.963,5.6A12.4,12.4,0,0,1,418.588,386.986Z" transform="translate(-378.836 -336.908)" fill="#263238"/>
            </g>
          </g>
        </g>
        <g id="Group_80" data-name="Group 80" transform="translate(92.902 150.961)">
          <g id="Group_79" data-name="Group 79">
            <g id="Group_78" data-name="Group 78">
              <path id="Path_37" data-name="Path 37" d="M395.01,363.538c-.161.173-3.666-3.986-5.5-10.305a29.465,29.465,0,0,1-1.248-10.392l.438.036c-.2.793-.338,1.212-.417,1.2s-.083-.455-.017-1.271l.436.036a47.5,47.5,0,0,0,1.758,10.108C392.23,359.074,395.276,363.371,395.01,363.538Z" transform="translate(-388.191 -342.805)" fill="#263238"/>
            </g>
          </g>
        </g>
        <g id="Group_83" data-name="Group 83" transform="translate(53.071 146.14)">
          <g id="Group_82" data-name="Group 82">
            <g id="Group_81" data-name="Group 81">
              <path id="Path_38" data-name="Path 38" d="M399.048,344.74a17.746,17.746,0,0,0-3.842-2.234c-2.568-.992-6.434-1.21-10.673-.848a66.054,66.054,0,0,0-10.745,1.735,32.793,32.793,0,0,1-4.424,1.062c-.044-.119,1.534-.882,4.235-1.737a49.088,49.088,0,0,1,10.859-2.048c4.288-.37,8.354-.04,11.01,1.187C398.158,343.05,399.137,344.715,399.048,344.74Z" transform="translate(-369.364 -340.526)" fill="#263238"/>
            </g>
          </g>
        </g>
        <g id="Group_86" data-name="Group 86" transform="translate(37.025 138.878)">
          <g id="Group_85" data-name="Group 85">
            <g id="Group_84" data-name="Group 84">
              <path id="Path_39" data-name="Path 39" d="M403.488,343.4c-.074.154-2.238-.9-5.888-2.143a59.254,59.254,0,0,0-29.676-2.264c-3.8.679-6.095,1.39-6.146,1.227a5.543,5.543,0,0,1,1.561-.664,36.342,36.342,0,0,1,4.447-1.25,52.389,52.389,0,0,1,30.052,2.291,36.973,36.973,0,0,1,4.208,1.908A5.618,5.618,0,0,1,403.488,343.4Z" transform="translate(-361.779 -337.094)" fill="#263238"/>
            </g>
          </g>
        </g>
        <g id="Group_89" data-name="Group 89" transform="translate(105.072 93.23)">
          <g id="Group_88" data-name="Group 88">
            <g id="Group_87" data-name="Group 87">
              <path id="Path_40" data-name="Path 40" d="M401.6,345.6c-.267.068-2.19-6.611-4.295-14.917s-3.6-15.095-3.334-15.162,2.188,6.611,4.295,14.919S401.867,345.529,401.6,345.6Z" transform="translate(-393.943 -315.517)" fill="#263238"/>
            </g>
          </g>
        </g>
        <g id="Group_92" data-name="Group 92" transform="translate(101.236 107.133)">
          <g id="Group_91" data-name="Group 91">
            <g id="Group_90" data-name="Group 90">
              <path id="Path_41" data-name="Path 41" d="M403.9,338.265c-.3.1-1.532-4.367-4.76-8.93-3.142-4.661-7.153-7-7-7.231a6.541,6.541,0,0,1,2.7,1.394,21.8,21.8,0,0,1,5.111,5.268C403.3,333.514,404.138,338.248,403.9,338.265Z" transform="translate(-392.13 -322.089)" fill="#263238"/>
            </g>
          </g>
        </g>
        <g id="Group_95" data-name="Group 95" transform="translate(49.971 219.773)">
          <g id="Group_94" data-name="Group 94">
            <g id="Group_93" data-name="Group 93">
              <path id="Path_42" data-name="Path 42" d="M430.727,475.431c-.106.017-.309-1.648-1.081-4.559A64.954,64.954,0,0,0,425.063,459c-4.739-9.683-13.36-21.96-24.317-34.258-5.429-6.2-10.694-12.053-15.165-17.655a123.971,123.971,0,0,1-10.847-15.641,75.119,75.119,0,0,1-5.473-11.608c-.5-1.43-.874-2.547-1.077-3.319a5.725,5.725,0,0,1-.281-1.185c.089-.027.588,1.57,1.718,4.365a84.91,84.91,0,0,0,5.718,11.392,131.392,131.392,0,0,0,10.952,15.423c4.487,5.545,9.761,11.363,15.2,17.576,10.984,12.33,19.586,24.763,24.2,34.6a59.181,59.181,0,0,1,4.326,12.086,33.71,33.71,0,0,1,.607,3.44A5.494,5.494,0,0,1,430.727,475.431Z" transform="translate(-367.898 -375.331)" fill="#263238"/>
            </g>
          </g>
        </g>
        <g id="Group_98" data-name="Group 98" transform="translate(112.794 258.697)">
          <g id="Group_97" data-name="Group 97">
            <g id="Group_96" data-name="Group 96">
              <path id="Path_43" data-name="Path 43" d="M451.756,393.735a24.248,24.248,0,0,1-2.837,1.593,62.028,62.028,0,0,0-7.362,4.868,84.394,84.394,0,0,0-9.668,8.818c-3.393,3.586-6.891,7.749-10.457,12.209-7.134,8.951-13.8,16.87-17.8,23.191-2.027,3.135-3.5,5.78-4.468,7.635a24.377,24.377,0,0,1-1.563,2.856,2.847,2.847,0,0,1,.264-.8c.21-.51.5-1.278.952-2.224a72.373,72.373,0,0,1,4.223-7.838c3.88-6.474,10.5-14.5,17.619-23.437,3.575-4.47,7.115-8.642,10.572-12.222a78.341,78.341,0,0,1,9.907-8.746,51.5,51.5,0,0,1,7.6-4.648c.941-.472,1.707-.762,2.215-.982A2.854,2.854,0,0,1,451.756,393.735Z" transform="translate(-397.593 -393.729)" fill="#263238"/>
            </g>
          </g>
        </g>
        <g id="Group_101" data-name="Group 101" transform="translate(130.589 278.475)">
          <g id="Group_100" data-name="Group 100">
            <g id="Group_99" data-name="Group 99">
              <path id="Path_44" data-name="Path 44" d="M443.433,403.15c.013.146-2.291.425-6,.872a79.188,79.188,0,0,0-14.23,2.8,42.792,42.792,0,0,0-12.738,6.685c-2.939,2.27-4.322,4.147-4.458,4.037a4.537,4.537,0,0,1,.889-1.379,22.5,22.5,0,0,1,3.125-3.2,38.585,38.585,0,0,1,12.88-7.085,64.236,64.236,0,0,1,14.462-2.556A33.436,33.436,0,0,1,443.433,403.15Z" transform="translate(-406.004 -403.078)" fill="#263238"/>
            </g>
          </g>
        </g>
        <g id="Group_104" data-name="Group 104" transform="translate(132.319 270.437)">
          <g id="Group_103" data-name="Group 103">
            <g id="Group_102" data-name="Group 102">
              <path id="Path_45" data-name="Path 45" d="M406.847,419.606c-.313-.178,2.391-4.307,4.489-9.863,1.968-5.6,2.429-10.519,2.78-10.464a9.492,9.492,0,0,1-.1,3.22,34.4,34.4,0,0,1-1.75,7.582,36.569,36.569,0,0,1-3.48,6.956A9.658,9.658,0,0,1,406.847,419.606Z" transform="translate(-406.822 -399.279)" fill="#263238"/>
            </g>
          </g>
        </g>
        <g id="Group_107" data-name="Group 107" transform="translate(112.817 205.422)">
          <g id="Group_106" data-name="Group 106">
            <g id="Group_105" data-name="Group 105">
              <path id="Path_46" data-name="Path 46" d="M469.284,368.553a4.486,4.486,0,0,1-.961.51l-2.818,1.282c-1.236.529-2.735,1.2-4.424,2.09s-3.673,1.775-5.731,3.013q-1.571.892-3.275,1.862c-1.134.652-2.257,1.426-3.451,2.175-2.414,1.462-4.83,3.266-7.411,5.107a127.118,127.118,0,0,0-28.535,29.527c-1.752,2.642-3.472,5.12-4.851,7.582-.707,1.219-1.443,2.367-2.056,3.522s-1.189,2.27-1.747,3.336c-1.166,2.1-2,4.106-2.814,5.831-.834,1.718-1.453,3.239-1.94,4.491-.48,1.159-.872,2.107-1.185,2.862a4.548,4.548,0,0,1-.476.975,4.481,4.481,0,0,1,.288-1.043c.269-.774.6-1.745,1.013-2.934.434-1.278,1-2.826,1.792-4.572.77-1.754,1.564-3.793,2.7-5.926q.816-1.622,1.7-3.385c.6-1.172,1.324-2.338,2.02-3.575,1.358-2.5,3.063-5.008,4.807-7.684a122.536,122.536,0,0,1,28.745-29.743c2.615-1.834,5.067-3.624,7.515-5.067,1.212-.738,2.353-1.5,3.5-2.141l3.326-1.817c2.092-1.2,4.1-2.067,5.828-2.9,1.72-.846,3.248-1.47,4.51-1.946l2.9-1.113A4.459,4.459,0,0,1,469.284,368.553Z" transform="translate(-397.604 -368.547)" fill="#263238"/>
            </g>
          </g>
        </g>
        <g id="Group_110" data-name="Group 110" transform="translate(141.626 226.984)">
          <g id="Group_109" data-name="Group 109">
            <g id="Group_108" data-name="Group 108">
              <path id="Path_47" data-name="Path 47" d="M411.231,385.9c-.087-.015.389-1.678,2.357-3.51a14.88,14.88,0,0,1,9.5-3.643,25.927,25.927,0,0,1,9.992,1.953c2.42.95,3.827,1.72,3.779,1.834-.057.14-1.563-.4-4.009-1.172a30.183,30.183,0,0,0-9.73-1.625,15.475,15.475,0,0,0-9.072,3.184C412.082,384.5,411.39,386,411.231,385.9Z" transform="translate(-411.221 -378.74)" fill="#263238"/>
            </g>
          </g>
        </g>
        <g id="Group_113" data-name="Group 113" transform="translate(135.208 222.822)">
          <g id="Group_112" data-name="Group 112">
            <g id="Group_111" data-name="Group 111">
              <path id="Path_48" data-name="Path 48" d="M408.209,394.7c-.273-.15,2.145-3.694,2.7-8.771.635-5.069-.9-9.074-.6-9.158a5.824,5.824,0,0,1,1.113,2.556,18.119,18.119,0,0,1-1.534,13.144C409.043,393.991,408.3,394.773,408.209,394.7Z" transform="translate(-408.188 -376.772)" fill="#263238"/>
            </g>
          </g>
        </g>
      </g>
      <g id="Group_116" data-name="Group 116" transform="translate(409.711 601.149)">
        <g id="Group_115" data-name="Group 115">
          <path id="Path_49" data-name="Path 49" d="M375.207,427.291c1.477,26.21,9.376,52.865,21.524,79.815h52.827c11.585-26.682,18.939-53.3,20.246-79.815Z" transform="translate(-375.207 -427.291)" fill="#455a64"/>
        </g>
      </g>
      <g id="Group_119" data-name="Group 119" transform="translate(418.053 643.065)">
        <g id="Group_118" data-name="Group 118">
          <g id="Group_117" data-name="Group 117">
            <path id="Path_50" data-name="Path 50" d="M456.843,447.6c0,.275-17.395.5-38.845.5s-38.849-.222-38.849-.5,17.39-.5,38.849-.5S456.843,447.326,456.843,447.6Z" transform="translate(-379.15 -447.104)" fill="#fafafa"/>
          </g>
        </g>
      </g>
      <g id="Group_122" data-name="Group 122" transform="translate(421.73 652.56)">
        <g id="Group_121" data-name="Group 121">
          <g id="Group_120" data-name="Group 120">
            <path id="Path_51" data-name="Path 51" d="M453.724,452.087c0,.275-16.307.5-36.416.5s-36.42-.222-36.42-.5,16.3-.495,36.42-.495S453.724,451.814,453.724,452.087Z" transform="translate(-380.888 -451.592)" fill="#fafafa"/>
          </g>
        </g>
      </g>
    </g>
    <ellipse id="Ellipse_1" data-name="Ellipse 1" cx="85.5" cy="5.5" rx="85.5" ry="5.5" transform="translate(1542 1042)" fill="#e9e9e9"/>
    <ellipse id="Ellipse_2" data-name="Ellipse 2" cx="50" cy="5.5" rx="50" ry="5.5" transform="translate(1778 967)" fill="#e9e9e9"/>
    <g id="Group_124" data-name="Group 124" transform="translate(1417.722 467.551)">
      <g id="Group_114-2" data-name="Group 114" transform="translate(344.278 271.449)">
        <g id="Group_2-2" data-name="Group 2" transform="translate(4.244 120.925)">
          <g id="Group_1-2" data-name="Group 1">
            <path id="Path_1-2" data-name="Path 1" d="M372.715,377.281a38.263,38.263,0,0,0-16.37-5.634c-2.674-.274-5.6-.2-7.743,1.425a1.59,1.59,0,0,0-.8,1.414,1.724,1.724,0,0,0,.756.967c6.66,5.081,16.735,5.723,24.153,1.829" transform="translate(-347.791 -371.525)" fill="#e8505b"/>
          </g>
        </g>
        <g id="Group_4-2" data-name="Group 4" transform="translate(11.35 100.555)">
          <g id="Group_3-2" data-name="Group 3">
            <path id="Path_2-2" data-name="Path 2" d="M371.07,380.331a79.816,79.816,0,0,1-10.573-9.3,26.749,26.749,0,0,1-6.629-12.259c-.284-1.4-.372-2.993.524-4.1,8.428,6.582,15.048,15.094,16.677,25.664" transform="translate(-353.671 -354.667)" fill="#e8505b"/>
          </g>
        </g>
        <g id="Group_6-2" data-name="Group 6" transform="translate(28.544 101.282)">
          <g id="Group_5-2" data-name="Group 5">
            <path id="Path_3-2" data-name="Path 3" d="M368.439,380.605a38.19,38.19,0,0,1,.2-13.881,18.764,18.764,0,0,1,7.394-11.455c1.457,3.4.83,7.326-.2,10.883a52.871,52.871,0,0,1-7.332,15.436" transform="translate(-367.901 -355.269)" fill="#e8505b"/>
          </g>
        </g>
        <g id="Group_8-2" data-name="Group 8" transform="translate(16.706 141.422)">
          <g id="Group_7-2" data-name="Group 7">
            <path id="Path_4-2" data-name="Path 4" d="M378.741,388.488c-5.015.61-9.383,3.254-13.127,6.645a24.831,24.831,0,0,0-7.51,12.89c4.919-.3,9.093-3.772,12.12-7.663s5.125-8.157,8.449-11.8" transform="translate(-358.104 -388.488)" fill="#e8505b"/>
          </g>
        </g>
        <g id="Group_10-2" data-name="Group 10" transform="translate(36.881 113.162)">
          <g id="Group_9-2" data-name="Group 9">
            <path id="Path_5-2" data-name="Path 5" d="M377.057,395.728A32.379,32.379,0,0,1,380.8,365.1c2.858,10.164,1.808,21.644-3.739,30.627" transform="translate(-374.8 -365.101)" fill="#e8505b"/>
          </g>
        </g>
        <g id="Group_12-2" data-name="Group 12" transform="translate(27.328 156.744)">
          <g id="Group_11-2" data-name="Group 11">
            <path id="Path_6-2" data-name="Path 6" d="M389.62,401.213A23.413,23.413,0,0,0,367.233,414.1c-.277.553-.522,1.258-.151,1.755a1.669,1.669,0,0,0,1.485.437c4.412-.286,8.322-2.941,11.549-5.963s6.037-6.514,9.6-9.129" transform="translate(-366.894 -401.168)" fill="#e8505b"/>
          </g>
        </g>
        <g id="Group_14-2" data-name="Group 14" transform="translate(47.831 125.06)">
          <g id="Group_13-2" data-name="Group 13">
            <path id="Path_7-2" data-name="Path 7" d="M385.737,405.967a41.7,41.7,0,0,1-.417-23.29c.822-3,2.2-6.154,4.971-7.559a.974.974,0,0,1,.76-.134,1,1,0,0,1,.481.557,14.035,14.035,0,0,1,1.172,6.682,41.866,41.866,0,0,1-1.048,6.764c-.872,4.134-1.338,8.577-3.6,12.143a24.441,24.441,0,0,0-1.441,2.667c-.43.906-.433,1.225-.827,1.945" transform="translate(-383.863 -374.948)" fill="#e8505b"/>
          </g>
        </g>
        <g id="Group_16-2" data-name="Group 16" transform="translate(77.798 134.728)">
          <g id="Group_15-2" data-name="Group 15">
            <path id="Path_8-2" data-name="Path 8" d="M409.465,408.606c-2.14-8.143.132-18.015,5.263-24.691.378-.492.878-1.019,1.5-.962.945.088,1.19,1.347,1.148,2.3a44.618,44.618,0,0,1-7.907,23.357" transform="translate(-408.663 -382.948)" fill="#e8505b"/>
          </g>
        </g>
        <g id="Group_18-2" data-name="Group 18" transform="translate(81.206 153.629)">
          <g id="Group_17-2" data-name="Group 17">
            <path id="Path_9-2" data-name="Path 9" d="M411.483,407.128c9.894,2.574,21.244.071,29.472-5.995A23.863,23.863,0,0,0,425,399.175c-5.329,1.219-10.2,3.607-13.518,7.953" transform="translate(-411.483 -398.591)" fill="#e8505b"/>
          </g>
        </g>
        <g id="Group_20-2" data-name="Group 20" transform="translate(83.404 141.277)">
          <g id="Group_19-2" data-name="Group 19">
            <path id="Path_10-2" data-name="Path 10" d="M413.3,403.835c5.54-9.034,16.164-14.929,26.747-15.467-1.219,4.305-4.757,7.651-8.748,9.673s-8.447,2.9-12.84,3.755c-1.709.332-4.053.7-5.159,2.039" transform="translate(-413.302 -388.368)" fill="#e8505b"/>
          </g>
        </g>
        <g id="Group_22-2" data-name="Group 22" transform="translate(75.309 99.274)">
          <g id="Group_21-2" data-name="Group 21">
            <path id="Path_11-2" data-name="Path 11" d="M410.446,384.767c1.5-5.141,3.009-10.326,3.421-15.666s-.349-10.912-3.12-15.494c-5.175,10.015-5.7,21.716-.457,31.7" transform="translate(-406.603 -353.607)" fill="#e8505b"/>
          </g>
        </g>
        <g id="Group_24-2" data-name="Group 24" transform="translate(96.577 100.608)">
          <g id="Group_23-2" data-name="Group 23">
            <path id="Path_12-2" data-name="Path 12" d="M424.2,375.73c6.053-11,18.4-19.788,30.9-21.019-4.82,12-17.965,21.276-30.9,21.019" transform="translate(-424.204 -354.711)" fill="#e8505b"/>
          </g>
        </g>
        <g id="Group_26-2" data-name="Group 26" transform="translate(92.769 121.977)">
          <g id="Group_25-2" data-name="Group 25">
            <path id="Path_13-2" data-name="Path 13" d="M421.053,374.2c9.026,1.375,16.717,7.14,25.153,10.634a11.268,11.268,0,0,0,5.686,1.09,4.452,4.452,0,0,0,2.788-7.875,12.175,12.175,0,0,0-4.131-2.506c-9.187-3.824-19.041-3.921-28.718-1.6" transform="translate(-421.053 -372.396)" fill="#e8505b"/>
          </g>
        </g>
        <g id="Group_28-2" data-name="Group 28" transform="translate(87.546 129.677)">
          <g id="Group_27-2" data-name="Group 27">
            <path id="Path_14-2" data-name="Path 14" d="M416.73,379.2c2.043.586,2.742,1.643,4.36,3.022a47.05,47.05,0,0,0,19.075,9.8c.729.181,1.684.253,2.045-.406.315-.575-.083-1.271-.493-1.783a26.263,26.263,0,0,0-11.516-7.818c-4.4-1.638-8.216-3.614-13.469-3.191" transform="translate(-416.73 -378.768)" fill="#e8505b"/>
          </g>
        </g>
        <g id="Group_30-2" data-name="Group 30" transform="translate(81.65 90.899)">
          <g id="Group_29-2" data-name="Group 29">
            <path id="Path_15-2" data-name="Path 15" d="M411.851,347.652a36.1,36.1,0,0,0,27.676,9.415,1.892,1.892,0,0,0,1.259-.452c.7-.758-.139-1.927-.95-2.56-8.137-6.344-17.993-8.973-27.985-6.4" transform="translate(-411.851 -346.676)" fill="#e8505b"/>
          </g>
        </g>
        <g id="Group_32-2" data-name="Group 32" transform="translate(88.639 81.802)">
          <g id="Group_31-2" data-name="Group 31">
            <path id="Path_16-2" data-name="Path 16" d="M417.635,346.663a38.576,38.576,0,0,1,34.534-5.7c-4.35,4.287-10.383,6.593-16.456,7.225a52.069,52.069,0,0,1-18.078-1.526" transform="translate(-417.635 -339.147)" fill="#e8505b"/>
          </g>
        </g>
        <g id="Group_34-2" data-name="Group 34" transform="translate(81.198 47.322)">
          <g id="Group_33-2" data-name="Group 33">
            <path id="Path_17-2" data-name="Path 17" d="M416.141,335.036c-.8-8.121-.282-14.531-.845-22.691-.045-.651-.185-1.436-.8-1.671-.849-.326-1.557.717-1.835,1.583a26.012,26.012,0,0,0,3.463,22.6" transform="translate(-411.476 -310.612)" fill="#e8505b"/>
          </g>
        </g>
        <g id="Group_36-2" data-name="Group 36" transform="translate(85.278 47.113)">
          <g id="Group_35-2" data-name="Group 35">
            <path id="Path_18-2" data-name="Path 18" d="M414.853,335.97c5.5-3.4,9.634-7.849,13.452-13.075,2.657-3.636,4.9-7.991,4.293-12.453a12.87,12.87,0,0,0-9.7,4.819,27.057,27.057,0,0,0-4.947,9.953c-1.078,3.573-1.832,7.245-3.1,10.757" transform="translate(-414.853 -310.439)" fill="#e8505b"/>
          </g>
        </g>
        <g id="Group_38-2" data-name="Group 38" transform="translate(98.323 48.631)">
          <g id="Group_37-2" data-name="Group 37">
            <path id="Path_19-2" data-name="Path 19" d="M425.82,332.036a108.464,108.464,0,0,0,33.108-19.522c-3.955-1.593-8.482-.639-12.436.957-9.034,3.646-16.414,9.8-20.844,18.477" transform="translate(-425.649 -311.695)" fill="#e8505b"/>
          </g>
        </g>
        <g id="Group_40-2" data-name="Group 40" transform="translate(88.995 67.511)">
          <g id="Group_39-2" data-name="Group 39">
            <path id="Path_20-2" data-name="Path 20" d="M417.929,336.9c6.111.668,12.319,1.1,18.384.089,5.96-1,11.591-3.358,17.162-5.7a2.019,2.019,0,0,0,1.166-.886,1.342,1.342,0,0,0-.418-1.468,3.561,3.561,0,0,0-1.463-.686c-6.055-1.693-12.59-.9-18.547,1.108a86.029,86.029,0,0,0-16.283,7.545" transform="translate(-417.929 -327.32)" fill="#e8505b"/>
          </g>
        </g>
        <g id="Group_42-2" data-name="Group 42" transform="translate(51.034 65.239)">
          <g id="Group_41-2" data-name="Group 41">
            <path id="Path_21-2" data-name="Path 21" d="M389.576,352.354c-4.17-8.417-3.9-18.24-.3-26.914,2.535,3.864,2.846,8.785,2.382,13.382s-1.863,9.329-1.954,13.95" transform="translate(-386.513 -325.44)" fill="#e8505b"/>
          </g>
        </g>
        <g id="Group_44-2" data-name="Group 44" transform="translate(9.546 83.745)">
          <g id="Group_43-2" data-name="Group 43">
            <path id="Path_22-2" data-name="Path 22" d="M380.071,340.762a37.536,37.536,0,0,0-27.893,11.883c5.2.816,10.547-.524,15.273-2.832s8.926-5.545,13.09-8.76" transform="translate(-352.178 -340.756)" fill="#e8505b"/>
          </g>
        </g>
        <g id="Group_46-2" data-name="Group 46" transform="translate(0 79.516)">
          <g id="Group_45-2" data-name="Group 45">
            <path id="Path_23-2" data-name="Path 23" d="M370.518,337.746c-5.093-.413-9.994-1.043-14.89.457s-9.354,4.907-11.35,9.624a26.915,26.915,0,0,0,13.96-2.637,80.293,80.293,0,0,0,12.28-7.444" transform="translate(-344.278 -337.255)" fill="#e8505b"/>
          </g>
        </g>
        <g id="Group_48-2" data-name="Group 48" transform="translate(12.964 72.359)">
          <g id="Group_47-2" data-name="Group 47">
            <path id="Path_24-2" data-name="Path 24" d="M384.865,339.151c-4.582-3-9.287-6.059-14.622-7.3s-11.517-.324-15.236,3.7c4.317,2.535,9.558,2.833,14.564,2.83s11.146-.06,15.865,1.609" transform="translate(-355.007 -331.332)" fill="#e8505b"/>
          </g>
        </g>
        <g id="Group_50-2" data-name="Group 50" transform="translate(33.958 48.396)">
          <g id="Group_49-2" data-name="Group 49">
            <path id="Path_25-2" data-name="Path 25" d="M381.272,343.524c-7.832-7.691-10.8-21.508-7.651-32.023a48.787,48.787,0,0,1,7.651,32.023" transform="translate(-372.382 -311.501)" fill="#e8505b"/>
          </g>
        </g>
        <g id="Group_52-2" data-name="Group 52" transform="translate(64.387 33.354)">
          <g id="Group_51-2" data-name="Group 51">
            <path id="Path_26-2" data-name="Path 26" d="M397.564,324.325c1.477-3.434,2.516-7.038,3.841-10.534a30.282,30.282,0,0,1,5.476-9.711,14.431,14.431,0,0,1,9.7-5.028,39.067,39.067,0,0,1-18.828,25.328" transform="translate(-397.564 -299.052)" fill="#e8505b"/>
          </g>
        </g>
        <g id="Group_54-2" data-name="Group 54" transform="translate(40.228 49.365)">
          <g id="Group_53-2" data-name="Group 53">
            <path id="Path_27-2" data-name="Path 27" d="M397.831,326.106c-2.444-3.365-5.268-7.933-8.584-10.444s-7.632-4.031-11.677-3.067a27.2,27.2,0,0,0,20.261,13.51" transform="translate(-377.57 -312.303)" fill="#e8505b"/>
          </g>
        </g>
        <g id="Group_56-2" data-name="Group 56" transform="translate(57.122 33.669)">
          <g id="Group_55-2" data-name="Group 55">
            <path id="Path_28-2" data-name="Path 28" d="M395.7,324.551a58.161,58.161,0,0,1-3.864-12.513c-.648-4.327-.253-8.95,1.96-12.725,4.3,8.128,5.684,16.853,2.124,25.33" transform="translate(-391.552 -299.313)" fill="#e8505b"/>
          </g>
        </g>
        <g id="Group_58-2" data-name="Group 58" transform="translate(64.426 16.444)">
          <g id="Group_57-2" data-name="Group 57">
            <path id="Path_29-2" data-name="Path 29" d="M397.6,302.283c2.436-8.057,9.813-13.989,17.778-16.711a6.639,6.639,0,0,1,3.117-.468,2.7,2.7,0,0,1,2.3,1.918c.29,1.371-.842,2.6-1.907,3.509A60.489,60.489,0,0,1,397.6,302.283" transform="translate(-397.596 -285.057)" fill="#e8505b"/>
          </g>
        </g>
        <g id="Group_60-2" data-name="Group 60" transform="translate(64.387)">
          <g id="Group_59-2" data-name="Group 59">
            <path id="Path_30-2" data-name="Path 30" d="M397.691,298.529c.309-5.195.634-10.464,2.324-15.387s4.946-9.54,9.684-11.693c.806,5.247-1.509,10.467-4.3,14.981s-6.156,8.776-7.834,13.812" transform="translate(-397.564 -271.449)" fill="#e8505b"/>
          </g>
        </g>
        <g id="Group_62-2" data-name="Group 62" transform="translate(49.279 2.412)">
          <g id="Group_61-2" data-name="Group 61">
            <path id="Path_31-2" data-name="Path 31" d="M400.169,301.69c-2.013-5.872-2.221-13.33-5.737-18.446-2.458-3.575-6.395-6.011-8.511-9.8a14.9,14.9,0,0,0,.5,11.124,32.149,32.149,0,0,0,6.5,9.311c2.6,2.779,4.83,4.87,7.249,7.809" transform="translate(-385.061 -273.445)" fill="#e8505b"/>
          </g>
        </g>
        <g id="Group_65-2" data-name="Group 65" transform="translate(64.123 28.61)">
          <g id="Group_64-2" data-name="Group 64">
            <g id="Group_63-2" data-name="Group 63">
              <path id="Path_32-2" data-name="Path 32" d="M397.648,470.093c-.156,0-.291-39.17-.3-87.479-.011-48.325.106-87.488.263-87.488s.291,39.163.3,87.488C397.922,430.923,397.805,470.093,397.648,470.093Z" transform="translate(-397.345 -295.126)" fill="#263238"/>
            </g>
          </g>
        </g>
        <g id="Group_68-2" data-name="Group 68" transform="translate(64.376 86.235)">
          <g id="Group_67-2" data-name="Group 67">
            <g id="Group_66-2" data-name="Group 66">
              <path id="Path_33-2" data-name="Path 33" d="M431.835,342.823a8.445,8.445,0,0,1-1.472.553l-4.054,1.367c-3.417,1.165-8.112,2.85-13.207,4.938-5.046,2.164-9.8,3.921-12.513,6.269a9.192,9.192,0,0,0-2.513,3.326c-.389.92-.459,1.483-.51,1.473a1.131,1.131,0,0,1,.017-.411,6.182,6.182,0,0,1,.288-1.142,8.822,8.822,0,0,1,2.453-3.545,22,22,0,0,1,5.43-3.374c2.171-1.013,4.578-2.07,7.134-3.12,5.111-2.1,9.842-3.726,13.3-4.8,1.728-.539,3.137-.935,4.114-1.2A8.351,8.351,0,0,1,431.835,342.823Z" transform="translate(-397.555 -342.816)" fill="#263238"/>
            </g>
          </g>
        </g>
        <g id="Group_71-2" data-name="Group 71" transform="translate(67.069 58.68)">
          <g id="Group_70-2" data-name="Group 70">
            <g id="Group_69-2" data-name="Group 69">
              <path id="Path_34-2" data-name="Path 34" d="M442.591,320.013a2.328,2.328,0,0,1-.413.441l-1.257,1.181L436.23,325.9,420.611,339.8c-6.1,5.427-11.364,10.612-15.016,14.516-1.828,1.95-3.269,3.565-4.251,4.692-.458.524-.833.952-1.135,1.3a2.389,2.389,0,0,1-.424.43,2.5,2.5,0,0,1,.336-.5c.237-.315.582-.784,1.055-1.365.932-1.173,2.328-2.834,4.124-4.822a197.947,197.947,0,0,1,14.934-14.668c6.118-5.415,11.686-10.278,15.731-13.783l4.81-4.129,1.328-1.1A2.441,2.441,0,0,1,442.591,320.013Z" transform="translate(-399.784 -320.012)" fill="#263238"/>
            </g>
          </g>
        </g>
        <g id="Group_74-2" data-name="Group 74" transform="translate(81.302 70.428)">
          <g id="Group_73-2" data-name="Group 73">
            <g id="Group_72-2" data-name="Group 72">
              <path id="Path_35-2" data-name="Path 35" d="M411.576,343.3c-.161-.071,1.114-3.011,2.383-6.73s1.883-6.857,2.046-6.831a22.948,22.948,0,0,1-1.51,7.012,45.522,45.522,0,0,1-1.9,4.708A7.314,7.314,0,0,1,411.576,343.3Z" transform="translate(-411.563 -329.735)" fill="#263238"/>
            </g>
          </g>
        </g>
        <g id="Group_77-2" data-name="Group 77" transform="translate(41.758 79.096)">
          <g id="Group_76-2" data-name="Group 76">
            <g id="Group_75-2" data-name="Group 75">
              <path id="Path_36-2" data-name="Path 36" d="M401.54,365.51a6.945,6.945,0,0,1-.94-1.09c-.637-.818-1.444-1.852-2.406-3.086-2.023-2.614-4.816-6.22-7.95-10.168s-6.013-7.488-8.1-10.051l-2.459-3.044a6.89,6.89,0,0,1-.848-1.162,7.078,7.078,0,0,1,1.016,1.02c.627.679,1.515,1.68,2.6,2.929,2.167,2.5,5.1,6,8.236,9.957s5.885,7.6,7.826,10.279c.97,1.339,1.744,2.43,2.263,3.2A7.081,7.081,0,0,1,401.54,365.51Z" transform="translate(-378.836 -336.908)" fill="#263238"/>
            </g>
          </g>
        </g>
        <g id="Group_80-2" data-name="Group 80" transform="translate(53.061 86.222)">
          <g id="Group_79-2" data-name="Group 79">
            <g id="Group_78-2" data-name="Group 78">
              <path id="Path_37-2" data-name="Path 37" d="M392.085,354.647a13.814,13.814,0,0,1-3.144-5.886,16.828,16.828,0,0,1-.713-5.935l.25.021c-.112.453-.193.692-.238.685s-.047-.26-.01-.726l.249.021a27.127,27.127,0,0,0,1,5.773C390.5,352.1,392.238,354.551,392.085,354.647Z" transform="translate(-388.191 -342.805)" fill="#263238"/>
            </g>
          </g>
        </g>
        <g id="Group_83-2" data-name="Group 83" transform="translate(30.312 83.468)">
          <g id="Group_82-2" data-name="Group 82">
            <g id="Group_81-2" data-name="Group 81">
              <path id="Path_38-2" data-name="Path 38" d="M386.318,342.933a10.134,10.134,0,0,0-2.194-1.276,14.712,14.712,0,0,0-6.1-.484,37.728,37.728,0,0,0-6.137.991,18.723,18.723,0,0,1-2.527.607,8.755,8.755,0,0,1,2.419-.992,28.038,28.038,0,0,1,6.2-1.17,13.306,13.306,0,0,1,6.288.678A3.889,3.889,0,0,1,386.318,342.933Z" transform="translate(-369.364 -340.526)" fill="#263238"/>
            </g>
          </g>
        </g>
        <g id="Group_86-2" data-name="Group 86" transform="translate(21.147 79.32)">
          <g id="Group_85-2" data-name="Group 85">
            <g id="Group_84-2" data-name="Group 84">
              <path id="Path_39-2" data-name="Path 39" d="M385.6,340.694c-.042.088-1.278-.512-3.363-1.224a33.843,33.843,0,0,0-16.949-1.293c-2.169.388-3.481.794-3.51.7a3.165,3.165,0,0,1,.892-.379,20.755,20.755,0,0,1,2.54-.714,29.922,29.922,0,0,1,17.164,1.309,21.118,21.118,0,0,1,2.4,1.09A3.208,3.208,0,0,1,385.6,340.694Z" transform="translate(-361.779 -337.094)" fill="#263238"/>
            </g>
          </g>
        </g>
        <g id="Group_89-2" data-name="Group 89" transform="translate(60.012 53.248)">
          <g id="Group_88-2" data-name="Group 88">
            <g id="Group_87-2" data-name="Group 87">
              <path id="Path_40-2" data-name="Path 40" d="M398.318,332.7a69.257,69.257,0,0,1-2.453-8.52,69.413,69.413,0,0,1-1.9-8.66,69.745,69.745,0,0,1,2.453,8.521A69.66,69.66,0,0,1,398.318,332.7Z" transform="translate(-393.943 -315.517)" fill="#263238"/>
            </g>
          </g>
        </g>
        <g id="Group_92-2" data-name="Group 92" transform="translate(57.821 61.189)">
          <g id="Group_91-2" data-name="Group 91">
            <g id="Group_90-2" data-name="Group 90">
              <path id="Path_41-2" data-name="Path 41" d="M398.852,331.328a41.21,41.21,0,0,0-2.719-5.1,22.47,22.47,0,0,0-4-4.13,3.736,3.736,0,0,1,1.544.8A12.449,12.449,0,0,1,396.6,325.9,11.312,11.312,0,0,1,398.852,331.328Z" transform="translate(-392.13 -322.089)" fill="#263238"/>
            </g>
          </g>
        </g>
        <g id="Group_95-2" data-name="Group 95" transform="translate(28.541 125.523)">
          <g id="Group_94-2" data-name="Group 94">
            <g id="Group_93-2" data-name="Group 93">
              <path id="Path_42-2" data-name="Path 42" d="M403.783,432.5c-.061.01-.176-.941-.618-2.6a37.1,37.1,0,0,0-2.617-6.782c-2.707-5.53-7.631-12.542-13.889-19.566-3.1-3.542-6.108-6.884-8.661-10.083a70.807,70.807,0,0,1-6.2-8.933,42.9,42.9,0,0,1-3.126-6.63c-.288-.817-.5-1.455-.615-1.9a3.271,3.271,0,0,1-.161-.677c.051-.016.336.9.981,2.493a48.494,48.494,0,0,0,3.266,6.507,75.05,75.05,0,0,0,6.255,8.809c2.563,3.167,5.575,6.49,8.682,10.039,6.274,7.042,11.187,14.143,13.822,19.765a33.8,33.8,0,0,1,2.471,6.9,19.258,19.258,0,0,1,.347,1.965A3.137,3.137,0,0,1,403.783,432.5Z" transform="translate(-367.898 -375.331)" fill="#263238"/>
            </g>
          </g>
        </g>
        <g id="Group_98-2" data-name="Group 98" transform="translate(64.423 147.755)">
          <g id="Group_97-2" data-name="Group 97">
            <g id="Group_96-2" data-name="Group 96">
              <path id="Path_43-2" data-name="Path 43" d="M428.529,393.732a13.855,13.855,0,0,1-1.62.91,35.43,35.43,0,0,0-4.205,2.78,48.209,48.209,0,0,0-5.522,5.036c-1.938,2.048-3.936,4.426-5.973,6.973-4.075,5.112-7.884,9.635-10.167,13.246-1.158,1.791-2,3.3-2.552,4.361a13.931,13.931,0,0,1-.893,1.631,1.623,1.623,0,0,1,.151-.459c.12-.291.284-.73.544-1.27a41.331,41.331,0,0,1,2.412-4.477c2.216-3.7,6-8.282,10.063-13.386,2.042-2.553,4.064-4.936,6.038-6.98a44.746,44.746,0,0,1,5.659-5,29.418,29.418,0,0,1,4.343-2.655c.538-.269.975-.435,1.265-.561A1.632,1.632,0,0,1,428.529,393.732Z" transform="translate(-397.593 -393.729)" fill="#263238"/>
            </g>
          </g>
        </g>
        <g id="Group_101-2" data-name="Group 101" transform="translate(74.586 159.051)">
          <g id="Group_100-2" data-name="Group 100">
            <g id="Group_99-2" data-name="Group 99">
              <path id="Path_44-2" data-name="Path 44" d="M427.382,403.119a23.214,23.214,0,0,1-3.426.5,45.224,45.224,0,0,0-8.127,1.6,24.441,24.441,0,0,0-7.275,3.818c-1.678,1.3-2.469,2.368-2.546,2.305a2.591,2.591,0,0,1,.508-.788,12.852,12.852,0,0,1,1.785-1.828,22.038,22.038,0,0,1,7.356-4.047,36.688,36.688,0,0,1,8.26-1.46A19.1,19.1,0,0,1,427.382,403.119Z" transform="translate(-406.004 -403.078)" fill="#263238"/>
            </g>
          </g>
        </g>
        <g id="Group_104-2" data-name="Group 104" transform="translate(75.574 154.46)">
          <g id="Group_103-2" data-name="Group 103">
            <g id="Group_102-2" data-name="Group 102">
              <path id="Path_45-2" data-name="Path 45" d="M406.836,410.889c-.179-.1,1.365-2.46,2.564-5.633,1.124-3.2,1.387-6.008,1.588-5.976a5.42,5.42,0,0,1-.057,1.839,19.648,19.648,0,0,1-1,4.331,20.885,20.885,0,0,1-1.988,3.973A5.517,5.517,0,0,1,406.836,410.889Z" transform="translate(-406.822 -399.279)" fill="#263238"/>
            </g>
          </g>
        </g>
        <g id="Group_107-2" data-name="Group 107" transform="translate(64.436 117.327)">
          <g id="Group_106-2" data-name="Group 106">
            <g id="Group_105-2" data-name="Group 105">
              <path id="Path_46-2" data-name="Path 46" d="M438.544,368.55a2.562,2.562,0,0,1-.549.291l-1.609.732c-.706.3-1.562.685-2.527,1.194s-2.1,1.014-3.273,1.721l-1.87,1.063c-.648.372-1.289.814-1.971,1.242-1.379.835-2.759,1.866-4.233,2.917a72.605,72.605,0,0,0-16.3,16.865c-1,1.509-1.983,2.924-2.771,4.331-.4.7-.824,1.352-1.174,2.012s-.679,1.3-1,1.906c-.666,1.2-1.142,2.345-1.607,3.33s-.83,1.85-1.108,2.565l-.677,1.635a2.6,2.6,0,0,1-.272.557,2.56,2.56,0,0,1,.164-.6c.153-.442.344-1,.579-1.676.248-.73.573-1.614,1.023-2.611s.893-2.167,1.539-3.385l.972-1.933c.343-.669.756-1.335,1.154-2.042.776-1.426,1.75-2.86,2.745-4.389A69.986,69.986,0,0,1,422.2,377.292c1.493-1.048,2.894-2.07,4.292-2.894.692-.422,1.344-.858,2-1.223l1.9-1.038c1.2-.688,2.343-1.181,3.329-1.654s1.855-.84,2.576-1.112l1.654-.636A2.544,2.544,0,0,1,438.544,368.55Z" transform="translate(-397.604 -368.547)" fill="#263238"/>
            </g>
          </g>
        </g>
        <g id="Group_110-2" data-name="Group 110" transform="translate(80.89 129.642)">
          <g id="Group_109-2" data-name="Group 109">
            <g id="Group_108-2" data-name="Group 108">
              <path id="Path_47-2" data-name="Path 47" d="M411.227,382.829a3.94,3.94,0,0,1,1.346-2A8.5,8.5,0,0,1,418,378.744a14.809,14.809,0,0,1,5.707,1.115,8.15,8.15,0,0,1,2.158,1.048,13.111,13.111,0,0,1-2.29-.669,17.239,17.239,0,0,0-5.557-.928,8.839,8.839,0,0,0-5.181,1.819A16.106,16.106,0,0,0,411.227,382.829Z" transform="translate(-411.221 -378.74)" fill="#263238"/>
            </g>
          </g>
        </g>
        <g id="Group_113-2" data-name="Group 113" transform="translate(77.224 127.265)">
          <g id="Group_112-2" data-name="Group 112">
            <g id="Group_111-2" data-name="Group 111">
              <path id="Path_48-2" data-name="Path 48" d="M408.2,387.014a14.485,14.485,0,0,0,1.2-10.241,3.328,3.328,0,0,1,.636,1.46,10.348,10.348,0,0,1-.876,7.507C408.676,386.607,408.254,387.054,408.2,387.014Z" transform="translate(-408.188 -376.772)" fill="#263238"/>
            </g>
          </g>
        </g>
      </g>
      <g id="Group_116-2" data-name="Group 116" transform="translate(381.65 459.757)">
        <g id="Group_115-2" data-name="Group 115">
          <path id="Path_49-2" data-name="Path 49" d="M375.207,427.291c.843,14.97,5.355,30.194,12.294,45.587h30.172c6.617-15.239,10.817-30.44,11.564-45.587Z" transform="translate(-375.207 -427.291)" fill="#455a64"/>
        </g>
      </g>
      <g id="Group_119-2" data-name="Group 119" transform="translate(386.415 483.698)">
        <g id="Group_118-2" data-name="Group 118">
          <g id="Group_117-2" data-name="Group 117">
            <path id="Path_50-2" data-name="Path 50" d="M423.525,447.387c0,.157-9.935.284-22.186.284s-22.188-.127-22.188-.284,9.932-.283,22.188-.283S423.525,447.231,423.525,447.387Z" transform="translate(-379.15 -447.104)" fill="#fafafa"/>
          </g>
        </g>
      </g>
      <g id="Group_122-2" data-name="Group 122" transform="translate(388.515 489.121)">
        <g id="Group_121-2" data-name="Group 121">
          <g id="Group_120-2" data-name="Group 120">
            <path id="Path_51-2" data-name="Path 51" d="M422.488,451.875c0,.157-9.314.284-20.8.284s-20.8-.127-20.8-.284,9.311-.283,20.8-.283S422.488,451.719,422.488,451.875Z" transform="translate(-380.888 -451.592)" fill="#fafafa"/>
          </g>
        </g>
      </g>
    </g>
  </g>
</svg>
