<svg xmlns="http://www.w3.org/2000/svg" width="356" height="702.515" viewBox="0 0 356 702.515">
  <g id="Group_796" data-name="Group 796" transform="translate(-1542 -335)">
    <g id="Group_123" data-name="Group 123" transform="translate(1197.722 356.551)" opacity="0.57">
      <g id="Group_114" data-name="Group 114" transform="translate(344.278 271.449)">
        <g id="Group_2" data-name="Group 2" transform="translate(7.431 211.722)">
          <g id="Group_1" data-name="Group 1">
            <path id="Path_1" data-name="Path 1" d="M391.43,381.6a66.993,66.993,0,0,0-28.662-9.865c-4.682-.48-9.8-.343-13.557,2.494a2.784,2.784,0,0,0-1.394,2.475,3.017,3.017,0,0,0,1.324,1.692c11.661,8.9,29.3,10.02,42.289,3.2" transform="translate(-347.791 -371.525)" fill="#ed6d23"/>
          </g>
        </g>
        <g id="Group_4" data-name="Group 4" transform="translate(19.873 176.056)">
          <g id="Group_3" data-name="Group 3">
            <path id="Path_2" data-name="Path 2" d="M384.133,399.6c-6.489-5.063-13.013-10.161-18.512-16.288s-9.962-13.4-11.606-21.463c-.5-2.446-.652-5.24.918-7.183,14.756,11.524,26.348,26.428,29.2,44.933" transform="translate(-353.671 -354.667)" fill="#ed6d23"/>
          </g>
        </g>
        <g id="Group_6" data-name="Group 6" transform="translate(49.977 177.33)">
          <g id="Group_5" data-name="Group 5">
            <path id="Path_3" data-name="Path 3" d="M368.843,399.629c-1.113-8.073-1.513-16.371.343-24.3s6.169-15.531,12.945-20.056c2.551,5.96,1.453,12.827-.343,19.055a92.569,92.569,0,0,1-12.837,27.027" transform="translate(-367.901 -355.269)" fill="#ed6d23"/>
          </g>
        </g>
        <g id="Group_8" data-name="Group 8" transform="translate(29.25 247.608)">
          <g id="Group_7" data-name="Group 7">
            <path id="Path_4" data-name="Path 4" d="M394.236,388.488c-8.78,1.068-16.428,5.7-22.984,11.634A43.475,43.475,0,0,0,358.1,422.691c8.613-.531,15.92-6.6,21.219-13.417s8.972-14.282,14.792-20.652" transform="translate(-358.104 -388.488)" fill="#ed6d23"/>
          </g>
        </g>
        <g id="Group_10" data-name="Group 10" transform="translate(64.572 198.13)">
          <g id="Group_9" data-name="Group 9">
            <path id="Path_5" data-name="Path 5" d="M378.752,418.725A56.69,56.69,0,0,1,385.3,365.1c5,17.8,3.165,37.895-6.546,53.624" transform="translate(-374.8 -365.101)" fill="#ed6d23"/>
          </g>
        </g>
        <g id="Group_12" data-name="Group 12" transform="translate(47.847 274.435)">
          <g id="Group_11" data-name="Group 11">
            <path id="Path_6" data-name="Path 6" d="M406.684,401.246a40.992,40.992,0,0,0-39.2,22.563c-.484.969-.914,2.2-.264,3.072a2.922,2.922,0,0,0,2.6.766c7.724-.5,14.57-5.149,20.221-10.44s10.57-11.405,16.813-15.983" transform="translate(-366.894 -401.168)" fill="#ed6d23"/>
          </g>
        </g>
        <g id="Group_14" data-name="Group 14" transform="translate(83.745 218.962)">
          <g id="Group_13" data-name="Group 13">
            <path id="Path_7" data-name="Path 7" d="M387.145,429.258a73.01,73.01,0,0,1-.73-40.778c1.439-5.249,3.85-10.775,8.7-13.235a1.7,1.7,0,0,1,1.331-.235,1.76,1.76,0,0,1,.842.975,24.572,24.572,0,0,1,2.052,11.7,73.29,73.29,0,0,1-1.834,11.843c-1.527,7.238-2.342,15.017-6.311,21.26a42.8,42.8,0,0,0-2.524,4.669c-.753,1.587-.757,2.145-1.447,3.406" transform="translate(-383.863 -374.948)" fill="#ed6d23"/>
          </g>
        </g>
        <g id="Group_16" data-name="Group 16" transform="translate(136.213 235.889)">
          <g id="Group_15" data-name="Group 15">
            <path id="Path_8" data-name="Path 8" d="M410.068,427.87c-3.747-14.257.231-31.542,9.216-43.23.662-.861,1.538-1.783,2.619-1.684,1.654.155,2.084,2.359,2.01,4.02a78.119,78.119,0,0,1-13.845,40.895" transform="translate(-408.663 -382.948)" fill="#ed6d23"/>
          </g>
        </g>
        <g id="Group_18" data-name="Group 18" transform="translate(142.179 268.982)">
          <g id="Group_17" data-name="Group 17">
            <path id="Path_9" data-name="Path 9" d="M411.483,413.538c17.323,4.506,37.194.125,51.6-10.5a41.781,41.781,0,0,0-27.934-3.429c-9.33,2.135-17.858,6.315-23.667,13.925" transform="translate(-411.483 -398.591)" fill="#ed6d23"/>
          </g>
        </g>
        <g id="Group_20" data-name="Group 20" transform="translate(146.027 247.354)">
          <g id="Group_19" data-name="Group 19">
            <path id="Path_10" data-name="Path 10" d="M413.3,415.448c9.7-15.816,28.3-26.138,46.831-27.08-2.135,7.538-8.329,13.4-15.317,16.935s-14.79,5.082-22.48,6.575c-2.991.582-7.1,1.221-9.034,3.569" transform="translate(-413.302 -388.368)" fill="#ed6d23"/>
          </g>
        </g>
        <g id="Group_22" data-name="Group 22" transform="translate(131.854 173.814)">
          <g id="Group_21" data-name="Group 21">
            <path id="Path_11" data-name="Path 11" d="M413.331,408.164c2.628-9,5.268-18.08,5.989-27.429s-.611-19.106-5.462-27.128c-9.061,17.534-9.979,38.022-.8,55.5" transform="translate(-406.603 -353.607)" fill="#ed6d23"/>
          </g>
        </g>
        <g id="Group_24" data-name="Group 24" transform="translate(169.092 176.149)">
          <g id="Group_23" data-name="Group 23">
            <path id="Path_12" data-name="Path 12" d="M424.2,391.512c10.6-19.26,32.219-34.645,54.1-36.8-8.439,21.012-31.455,37.252-54.1,36.8" transform="translate(-424.204 -354.711)" fill="#ed6d23"/>
          </g>
        </g>
        <g id="Group_26" data-name="Group 26" transform="translate(162.425 213.563)">
          <g id="Group_25" data-name="Group 25">
            <path id="Path_13" data-name="Path 13" d="M421.053,375.557c15.8,2.408,29.269,12.5,44.038,18.619,3.159,1.31,6.567,2.353,9.956,1.908s6.736-2.719,7.5-6.053a8.7,8.7,0,0,0-2.615-7.735,21.314,21.314,0,0,0-7.233-4.388c-16.085-6.7-33.338-6.865-50.281-2.8" transform="translate(-421.053 -372.396)" fill="#ed6d23"/>
          </g>
        </g>
        <g id="Group_28" data-name="Group 28" transform="translate(153.28 227.044)">
          <g id="Group_27" data-name="Group 27">
            <path id="Path_14" data-name="Path 14" d="M416.73,379.532c3.577,1.026,4.8,2.877,7.633,5.291a82.377,82.377,0,0,0,33.4,17.155c1.276.317,2.949.442,3.58-.711.552-1.007-.146-2.226-.863-3.123-5.134-6.423-12.457-10.817-20.164-13.688s-14.384-6.328-23.583-5.587" transform="translate(-416.73 -378.768)" fill="#ed6d23"/>
          </g>
        </g>
        <g id="Group_30" data-name="Group 30" transform="translate(142.958 159.15)">
          <g id="Group_29" data-name="Group 29">
            <path id="Path_15" data-name="Path 15" d="M411.851,348.386a63.2,63.2,0,0,0,48.456,16.485,3.312,3.312,0,0,0,2.2-.791c1.221-1.327-.243-3.374-1.663-4.483-14.246-11.107-31.5-15.71-49-11.211" transform="translate(-411.851 -346.676)" fill="#ed6d23"/>
          </g>
        </g>
        <g id="Group_32" data-name="Group 32" transform="translate(155.194 143.223)">
          <g id="Group_31" data-name="Group 31">
            <path id="Path_16" data-name="Path 16" d="M417.635,352.305a67.541,67.541,0,0,1,60.464-9.977c-7.616,7.506-18.179,11.543-28.812,12.649a91.164,91.164,0,0,1-31.652-2.672" transform="translate(-417.635 -339.147)" fill="#ed6d23"/>
          </g>
        </g>
        <g id="Group_34" data-name="Group 34" transform="translate(142.165 82.854)">
          <g id="Group_33" data-name="Group 33">
            <path id="Path_17" data-name="Path 17" d="M419.644,353.374c-1.4-14.219-.493-25.442-1.479-39.729-.078-1.14-.324-2.513-1.392-2.926-1.487-.571-2.727,1.255-3.214,2.771a45.543,45.543,0,0,0,6.063,39.57" transform="translate(-411.476 -310.612)" fill="#ed6d23"/>
          </g>
        </g>
        <g id="Group_36" data-name="Group 36" transform="translate(149.309 82.488)">
          <g id="Group_35" data-name="Group 35">
            <path id="Path_18" data-name="Path 18" d="M414.853,355.139c9.637-5.96,16.868-13.743,23.553-22.893,4.652-6.366,8.575-13.99,7.517-21.8-6.533-.131-12.74,3.472-16.988,8.437s-6.776,11.17-8.661,17.426-3.207,12.685-5.42,18.833" transform="translate(-414.853 -310.439)" fill="#ed6d23"/>
          </g>
        </g>
        <g id="Group_38" data-name="Group 38" transform="translate(172.149 85.145)">
          <g id="Group_37" data-name="Group 37">
            <path id="Path_19" data-name="Path 19" d="M425.949,347.309a189.9,189.9,0,0,0,57.968-34.18c-6.924-2.788-14.852-1.119-21.774,1.676-15.816,6.383-28.738,17.16-36.494,32.35" transform="translate(-425.649 -311.695)" fill="#ed6d23"/>
          </g>
        </g>
        <g id="Group_40" data-name="Group 40" transform="translate(155.816 118.201)">
          <g id="Group_39" data-name="Group 39">
            <path id="Path_20" data-name="Path 20" d="M417.929,344.086c10.7,1.17,21.569,1.931,32.187.157,10.434-1.743,20.295-5.879,30.048-9.984a3.536,3.536,0,0,0,2.042-1.551,2.35,2.35,0,0,0-.732-2.57,6.235,6.235,0,0,0-2.562-1.2c-10.6-2.964-22.042-1.576-32.472,1.94a150.627,150.627,0,0,0-28.51,13.21" transform="translate(-417.929 -327.32)" fill="#ed6d23"/>
          </g>
        </g>
        <g id="Group_42" data-name="Group 42" transform="translate(89.352 114.223)">
          <g id="Group_41" data-name="Group 41">
            <path id="Path_21" data-name="Path 21" d="M391.876,372.563c-7.3-14.737-6.827-31.935-.52-47.123,4.438,6.766,4.982,15.38,4.17,23.43s-3.262,16.335-3.421,24.425" transform="translate(-386.513 -325.44)" fill="#ed6d23"/>
          </g>
        </g>
        <g id="Group_44" data-name="Group 44" transform="translate(16.713 146.625)">
          <g id="Group_43" data-name="Group 43">
            <path id="Path_22" data-name="Path 22" d="M401.015,340.767a65.719,65.719,0,0,0-48.837,20.8c9.1,1.428,18.467-.918,26.741-4.959s15.628-9.709,22.918-15.338" transform="translate(-352.178 -340.756)" fill="#ed6d23"/>
          </g>
        </g>
        <g id="Group_46" data-name="Group 46" transform="translate(0 139.22)">
          <g id="Group_45" data-name="Group 45">
            <path id="Path_23" data-name="Path 23" d="M390.22,338.114c-8.917-.724-17.5-1.826-26.071.8s-16.377,8.591-19.872,16.851c8.34.939,16.8-1.153,24.441-4.616s14.6-8.261,21.5-13.034" transform="translate(-344.278 -337.255)" fill="#ed6d23"/>
          </g>
        </g>
        <g id="Group_48" data-name="Group 48" transform="translate(22.698 126.689)">
          <g id="Group_47" data-name="Group 47">
            <path id="Path_24" data-name="Path 24" d="M407.284,345.022c-8.022-5.257-16.26-10.608-25.6-12.787s-20.164-.567-26.676,6.472c7.559,4.438,16.734,4.961,25.5,4.955s19.514-.106,27.778,2.818" transform="translate(-355.007 -331.332)" fill="#ed6d23"/>
          </g>
        </g>
        <g id="Group_50" data-name="Group 50" transform="translate(59.456 84.734)">
          <g id="Group_49" data-name="Group 49">
            <path id="Path_25" data-name="Path 25" d="M387.947,367.569c-13.713-13.466-18.914-37.658-13.4-56.068a85.418,85.418,0,0,1,13.4,56.068" transform="translate(-372.382 -311.501)" fill="#ed6d23"/>
          </g>
        </g>
        <g id="Group_52" data-name="Group 52" transform="translate(112.732 58.397)">
          <g id="Group_51" data-name="Group 51">
            <path id="Path_26" data-name="Path 26" d="M397.564,343.3c2.585-6.013,4.4-12.323,6.726-18.444s5.2-12.143,9.588-17,10.449-8.477,16.986-8.8A68.4,68.4,0,0,1,397.9,343.4" transform="translate(-397.564 -299.052)" fill="#ed6d23"/>
          </g>
        </g>
        <g id="Group_54" data-name="Group 54" transform="translate(70.433 86.43)">
          <g id="Group_53" data-name="Group 53">
            <path id="Path_27" data-name="Path 27" d="M413.044,336.47c-4.28-5.892-9.224-13.889-15.029-18.285s-13.362-7.058-20.445-5.369a47.622,47.622,0,0,0,35.474,23.655" transform="translate(-377.57 -312.303)" fill="#ed6d23"/>
          </g>
        </g>
        <g id="Group_56" data-name="Group 56" transform="translate(100.012 58.949)">
          <g id="Group_55" data-name="Group 55">
            <path id="Path_28" data-name="Path 28" d="M398.811,343.5c-2.805-7.13-5.63-14.333-6.766-21.909s-.442-15.67,3.431-22.279c7.527,14.232,9.952,29.506,3.719,44.349" transform="translate(-391.552 -299.313)" fill="#ed6d23"/>
          </g>
        </g>
        <g id="Group_58" data-name="Group 58" transform="translate(112.8 28.79)">
          <g id="Group_57" data-name="Group 57">
            <path id="Path_29" data-name="Path 29" d="M397.6,315.216c4.265-14.107,17.181-24.492,31.127-29.259a11.624,11.624,0,0,1,5.458-.819A4.735,4.735,0,0,1,438.2,288.5c.508,2.4-1.475,4.551-3.338,6.144A105.907,105.907,0,0,1,397.6,315.216" transform="translate(-397.596 -285.057)" fill="#ed6d23"/>
          </g>
        </g>
        <g id="Group_60" data-name="Group 60" transform="translate(112.732)">
          <g id="Group_59" data-name="Group 59">
            <path id="Path_30" data-name="Path 30" d="M397.786,318.862c.542-9.095,1.111-18.321,4.068-26.94s8.659-16.7,16.954-20.473c1.411,9.186-2.642,18.325-7.529,26.229s-10.779,15.366-13.715,24.183" transform="translate(-397.564 -271.449)" fill="#ed6d23"/>
          </g>
        </g>
        <g id="Group_62" data-name="Group 62" transform="translate(86.28 4.223)">
          <g id="Group_61" data-name="Group 61">
            <path id="Path_31" data-name="Path 31" d="M411.513,322.9c-3.525-10.282-3.888-23.339-10.045-32.3-4.3-6.26-11.2-10.525-14.9-17.155-2.465,6.192-1.71,13.328.867,19.476s6.831,11.439,11.388,16.3,8.456,8.526,12.691,13.673" transform="translate(-385.061 -273.445)" fill="#ed6d23"/>
          </g>
        </g>
        <g id="Group_65" data-name="Group 65" transform="translate(112.27 50.091)">
          <g id="Group_64" data-name="Group 64">
            <g id="Group_63" data-name="Group 63">
              <path id="Path_32" data-name="Path 32" d="M397.876,601.467c-.273,0-.51-68.581-.529-153.163-.019-84.609.186-153.178.461-153.178s.51,68.569.529,153.178C398.356,532.886,398.151,601.467,397.876,601.467Z" transform="translate(-397.345 -295.126)" fill="#263238"/>
            </g>
          </g>
        </g>
        <g id="Group_68" data-name="Group 68" transform="translate(112.712 150.985)">
          <g id="Group_67" data-name="Group 67">
            <g id="Group_66" data-name="Group 66">
              <path id="Path_33" data-name="Path 33" d="M457.575,342.828A14.788,14.788,0,0,1,455,343.8l-7.1,2.393c-5.983,2.039-14.2,4.991-23.124,8.646-8.835,3.789-17.164,6.865-21.909,10.976a16.094,16.094,0,0,0-4.4,5.824c-.681,1.61-.8,2.6-.893,2.579a1.98,1.98,0,0,1,.03-.719,10.821,10.821,0,0,1,.5-2,15.447,15.447,0,0,1,4.295-6.207,38.518,38.518,0,0,1,9.508-5.907c3.8-1.773,8.016-3.624,12.49-5.462,8.949-3.669,17.232-6.525,23.282-8.4,3.025-.944,5.492-1.638,7.2-2.1A14.618,14.618,0,0,1,457.575,342.828Z" transform="translate(-397.555 -342.816)" fill="#263238"/>
            </g>
          </g>
        </g>
        <g id="Group_71" data-name="Group 71" transform="translate(117.429 102.74)">
          <g id="Group_70" data-name="Group 70">
            <g id="Group_69" data-name="Group 69">
              <path id="Path_34" data-name="Path 34" d="M474.733,320.014a4.076,4.076,0,0,1-.723.772c-.584.548-1.312,1.231-2.2,2.067l-8.215,7.464c-7.094,6.317-16.715,14.883-27.346,24.348-10.673,9.5-19.9,18.579-26.291,25.415-3.2,3.415-5.723,6.241-7.443,8.215-.8.918-1.458,1.667-1.987,2.27a4.182,4.182,0,0,1-.743.753,4.367,4.367,0,0,1,.588-.878c.415-.552,1.02-1.373,1.847-2.391,1.631-2.054,4.077-4.961,7.221-8.443a346.569,346.569,0,0,1,26.147-25.681c10.711-9.48,20.46-18,27.543-24.133l8.422-7.229,2.325-1.927A4.274,4.274,0,0,1,474.733,320.014Z" transform="translate(-399.784 -320.012)" fill="#263238"/>
            </g>
          </g>
        </g>
        <g id="Group_74" data-name="Group 74" transform="translate(142.347 123.31)">
          <g id="Group_73" data-name="Group 73">
            <g id="Group_72" data-name="Group 72">
              <path id="Path_35" data-name="Path 35" d="M411.587,353.479c-.281-.125,1.951-5.272,4.172-11.784,2.243-6.51,3.3-12.006,3.582-11.96.258.027-.372,5.682-2.645,12.277a79.724,79.724,0,0,1-3.319,8.242A12.806,12.806,0,0,1,411.587,353.479Z" transform="translate(-411.563 -329.735)" fill="#263238"/>
            </g>
          </g>
        </g>
        <g id="Group_77" data-name="Group 77" transform="translate(73.112 138.485)">
          <g id="Group_76" data-name="Group 76">
            <g id="Group_75" data-name="Group 75">
              <path id="Path_36" data-name="Path 36" d="M418.588,386.986a12.157,12.157,0,0,1-1.646-1.908c-1.115-1.432-2.528-3.243-4.212-5.4-3.541-4.576-8.433-10.891-13.919-17.8s-10.527-13.111-14.181-17.6c-1.722-2.13-3.165-3.918-4.305-5.329a12.062,12.062,0,0,1-1.485-2.035,12.4,12.4,0,0,1,1.779,1.786c1.1,1.189,2.653,2.941,4.549,5.128,3.793,4.375,8.926,10.512,14.42,17.433s10.3,13.311,13.7,18c1.7,2.344,3.053,4.254,3.963,5.6A12.4,12.4,0,0,1,418.588,386.986Z" transform="translate(-378.836 -336.908)" fill="#263238"/>
            </g>
          </g>
        </g>
        <g id="Group_80" data-name="Group 80" transform="translate(92.902 150.961)">
          <g id="Group_79" data-name="Group 79">
            <g id="Group_78" data-name="Group 78">
              <path id="Path_37" data-name="Path 37" d="M395.01,363.538c-.161.173-3.666-3.986-5.5-10.305a29.465,29.465,0,0,1-1.248-10.392l.438.036c-.2.793-.338,1.212-.417,1.2s-.083-.455-.017-1.271l.436.036a47.5,47.5,0,0,0,1.758,10.108C392.23,359.074,395.276,363.371,395.01,363.538Z" transform="translate(-388.191 -342.805)" fill="#263238"/>
            </g>
          </g>
        </g>
        <g id="Group_83" data-name="Group 83" transform="translate(53.071 146.14)">
          <g id="Group_82" data-name="Group 82">
            <g id="Group_81" data-name="Group 81">
              <path id="Path_38" data-name="Path 38" d="M399.048,344.74a17.746,17.746,0,0,0-3.842-2.234c-2.568-.992-6.434-1.21-10.673-.848a66.054,66.054,0,0,0-10.745,1.735,32.793,32.793,0,0,1-4.424,1.062c-.044-.119,1.534-.882,4.235-1.737a49.088,49.088,0,0,1,10.859-2.048c4.288-.37,8.354-.04,11.01,1.187C398.158,343.05,399.137,344.715,399.048,344.74Z" transform="translate(-369.364 -340.526)" fill="#263238"/>
            </g>
          </g>
        </g>
        <g id="Group_86" data-name="Group 86" transform="translate(37.025 138.878)">
          <g id="Group_85" data-name="Group 85">
            <g id="Group_84" data-name="Group 84">
              <path id="Path_39" data-name="Path 39" d="M403.488,343.4c-.074.154-2.238-.9-5.888-2.143a59.254,59.254,0,0,0-29.676-2.264c-3.8.679-6.095,1.39-6.146,1.227a5.543,5.543,0,0,1,1.561-.664,36.342,36.342,0,0,1,4.447-1.25,52.389,52.389,0,0,1,30.052,2.291,36.973,36.973,0,0,1,4.208,1.908A5.618,5.618,0,0,1,403.488,343.4Z" transform="translate(-361.779 -337.094)" fill="#263238"/>
            </g>
          </g>
        </g>
        <g id="Group_89" data-name="Group 89" transform="translate(105.072 93.23)">
          <g id="Group_88" data-name="Group 88">
            <g id="Group_87" data-name="Group 87">
              <path id="Path_40" data-name="Path 40" d="M401.6,345.6c-.267.068-2.19-6.611-4.295-14.917s-3.6-15.095-3.334-15.162,2.188,6.611,4.295,14.919S401.867,345.529,401.6,345.6Z" transform="translate(-393.943 -315.517)" fill="#263238"/>
            </g>
          </g>
        </g>
        <g id="Group_92" data-name="Group 92" transform="translate(101.236 107.133)">
          <g id="Group_91" data-name="Group 91">
            <g id="Group_90" data-name="Group 90">
              <path id="Path_41" data-name="Path 41" d="M403.9,338.265c-.3.1-1.532-4.367-4.76-8.93-3.142-4.661-7.153-7-7-7.231a6.541,6.541,0,0,1,2.7,1.394,21.8,21.8,0,0,1,5.111,5.268C403.3,333.514,404.138,338.248,403.9,338.265Z" transform="translate(-392.13 -322.089)" fill="#263238"/>
            </g>
          </g>
        </g>
        <g id="Group_95" data-name="Group 95" transform="translate(49.971 219.773)">
          <g id="Group_94" data-name="Group 94">
            <g id="Group_93" data-name="Group 93">
              <path id="Path_42" data-name="Path 42" d="M430.727,475.431c-.106.017-.309-1.648-1.081-4.559A64.954,64.954,0,0,0,425.063,459c-4.739-9.683-13.36-21.96-24.317-34.258-5.429-6.2-10.694-12.053-15.165-17.655a123.971,123.971,0,0,1-10.847-15.641,75.119,75.119,0,0,1-5.473-11.608c-.5-1.43-.874-2.547-1.077-3.319a5.725,5.725,0,0,1-.281-1.185c.089-.027.588,1.57,1.718,4.365a84.91,84.91,0,0,0,5.718,11.392,131.392,131.392,0,0,0,10.952,15.423c4.487,5.545,9.761,11.363,15.2,17.576,10.984,12.33,19.586,24.763,24.2,34.6a59.181,59.181,0,0,1,4.326,12.086,33.71,33.71,0,0,1,.607,3.44A5.494,5.494,0,0,1,430.727,475.431Z" transform="translate(-367.898 -375.331)" fill="#263238"/>
            </g>
          </g>
        </g>
        <g id="Group_98" data-name="Group 98" transform="translate(112.794 258.697)">
          <g id="Group_97" data-name="Group 97">
            <g id="Group_96" data-name="Group 96">
              <path id="Path_43" data-name="Path 43" d="M451.756,393.735a24.248,24.248,0,0,1-2.837,1.593,62.028,62.028,0,0,0-7.362,4.868,84.394,84.394,0,0,0-9.668,8.818c-3.393,3.586-6.891,7.749-10.457,12.209-7.134,8.951-13.8,16.87-17.8,23.191-2.027,3.135-3.5,5.78-4.468,7.635a24.377,24.377,0,0,1-1.563,2.856,2.847,2.847,0,0,1,.264-.8c.21-.51.5-1.278.952-2.224a72.373,72.373,0,0,1,4.223-7.838c3.88-6.474,10.5-14.5,17.619-23.437,3.575-4.47,7.115-8.642,10.572-12.222a78.341,78.341,0,0,1,9.907-8.746,51.5,51.5,0,0,1,7.6-4.648c.941-.472,1.707-.762,2.215-.982A2.854,2.854,0,0,1,451.756,393.735Z" transform="translate(-397.593 -393.729)" fill="#263238"/>
            </g>
          </g>
        </g>
        <g id="Group_101" data-name="Group 101" transform="translate(130.589 278.475)">
          <g id="Group_100" data-name="Group 100">
            <g id="Group_99" data-name="Group 99">
              <path id="Path_44" data-name="Path 44" d="M443.433,403.15c.013.146-2.291.425-6,.872a79.188,79.188,0,0,0-14.23,2.8,42.792,42.792,0,0,0-12.738,6.685c-2.939,2.27-4.322,4.147-4.458,4.037a4.537,4.537,0,0,1,.889-1.379,22.5,22.5,0,0,1,3.125-3.2,38.585,38.585,0,0,1,12.88-7.085,64.236,64.236,0,0,1,14.462-2.556A33.436,33.436,0,0,1,443.433,403.15Z" transform="translate(-406.004 -403.078)" fill="#263238"/>
            </g>
          </g>
        </g>
        <g id="Group_104" data-name="Group 104" transform="translate(132.319 270.437)">
          <g id="Group_103" data-name="Group 103">
            <g id="Group_102" data-name="Group 102">
              <path id="Path_45" data-name="Path 45" d="M406.847,419.606c-.313-.178,2.391-4.307,4.489-9.863,1.968-5.6,2.429-10.519,2.78-10.464a9.492,9.492,0,0,1-.1,3.22,34.4,34.4,0,0,1-1.75,7.582,36.569,36.569,0,0,1-3.48,6.956A9.658,9.658,0,0,1,406.847,419.606Z" transform="translate(-406.822 -399.279)" fill="#263238"/>
            </g>
          </g>
        </g>
        <g id="Group_107" data-name="Group 107" transform="translate(112.817 205.422)">
          <g id="Group_106" data-name="Group 106">
            <g id="Group_105" data-name="Group 105">
              <path id="Path_46" data-name="Path 46" d="M469.284,368.553a4.486,4.486,0,0,1-.961.51l-2.818,1.282c-1.236.529-2.735,1.2-4.424,2.09s-3.673,1.775-5.731,3.013q-1.571.892-3.275,1.862c-1.134.652-2.257,1.426-3.451,2.175-2.414,1.462-4.83,3.266-7.411,5.107a127.118,127.118,0,0,0-28.535,29.527c-1.752,2.642-3.472,5.12-4.851,7.582-.707,1.219-1.443,2.367-2.056,3.522s-1.189,2.27-1.747,3.336c-1.166,2.1-2,4.106-2.814,5.831-.834,1.718-1.453,3.239-1.94,4.491-.48,1.159-.872,2.107-1.185,2.862a4.548,4.548,0,0,1-.476.975,4.481,4.481,0,0,1,.288-1.043c.269-.774.6-1.745,1.013-2.934.434-1.278,1-2.826,1.792-4.572.77-1.754,1.564-3.793,2.7-5.926q.816-1.622,1.7-3.385c.6-1.172,1.324-2.338,2.02-3.575,1.358-2.5,3.063-5.008,4.807-7.684a122.536,122.536,0,0,1,28.745-29.743c2.615-1.834,5.067-3.624,7.515-5.067,1.212-.738,2.353-1.5,3.5-2.141l3.326-1.817c2.092-1.2,4.1-2.067,5.828-2.9,1.72-.846,3.248-1.47,4.51-1.946l2.9-1.113A4.459,4.459,0,0,1,469.284,368.553Z" transform="translate(-397.604 -368.547)" fill="#263238"/>
            </g>
          </g>
        </g>
        <g id="Group_110" data-name="Group 110" transform="translate(141.626 226.984)">
          <g id="Group_109" data-name="Group 109">
            <g id="Group_108" data-name="Group 108">
              <path id="Path_47" data-name="Path 47" d="M411.231,385.9c-.087-.015.389-1.678,2.357-3.51a14.88,14.88,0,0,1,9.5-3.643,25.927,25.927,0,0,1,9.992,1.953c2.42.95,3.827,1.72,3.779,1.834-.057.14-1.563-.4-4.009-1.172a30.183,30.183,0,0,0-9.73-1.625,15.475,15.475,0,0,0-9.072,3.184C412.082,384.5,411.39,386,411.231,385.9Z" transform="translate(-411.221 -378.74)" fill="#263238"/>
            </g>
          </g>
        </g>
        <g id="Group_113" data-name="Group 113" transform="translate(135.208 222.822)">
          <g id="Group_112" data-name="Group 112">
            <g id="Group_111" data-name="Group 111">
              <path id="Path_48" data-name="Path 48" d="M408.209,394.7c-.273-.15,2.145-3.694,2.7-8.771.635-5.069-.9-9.074-.6-9.158a5.824,5.824,0,0,1,1.113,2.556,18.119,18.119,0,0,1-1.534,13.144C409.043,393.991,408.3,394.773,408.209,394.7Z" transform="translate(-408.188 -376.772)" fill="#263238"/>
            </g>
          </g>
        </g>
      </g>
      <g id="Group_116" data-name="Group 116" transform="translate(409.711 601.149)">
        <g id="Group_115" data-name="Group 115">
          <path id="Path_49" data-name="Path 49" d="M375.207,427.291c1.477,26.21,9.376,52.865,21.524,79.815h52.827c11.585-26.682,18.939-53.3,20.246-79.815Z" transform="translate(-375.207 -427.291)" fill="#212429"/>
        </g>
      </g>
      <g id="Group_119" data-name="Group 119" transform="translate(418.053 643.065)">
        <g id="Group_118" data-name="Group 118">
          <g id="Group_117" data-name="Group 117">
            <path id="Path_50" data-name="Path 50" d="M456.843,447.6c0,.275-17.395.5-38.845.5s-38.849-.222-38.849-.5,17.39-.5,38.849-.5S456.843,447.326,456.843,447.6Z" transform="translate(-379.15 -447.104)" fill="#fafafa"/>
          </g>
        </g>
      </g>
      <g id="Group_122" data-name="Group 122" transform="translate(421.73 652.56)">
        <g id="Group_121" data-name="Group 121">
          <g id="Group_120" data-name="Group 120">
            <path id="Path_51" data-name="Path 51" d="M453.724,452.087c0,.275-16.307.5-36.416.5s-36.42-.222-36.42-.5,16.3-.495,36.42-.495S453.724,451.814,453.724,452.087Z" transform="translate(-380.888 -451.592)" fill="#fafafa"/>
          </g>
        </g>
      </g>
    </g>
    <g id="Group_766" data-name="Group 766" transform="translate(1428.138 449.71)" opacity="0.57">
      <g id="Group_114-2" data-name="Group 114" transform="translate(344.278 271.449)">
        <g id="Group_2-2" data-name="Group 2" transform="translate(4.05 115.394)">
          <g id="Group_1-2" data-name="Group 1">
            <path id="Path_1-2" data-name="Path 1" d="M371.575,377.018a36.513,36.513,0,0,0-15.622-5.377c-2.552-.262-5.341-.187-7.389,1.359a1.517,1.517,0,0,0-.76,1.349,1.645,1.645,0,0,0,.722.922c6.356,4.849,15.97,5.461,23.049,1.746" transform="translate(-347.791 -371.525)" fill="#ed6d23"/>
          </g>
        </g>
        <g id="Group_4-2" data-name="Group 4" transform="translate(10.831 95.955)">
          <g id="Group_3-2" data-name="Group 3">
            <path id="Path_2-2" data-name="Path 2" d="M370.274,379.157a76.169,76.169,0,0,1-10.089-8.877,25.526,25.526,0,0,1-6.326-11.7,4.719,4.719,0,0,1,.5-3.915c8.043,6.281,14.36,14.4,15.915,24.49" transform="translate(-353.671 -354.667)" fill="#ed6d23"/>
          </g>
        </g>
        <g id="Group_6-2" data-name="Group 6" transform="translate(27.239 96.65)">
          <g id="Group_5-2" data-name="Group 5">
            <path id="Path_3-2" data-name="Path 3" d="M368.414,379.446A36.443,36.443,0,0,1,368.6,366.2a17.906,17.906,0,0,1,7.056-10.931c1.391,3.248.792,6.991-.187,10.386a50.453,50.453,0,0,1-7,14.73" transform="translate(-367.901 -355.269)" fill="#ed6d23"/>
          </g>
        </g>
        <g id="Group_8-2" data-name="Group 8" transform="translate(15.942 134.953)">
          <g id="Group_7-2" data-name="Group 7">
            <path id="Path_4-2" data-name="Path 4" d="M377.8,388.488c-4.785.582-8.954,3.105-12.527,6.341a23.7,23.7,0,0,0-7.166,12.3c4.694-.289,8.677-3.6,11.565-7.313s4.89-7.784,8.062-11.256" transform="translate(-358.104 -388.488)" fill="#ed6d23"/>
          </g>
        </g>
        <g id="Group_10-2" data-name="Group 10" transform="translate(35.194 107.987)">
          <g id="Group_9-2" data-name="Group 9">
            <path id="Path_5-2" data-name="Path 5" d="M376.954,394.328a30.9,30.9,0,0,1,3.568-29.227c2.727,9.7,1.725,20.654-3.568,29.227" transform="translate(-374.8 -365.101)" fill="#ed6d23"/>
          </g>
        </g>
        <g id="Group_12-2" data-name="Group 12" transform="translate(26.078 149.575)">
          <g id="Group_11-2" data-name="Group 11">
            <path id="Path_6-2" data-name="Path 6" d="M388.581,401.211a22.342,22.342,0,0,0-21.363,12.3c-.264.528-.5,1.2-.144,1.674a1.593,1.593,0,0,0,1.417.417c4.21-.273,7.941-2.807,11.021-5.69s5.761-6.216,9.163-8.711" transform="translate(-366.894 -401.168)" fill="#ed6d23"/>
          </g>
        </g>
        <g id="Group_14-2" data-name="Group 14" transform="translate(45.644 119.34)">
          <g id="Group_13-2" data-name="Group 13">
            <path id="Path_7-2" data-name="Path 7" d="M385.651,404.548a39.792,39.792,0,0,1-.4-22.225c.784-2.861,2.1-5.873,4.744-7.214a.929.929,0,0,1,.725-.128.959.959,0,0,1,.459.532,13.392,13.392,0,0,1,1.118,6.376,39.947,39.947,0,0,1-1,6.455c-.832,3.945-1.276,8.184-3.44,11.587a23.326,23.326,0,0,0-1.376,2.545c-.41.865-.413,1.169-.789,1.856" transform="translate(-383.863 -374.948)" fill="#ed6d23"/>
          </g>
        </g>
        <g id="Group_16-2" data-name="Group 16" transform="translate(74.24 128.566)">
          <g id="Group_15-2" data-name="Group 15">
            <path id="Path_8-2" data-name="Path 8" d="M409.429,407.432c-2.042-7.771.126-17.191,5.023-23.562.361-.469.838-.972,1.428-.918.9.084,1.136,1.286,1.1,2.191a42.577,42.577,0,0,1-7.546,22.289" transform="translate(-408.663 -382.948)" fill="#ed6d23"/>
          </g>
        </g>
        <g id="Group_18-2" data-name="Group 18" transform="translate(77.491 146.602)">
          <g id="Group_17-2" data-name="Group 17">
            <path id="Path_9-2" data-name="Path 9" d="M411.483,406.737c9.441,2.456,20.272.068,28.124-5.72a22.772,22.772,0,0,0-15.225-1.869c-5.085,1.163-9.733,3.442-12.9,7.589" transform="translate(-411.483 -398.591)" fill="#ed6d23"/>
          </g>
        </g>
        <g id="Group_20-2" data-name="Group 20" transform="translate(79.589 134.815)">
          <g id="Group_19-2" data-name="Group 19">
            <path id="Path_10-2" data-name="Path 10" d="M413.3,403.127c5.287-8.62,15.424-14.246,25.524-14.759-1.163,4.108-4.54,7.3-8.348,9.23s-8.061,2.77-12.252,3.584c-1.63.317-3.867.665-4.924,1.945" transform="translate(-413.302 -388.368)" fill="#ed6d23"/>
          </g>
        </g>
        <g id="Group_22-2" data-name="Group 22" transform="translate(71.864 94.733)">
          <g id="Group_21-2" data-name="Group 21">
            <path id="Path_11-2" data-name="Path 11" d="M410.27,383.342c1.432-4.906,2.871-9.854,3.264-14.949s-.333-10.413-2.977-14.786c-4.939,9.557-5.439,20.723-.436,30.247" transform="translate(-406.603 -353.607)" fill="#ed6d23"/>
          </g>
        </g>
        <g id="Group_24-2" data-name="Group 24" transform="translate(92.16 96.006)">
          <g id="Group_23-2" data-name="Group 23">
            <path id="Path_12-2" data-name="Path 12" d="M424.2,374.768c5.776-10.5,17.56-18.883,29.484-20.057-4.6,11.452-17.144,20.3-29.484,20.057" transform="translate(-424.204 -354.711)" fill="#ed6d23"/>
          </g>
        </g>
        <g id="Group_26-2" data-name="Group 26" transform="translate(88.526 116.398)">
          <g id="Group_25-2" data-name="Group 25">
            <path id="Path_13-2" data-name="Path 13" d="M421.053,374.119c8.613,1.312,15.953,6.813,24,10.148a10.752,10.752,0,0,0,5.426,1.04,4.248,4.248,0,0,0,2.66-7.515A11.616,11.616,0,0,0,449.2,375.4c-8.767-3.649-18.17-3.742-27.4-1.528" transform="translate(-421.053 -372.396)" fill="#ed6d23"/>
          </g>
        </g>
        <g id="Group_28-2" data-name="Group 28" transform="translate(83.542 123.745)">
          <g id="Group_27-2" data-name="Group 27">
            <path id="Path_14-2" data-name="Path 14" d="M416.73,379.184c1.95.559,2.616,1.568,4.16,2.884a44.9,44.9,0,0,0,18.2,9.35c.7.173,1.607.241,1.951-.387.3-.549-.08-1.213-.471-1.7a25.061,25.061,0,0,0-10.99-7.46c-4.2-1.564-7.84-3.449-12.853-3.045" transform="translate(-416.73 -378.768)" fill="#ed6d23"/>
          </g>
        </g>
        <g id="Group_30-2" data-name="Group 30" transform="translate(77.916 86.741)">
          <g id="Group_29-2" data-name="Group 29">
            <path id="Path_15-2" data-name="Path 15" d="M411.851,347.608a34.448,34.448,0,0,0,26.41,8.985,1.805,1.805,0,0,0,1.2-.431c.665-.723-.133-1.839-.906-2.443-7.765-6.054-17.17-8.563-26.7-6.11" transform="translate(-411.851 -346.676)" fill="#ed6d23"/>
          </g>
        </g>
        <g id="Group_32-2" data-name="Group 32" transform="translate(84.585 78.061)">
          <g id="Group_31-2" data-name="Group 31">
            <path id="Path_16-2" data-name="Path 16" d="M417.635,346.319a36.812,36.812,0,0,1,32.954-5.438c-4.151,4.091-9.908,6.291-15.7,6.894a49.687,49.687,0,0,1-17.251-1.456" transform="translate(-417.635 -339.147)" fill="#ed6d23"/>
          </g>
        </g>
        <g id="Group_34-2" data-name="Group 34" transform="translate(77.484 45.158)">
          <g id="Group_33-2" data-name="Group 33">
            <path id="Path_17-2" data-name="Path 17" d="M415.928,333.919c-.763-7.75-.269-13.867-.806-21.653-.043-.622-.176-1.37-.759-1.595-.811-.311-1.486.684-1.752,1.51a24.822,24.822,0,0,0,3.3,21.567" transform="translate(-411.476 -310.612)" fill="#ed6d23"/>
          </g>
        </g>
        <g id="Group_36-2" data-name="Group 36" transform="translate(81.377 44.958)">
          <g id="Group_35-2" data-name="Group 35">
            <path id="Path_18-2" data-name="Path 18" d="M414.853,334.8a45.555,45.555,0,0,0,12.837-12.477c2.536-3.47,4.673-7.625,4.1-11.883a12.282,12.282,0,0,0-9.259,4.6,25.818,25.818,0,0,0-4.721,9.5c-1.029,3.41-1.748,6.914-2.954,10.265" transform="translate(-414.853 -310.439)" fill="#ed6d23"/>
          </g>
        </g>
        <g id="Group_38-2" data-name="Group 38" transform="translate(93.826 46.406)">
          <g id="Group_37-2" data-name="Group 37">
            <path id="Path_19-2" data-name="Path 19" d="M425.813,331.106a103.5,103.5,0,0,0,31.594-18.629c-3.774-1.52-8.094-.61-11.867.913-8.62,3.479-15.663,9.353-19.89,17.631" transform="translate(-425.649 -311.695)" fill="#ed6d23"/>
          </g>
        </g>
        <g id="Group_40-2" data-name="Group 40" transform="translate(84.924 64.423)">
          <g id="Group_39-2" data-name="Group 39">
            <path id="Path_20-2" data-name="Path 20" d="M417.929,336.458c5.831.638,11.755,1.053,17.543.085,5.687-.95,11.061-3.2,16.377-5.441a1.927,1.927,0,0,0,1.113-.845,1.281,1.281,0,0,0-.4-1.4,3.4,3.4,0,0,0-1.4-.655c-5.778-1.615-12.014-.859-17.7,1.057a82.1,82.1,0,0,0-15.539,7.2" transform="translate(-417.929 -327.32)" fill="#ed6d23"/>
          </g>
        </g>
        <g id="Group_42-2" data-name="Group 42" transform="translate(48.7 62.255)">
          <g id="Group_41-2" data-name="Group 41">
            <path id="Path_21-2" data-name="Path 21" d="M389.436,351.123c-3.979-8.032-3.721-17.405-.284-25.683,2.419,3.688,2.715,8.383,2.273,12.77s-1.778,8.9-1.864,13.312" transform="translate(-386.513 -325.44)" fill="#ed6d23"/>
          </g>
        </g>
        <g id="Group_44-2" data-name="Group 44" transform="translate(9.109 79.915)">
          <g id="Group_43-2" data-name="Group 43">
            <path id="Path_22-2" data-name="Path 22" d="M378.8,340.762A35.819,35.819,0,0,0,352.178,352.1c4.958.778,10.065-.5,14.575-2.7a74.13,74.13,0,0,0,12.491-8.36" transform="translate(-352.178 -340.756)" fill="#ed6d23"/>
          </g>
        </g>
        <g id="Group_46-2" data-name="Group 46" transform="translate(0 75.879)">
          <g id="Group_45-2" data-name="Group 45">
            <path id="Path_23-2" data-name="Path 23" d="M369.318,337.723c-4.86-.394-9.537-1-14.209.436s-8.926,4.683-10.831,9.184a25.684,25.684,0,0,0,13.321-2.516,76.626,76.626,0,0,0,11.719-7.1" transform="translate(-344.278 -337.255)" fill="#ed6d23"/>
          </g>
        </g>
        <g id="Group_48-2" data-name="Group 48" transform="translate(12.371 69.049)">
          <g id="Group_47-2" data-name="Group 47">
            <path id="Path_24-2" data-name="Path 24" d="M383.5,338.793c-4.372-2.865-8.862-5.781-13.953-6.969s-10.99-.309-14.539,3.527c4.12,2.419,9.121,2.7,13.9,2.7s10.636-.058,15.14,1.536" transform="translate(-355.007 -331.332)" fill="#ed6d23"/>
          </g>
        </g>
        <g id="Group_50-2" data-name="Group 50" transform="translate(32.405 46.182)">
          <g id="Group_49-2" data-name="Group 49">
            <path id="Path_25-2" data-name="Path 25" d="M380.865,342.059c-7.474-7.339-10.308-20.524-7.3-30.558a46.555,46.555,0,0,1,7.3,30.558" transform="translate(-372.382 -311.501)" fill="#ed6d23"/>
          </g>
        </g>
        <g id="Group_52-2" data-name="Group 52" transform="translate(61.442 31.828)">
          <g id="Group_51-2" data-name="Group 51">
            <path id="Path_26-2" data-name="Path 26" d="M397.564,323.169c1.409-3.277,2.4-6.717,3.666-10.052a28.9,28.9,0,0,1,5.226-9.267,13.77,13.77,0,0,1,9.258-4.8,37.281,37.281,0,0,1-17.967,24.169" transform="translate(-397.564 -299.052)" fill="#ed6d23"/>
          </g>
        </g>
        <g id="Group_54-2" data-name="Group 54" transform="translate(38.388 47.107)">
          <g id="Group_53-2" data-name="Group 53">
            <path id="Path_27-2" data-name="Path 27" d="M396.9,325.474c-2.333-3.211-5.027-7.57-8.191-9.966s-7.283-3.847-11.143-2.926A25.956,25.956,0,0,0,396.9,325.474" transform="translate(-377.57 -312.303)" fill="#ed6d23"/>
          </g>
        </g>
        <g id="Group_56-2" data-name="Group 56" transform="translate(54.51 32.129)">
          <g id="Group_55-2" data-name="Group 55">
            <path id="Path_28-2" data-name="Path 28" d="M395.508,323.4a55.5,55.5,0,0,1-3.687-11.941,18.634,18.634,0,0,1,1.87-12.143c4.1,7.757,5.424,16.082,2.027,24.172" transform="translate(-391.552 -299.313)" fill="#ed6d23"/>
          </g>
        </g>
        <g id="Group_58-2" data-name="Group 58" transform="translate(61.479 15.691)">
          <g id="Group_57-2" data-name="Group 57">
            <path id="Path_29-2" data-name="Path 29" d="M397.6,301.495c2.325-7.689,9.364-13.349,16.965-15.947a6.336,6.336,0,0,1,2.975-.446,2.581,2.581,0,0,1,2.192,1.83c.277,1.309-.8,2.48-1.82,3.348A57.722,57.722,0,0,1,397.6,301.495" transform="translate(-397.596 -285.057)" fill="#ed6d23"/>
          </g>
        </g>
        <g id="Group_60-2" data-name="Group 60" transform="translate(61.442)">
          <g id="Group_59-2" data-name="Group 59">
            <path id="Path_30-2" data-name="Path 30" d="M397.685,297.29c.3-4.957.605-9.986,2.217-14.683s4.72-9.1,9.241-11.158c.769,5.007-1.44,9.988-4.1,14.3s-5.875,8.375-7.475,13.181" transform="translate(-397.564 -271.449)" fill="#ed6d23"/>
          </g>
        </g>
        <g id="Group_62-2" data-name="Group 62" transform="translate(47.025 2.302)">
          <g id="Group_61-2" data-name="Group 61">
            <path id="Path_31-2" data-name="Path 31" d="M399.478,300.4c-1.921-5.6-2.119-12.721-5.475-17.6-2.345-3.412-6.1-5.736-8.122-9.35a14.218,14.218,0,0,0,.473,10.615,30.678,30.678,0,0,0,6.207,8.885c2.483,2.652,4.609,4.647,6.917,7.452" transform="translate(-385.061 -273.445)" fill="#ed6d23"/>
          </g>
        </g>
        <g id="Group_65-2" data-name="Group 65" transform="translate(61.19 27.301)">
          <g id="Group_64-2" data-name="Group 64">
            <g id="Group_63-2" data-name="Group 63">
              <path id="Path_32-2" data-name="Path 32" d="M397.634,462.09c-.149,0-.278-37.379-.288-83.478s.1-83.486.251-83.486.278,37.372.288,83.486S397.784,462.09,397.634,462.09Z" transform="translate(-397.345 -295.126)" fill="#263238"/>
            </g>
          </g>
        </g>
        <g id="Group_68-2" data-name="Group 68" transform="translate(61.431 82.291)">
          <g id="Group_67-2" data-name="Group 67">
            <g id="Group_66-2" data-name="Group 66">
              <path id="Path_33-2" data-name="Path 33" d="M430.267,342.823a8.061,8.061,0,0,1-1.4.528l-3.868,1.3c-3.261,1.112-7.74,2.72-12.6,4.713-4.815,2.065-9.355,3.742-11.941,5.982a8.772,8.772,0,0,0-2.4,3.174c-.371.878-.438,1.415-.487,1.406a1.078,1.078,0,0,1,.016-.392,5.9,5.9,0,0,1,.274-1.09,8.419,8.419,0,0,1,2.341-3.383,20.992,20.992,0,0,1,5.182-3.219c2.072-.966,4.369-1.975,6.808-2.977,4.878-2,9.392-3.556,12.69-4.577,1.649-.514,2.993-.892,3.926-1.143A7.967,7.967,0,0,1,430.267,342.823Z" transform="translate(-397.555 -342.816)" fill="#263238"/>
            </g>
          </g>
        </g>
        <g id="Group_71-2" data-name="Group 71" transform="translate(64.002 55.996)">
          <g id="Group_70-2" data-name="Group 70">
            <g id="Group_69-2" data-name="Group 69">
              <path id="Path_34-2" data-name="Path 34" d="M440.633,320.013a2.224,2.224,0,0,1-.394.421l-1.2,1.127-4.477,4.068-14.9,13.271c-5.817,5.178-10.845,10.126-14.329,13.852-1.745,1.861-3.119,3.4-4.056,4.477-.437.5-.794.909-1.083,1.237a2.278,2.278,0,0,1-.4.41,2.383,2.383,0,0,1,.321-.479c.226-.3.556-.748,1.007-1.3.889-1.12,2.222-2.7,3.935-4.6a188.9,188.9,0,0,1,14.251-14c5.838-5.167,11.151-9.808,15.012-13.153l4.59-3.94,1.267-1.05A2.329,2.329,0,0,1,440.633,320.013Z" transform="translate(-399.784 -320.012)" fill="#263238"/>
            </g>
          </g>
        </g>
        <g id="Group_74-2" data-name="Group 74" transform="translate(77.583 67.207)">
          <g id="Group_73-2" data-name="Group 73">
            <g id="Group_72-2" data-name="Group 72">
              <path id="Path_35-2" data-name="Path 35" d="M411.576,342.676c-.153-.068,1.063-2.873,2.274-6.423s1.8-6.544,1.952-6.518a21.9,21.9,0,0,1-1.441,6.691,43.45,43.45,0,0,1-1.809,4.492A6.979,6.979,0,0,1,411.576,342.676Z" transform="translate(-411.563 -329.735)" fill="#263238"/>
            </g>
          </g>
        </g>
        <g id="Group_77-2" data-name="Group 77" transform="translate(39.848 75.478)">
          <g id="Group_76-2" data-name="Group 76">
            <g id="Group_75-2" data-name="Group 75">
              <path id="Path_36-2" data-name="Path 36" d="M400.5,364.2a6.627,6.627,0,0,1-.9-1.04c-.608-.781-1.378-1.768-2.3-2.945-1.93-2.494-4.6-5.936-7.586-9.7s-5.738-7.146-7.729-9.591l-2.347-2.9a6.576,6.576,0,0,1-.809-1.109,6.753,6.753,0,0,1,.97.973c.6.648,1.446,1.6,2.479,2.8,2.067,2.384,4.865,5.73,7.859,9.5s5.615,7.255,7.468,9.809c.926,1.278,1.664,2.319,2.16,3.05A6.762,6.762,0,0,1,400.5,364.2Z" transform="translate(-378.836 -336.908)" fill="#263238"/>
            </g>
          </g>
        </g>
        <g id="Group_80-2" data-name="Group 80" transform="translate(50.634 82.278)">
          <g id="Group_79-2" data-name="Group 79">
            <g id="Group_78-2" data-name="Group 78">
              <path id="Path_37-2" data-name="Path 37" d="M391.907,354.1a13.181,13.181,0,0,1-3-5.617,16.06,16.06,0,0,1-.68-5.664l.239.02c-.107.432-.184.661-.227.654s-.045-.248-.009-.693l.238.02a25.883,25.883,0,0,0,.958,5.509A42.064,42.064,0,0,0,391.907,354.1Z" transform="translate(-388.191 -342.805)" fill="#263238"/>
            </g>
          </g>
        </g>
        <g id="Group_83-2" data-name="Group 83" transform="translate(28.925 79.65)">
          <g id="Group_82-2" data-name="Group 82">
            <g id="Group_81-2" data-name="Group 81">
              <path id="Path_38-2" data-name="Path 38" d="M385.543,342.823a9.672,9.672,0,0,0-2.094-1.218,14.04,14.04,0,0,0-5.817-.462,36.008,36.008,0,0,0-5.856.945,17.864,17.864,0,0,1-2.411.579,8.356,8.356,0,0,1,2.308-.947,26.755,26.755,0,0,1,5.919-1.116,12.7,12.7,0,0,1,6,.647A3.711,3.711,0,0,1,385.543,342.823Z" transform="translate(-369.364 -340.526)" fill="#263238"/>
            </g>
          </g>
        </g>
        <g id="Group_86-2" data-name="Group 86" transform="translate(20.179 75.692)">
          <g id="Group_85-2" data-name="Group 85">
            <g id="Group_84-2" data-name="Group 84">
              <path id="Path_39-2" data-name="Path 39" d="M384.512,340.529c-.04.084-1.22-.489-3.209-1.168a32.294,32.294,0,0,0-16.174-1.234c-2.07.37-3.322.758-3.35.669a3.021,3.021,0,0,1,.851-.362,19.805,19.805,0,0,1,2.424-.681A28.553,28.553,0,0,1,381.433,339a20.153,20.153,0,0,1,2.293,1.04A3.063,3.063,0,0,1,384.512,340.529Z" transform="translate(-361.779 -337.094)" fill="#263238"/>
            </g>
          </g>
        </g>
        <g id="Group_89-2" data-name="Group 89" transform="translate(57.267 50.813)">
          <g id="Group_88-2" data-name="Group 88">
            <g id="Group_87-2" data-name="Group 87">
              <path id="Path_40-2" data-name="Path 40" d="M398.118,331.911a66.087,66.087,0,0,1-2.341-8.13,66.245,66.245,0,0,1-1.817-8.264,66.545,66.545,0,0,1,2.341,8.131A66.463,66.463,0,0,1,398.118,331.911Z" transform="translate(-393.943 -315.517)" fill="#263238"/>
            </g>
          </g>
        </g>
        <g id="Group_92-2" data-name="Group 92" transform="translate(55.176 58.391)">
          <g id="Group_91-2" data-name="Group 91">
            <g id="Group_90-2" data-name="Group 90">
              <path id="Path_41-2" data-name="Path 41" d="M398.544,330.905a39.327,39.327,0,0,0-2.594-4.867,21.442,21.442,0,0,0-3.818-3.941,3.564,3.564,0,0,1,1.474.76,11.879,11.879,0,0,1,2.786,2.871A10.8,10.8,0,0,1,398.544,330.905Z" transform="translate(-392.13 -322.089)" fill="#263238"/>
            </g>
          </g>
        </g>
        <g id="Group_95-2" data-name="Group 95" transform="translate(27.236 119.782)">
          <g id="Group_94-2" data-name="Group 94">
            <g id="Group_93-2" data-name="Group 93">
              <path id="Path_42-2" data-name="Path 42" d="M402.142,429.888c-.058.009-.168-.9-.589-2.485a35.4,35.4,0,0,0-2.5-6.472c-2.583-5.278-7.282-11.969-13.253-18.672-2.959-3.38-5.829-6.569-8.265-9.622a67.572,67.572,0,0,1-5.912-8.525,40.943,40.943,0,0,1-2.983-6.327c-.274-.78-.476-1.388-.587-1.809a3.119,3.119,0,0,1-.153-.646c.048-.015.32.856.936,2.379a46.276,46.276,0,0,0,3.117,6.209,71.61,71.61,0,0,0,5.969,8.406c2.446,3.022,5.32,6.193,8.285,9.58,5.987,6.72,10.675,13.5,13.19,18.861a32.254,32.254,0,0,1,2.358,6.587,18.375,18.375,0,0,1,.331,1.875A2.994,2.994,0,0,1,402.142,429.888Z" transform="translate(-367.898 -375.331)" fill="#263238"/>
            </g>
          </g>
        </g>
        <g id="Group_98-2" data-name="Group 98" transform="translate(61.476 140.997)">
          <g id="Group_97-2" data-name="Group 97">
            <g id="Group_96-2" data-name="Group 96">
              <path id="Path_43-2" data-name="Path 43" d="M427.114,393.732a13.221,13.221,0,0,1-1.546.868,33.8,33.8,0,0,0-4.013,2.653,45.994,45.994,0,0,0-5.269,4.806c-1.85,1.954-3.756,4.224-5.7,6.654-3.888,4.879-7.524,9.194-9.7,12.64-1.1,1.709-1.908,3.15-2.435,4.161a13.282,13.282,0,0,1-.852,1.557,1.553,1.553,0,0,1,.144-.438c.114-.278.271-.7.519-1.212a39.451,39.451,0,0,1,2.3-4.272c2.115-3.528,5.721-7.9,9.6-12.774,1.949-2.436,3.878-4.71,5.762-6.661a42.694,42.694,0,0,1,5.4-4.767,28.071,28.071,0,0,1,4.144-2.533c.513-.257.93-.415,1.207-.535A1.558,1.558,0,0,1,427.114,393.732Z" transform="translate(-397.593 -393.729)" fill="#263238"/>
            </g>
          </g>
        </g>
        <g id="Group_101-2" data-name="Group 101" transform="translate(71.174 151.776)">
          <g id="Group_100-2" data-name="Group 100">
            <g id="Group_99-2" data-name="Group 99">
              <path id="Path_44-2" data-name="Path 44" d="M426.4,403.117a22.148,22.148,0,0,1-3.269.475,43.161,43.161,0,0,0-7.756,1.528,23.324,23.324,0,0,0-6.943,3.644c-1.6,1.237-2.356,2.26-2.43,2.2a2.473,2.473,0,0,1,.484-.752,12.263,12.263,0,0,1,1.7-1.745,21.03,21.03,0,0,1,7.02-3.862,35.01,35.01,0,0,1,7.882-1.393A18.223,18.223,0,0,1,426.4,403.117Z" transform="translate(-406.004 -403.078)" fill="#263238"/>
            </g>
          </g>
        </g>
        <g id="Group_104-2" data-name="Group 104" transform="translate(72.117 147.396)">
          <g id="Group_103-2" data-name="Group 103">
            <g id="Group_102-2" data-name="Group 102">
              <path id="Path_45-2" data-name="Path 45" d="M406.836,410.358c-.171-.1,1.3-2.348,2.447-5.376,1.072-3.054,1.324-5.733,1.515-5.7a5.173,5.173,0,0,1-.054,1.755,18.749,18.749,0,0,1-.954,4.133,19.93,19.93,0,0,1-1.9,3.791A5.263,5.263,0,0,1,406.836,410.358Z" transform="translate(-406.822 -399.279)" fill="#263238"/>
            </g>
          </g>
        </g>
        <g id="Group_107-2" data-name="Group 107" transform="translate(61.488 111.961)">
          <g id="Group_106-2" data-name="Group 106">
            <g id="Group_105-2" data-name="Group 105">
              <path id="Path_46-2" data-name="Path 46" d="M436.672,368.55a2.445,2.445,0,0,1-.523.278l-1.536.7c-.673.288-1.491.654-2.411,1.139s-2,.967-3.124,1.642l-1.785,1.015c-.618.355-1.23.777-1.881,1.185-1.316.8-2.632,1.78-4.039,2.784a69.282,69.282,0,0,0-15.552,16.093c-.955,1.44-1.892,2.79-2.644,4.133-.385.664-.786,1.29-1.121,1.92s-.648,1.237-.952,1.818c-.635,1.145-1.09,2.238-1.534,3.178s-.792,1.765-1.057,2.448l-.646,1.56a2.481,2.481,0,0,1-.259.532,2.442,2.442,0,0,1,.157-.568c.146-.422.329-.951.552-1.6.236-.7.547-1.541.977-2.492s.852-2.067,1.469-3.23l.927-1.845c.327-.639.722-1.274,1.1-1.949.74-1.361,1.67-2.729,2.62-4.188a66.784,66.784,0,0,1,15.667-16.211c1.425-1,2.762-1.975,4.1-2.762.661-.4,1.282-.819,1.909-1.167l1.813-.99c1.14-.656,2.236-1.127,3.177-1.579s1.77-.8,2.458-1.061l1.579-.607A2.431,2.431,0,0,1,436.672,368.55Z" transform="translate(-397.604 -368.547)" fill="#263238"/>
            </g>
          </g>
        </g>
        <g id="Group_110-2" data-name="Group 110" transform="translate(77.19 123.713)">
          <g id="Group_109-2" data-name="Group 109">
            <g id="Group_108-2" data-name="Group 108">
              <path id="Path_47-2" data-name="Path 47" d="M411.227,382.642a3.76,3.76,0,0,1,1.284-1.913,8.11,8.11,0,0,1,5.176-1.986,14.131,14.131,0,0,1,5.446,1.064,7.778,7.778,0,0,1,2.059,1,12.506,12.506,0,0,1-2.185-.639,16.45,16.45,0,0,0-5.3-.886,8.434,8.434,0,0,0-4.944,1.735A15.368,15.368,0,0,0,411.227,382.642Z" transform="translate(-411.221 -378.74)" fill="#263238"/>
            </g>
          </g>
        </g>
        <g id="Group_113-2" data-name="Group 113" transform="translate(73.692 121.444)">
          <g id="Group_112-2" data-name="Group 112">
            <g id="Group_111-2" data-name="Group 111">
              <path id="Path_48-2" data-name="Path 48" d="M408.2,386.545a13.823,13.823,0,0,0,1.14-9.772,3.175,3.175,0,0,1,.606,1.393,9.875,9.875,0,0,1-.836,7.164C408.654,386.157,408.251,386.583,408.2,386.545Z" transform="translate(-408.188 -376.772)" fill="#263238"/>
            </g>
          </g>
        </g>
      </g>
      <g id="Group_116-2" data-name="Group 116" transform="translate(379.941 451.144)">
        <g id="Group_115-2" data-name="Group 115">
          <path id="Path_49-2" data-name="Path 49" d="M375.207,427.291c.8,14.285,5.11,28.813,11.731,43.5H415.73c6.314-14.542,10.322-29.048,11.035-43.5Z" transform="translate(-375.207 -427.291)" fill="#212429"/>
        </g>
      </g>
      <g id="Group_119-2" data-name="Group 119" transform="translate(384.488 473.99)">
        <g id="Group_118-2" data-name="Group 118">
          <g id="Group_117-2" data-name="Group 117">
            <path id="Path_50-2" data-name="Path 50" d="M421.495,447.374c0,.15-9.48.271-21.171.271s-21.174-.121-21.174-.271,9.478-.27,21.174-.27S421.495,447.225,421.495,447.374Z" transform="translate(-379.15 -447.104)" fill="#fafafa"/>
          </g>
        </g>
      </g>
      <g id="Group_122-2" data-name="Group 122" transform="translate(386.492 479.165)">
        <g id="Group_121-2" data-name="Group 121">
          <g id="Group_120-2" data-name="Group 120">
            <path id="Path_51-2" data-name="Path 51" d="M420.586,451.862c0,.15-8.888.271-19.848.271s-19.85-.121-19.85-.271,8.886-.27,19.85-.27S420.586,451.713,420.586,451.862Z" transform="translate(-380.888 -451.592)" fill="#fafafa"/>
          </g>
        </g>
      </g>
    </g>
    <g id="Group_569" data-name="Group 569">
      <rect id="Rectangle_1" data-name="Rectangle 1" width="49" height="89" transform="translate(1642 344)" fill="#ebebeb"/>
      <rect id="Rectangle_3" data-name="Rectangle 3" width="130" height="52" transform="translate(1667 462)" fill="#ebebeb"/>
      <rect id="Rectangle_5" data-name="Rectangle 5" width="36" height="36" transform="translate(1808 397)" fill="#ebebeb"/>
      <rect id="Rectangle_6" data-name="Rectangle 6" width="46" height="48" transform="translate(1808 449)" fill="#ebebeb"/>
      <rect id="Rectangle_4" data-name="Rectangle 4" width="83" height="34" transform="translate(1749 527)" fill="#ebebeb"/>
      <rect id="Rectangle_2" data-name="Rectangle 2" width="95" height="114" transform="translate(1702 335)" fill="#fff"/>
    </g>
  </g>
</svg>
