<svg xmlns="http://www.w3.org/2000/svg" width="615.855" height="379.68" viewBox="0 0 615.855 379.68"><defs><style>.a{fill:#e6e6e6;}.b{fill:#fff;}.c{fill:#123b57;}.d{fill:#ccc;}.e{fill:#212429;}.f{fill:#047422;}.g{fill:#ffd2d2;}.h{fill:#f14b0e;}.i{fill:#3f3d56;}</style></defs><g transform="translate(-170.481)"><g transform="translate(170.481)"><rect class="a" width="407.526" height="260.998" transform="translate(0 0.231)"/><rect class="b" width="384.22" height="212.822" transform="translate(11.653 32.967)"/><path class="c" d="M407.526,0H0V17.313H407.526Z" transform="translate(0.174)"/><circle class="b" cx="3.209" cy="3.209" r="3.209" transform="translate(391.625 5.643)"/><circle class="b" cx="3.209" cy="3.209" r="3.209" transform="translate(379.445 5.643)"/><circle class="b" cx="3.209" cy="3.209" r="3.209" transform="translate(367.265 5.643)"/><path class="d" d="M675.16,243.431H800.25a1.11,1.11,0,0,0,0-2.2H675.16a1.11,1.11,0,0,0,0,2.2Z" transform="translate(-554.79 -190.531)"/><path class="d" d="M613.467,261.6H693a1.11,1.11,0,0,0,0-2.2H613.467a1.11,1.11,0,0,0,0,2.2Z" transform="translate(-406.423 -196.59)"/><path class="d" d="M743.515,261.928h79.533a1.11,1.11,0,0,0,0-2.2H743.515a1.11,1.11,0,0,0,0,2.2Z" transform="translate(-623.145 -196.7)"/><path class="d" d="M613.757,279.765h79.532a1.11,1.11,0,0,0,0-2.2H613.757a1.11,1.11,0,0,0,0,2.2Z" transform="translate(-406.905 -202.649)"/><path class="d" d="M614.046,297.933h79.532a1.11,1.11,0,0,0,0-2.2H614.046a1.11,1.11,0,0,0,0,2.2Z" transform="translate(-407.388 -208.708)"/><path class="d" d="M753.363,279.765h22.779a1.11,1.11,0,0,0,0-2.2H753.363a1.11,1.11,0,0,0,0,2.2Z" transform="translate(-582.803 -202.649)"/><path class="d" d="M753.363,297.6h22.779a1.11,1.11,0,0,0,0-2.2H753.363a1.11,1.11,0,0,0,0,2.2Z" transform="translate(-582.803 -208.598)"/><path class="d" d="M810.712,297.6h22.779a1.11,1.11,0,0,0,0-2.2H810.712a1.11,1.11,0,0,0,0,2.2Z" transform="translate(-678.374 -208.598)"/><path class="d" d="M612.6,243.431h22.779a1.11,1.11,0,0,0,0-2.2H612.6a1.11,1.11,0,0,0,0,2.2Z" transform="translate(-348.222 -190.531)"/><path class="d" d="M613.032,451.736h79.532a1.11,1.11,0,0,0,0-2.2H613.032a1.11,1.11,0,0,0,0,2.2Z" transform="translate(-405.698 -260.005)"/><path class="d" d="M612.453,488.071h79.532a1.11,1.11,0,0,0,0-2.2H612.453a1.11,1.11,0,0,0,0,2.2Z" transform="translate(-404.733 -272.123)"/><path class="d" d="M612.743,506.239h79.532a1.11,1.11,0,0,0,0-2.2H612.743a1.11,1.11,0,0,0,0,2.2Z" transform="translate(-405.216 -278.183)"/><path class="d" d="M748.874,488.4h22.778a1.11,1.11,0,0,0,0-2.2H748.874a1.11,1.11,0,0,0,0,2.2Z" transform="translate(-575.322 -272.234)"/><path class="d" d="M748.874,506.239h22.778a1.11,1.11,0,0,0,0-2.2H748.874a1.11,1.11,0,0,0,0,2.2Z" transform="translate(-575.322 -278.183)"/><path class="d" d="M806.223,488.4H829a1.11,1.11,0,0,0,0-2.2H806.223a1.11,1.11,0,0,0,0,2.2Z" transform="translate(-670.893 -272.234)"/><path class="d" d="M675.305,469.9H800.395a1.11,1.11,0,0,0,0-2.2H675.305a1.11,1.11,0,0,0,0,2.2Z" transform="translate(-555.032 -266.064)"/><path class="d" d="M612.742,469.9h22.779a1.11,1.11,0,0,0,0-2.2H612.742a1.11,1.11,0,0,0,0,2.2Z" transform="translate(-348.462 -266.064)"/><path class="a" d="M508.764,163.221l30.887,30.5-30.887,30.5-6.949-6.949,23.358-23.358-23.551-23.551Z" transform="translate(-282.223 -54.438)"/><path class="a" d="M636.489,163.221l-30.886,30.5,30.886,30.5,6.949-6.949-23.357-23.358,23.551-23.551Z" transform="translate(-455.505 -54.438)"/><path class="e" d="M508.764,163.221l30.887,30.5-30.887,30.5-6.949-6.949,23.358-23.358-23.551-23.551Z" transform="translate(-282.223 -54.438)"/><path class="e" d="M636.489,163.221l-30.886,30.5,30.886,30.5,6.949-6.949-23.357-23.358,23.551-23.551Z" transform="translate(-455.505 -54.438)"/></g><g transform="translate(317.864 40.6)"><path class="f" d="M647.865,694.99c-9.61,12.87-29.56,14.225-29.56,14.225s-4.368-19.512,5.243-32.383,29.56-14.225,29.56-14.225S657.475,682.12,647.865,694.99Z" transform="translate(-493.04 -371.669)"/><path class="f" d="M673.989,707.762c6.342,8.493,19.506,9.387,19.506,9.387s2.882-12.876-3.459-21.368-19.506-9.387-19.506-9.387S667.647,699.269,673.989,707.762Z" transform="translate(-568.121 -379.602)"/><path class="g" d="M125.956,460.2v33.408H135.5l6.363-35Z" transform="translate(242.661 -193.555)"/><path class="g" d="M12.576,460.2v33.408h9.545l6.364-35Z" transform="translate(431.606 -193.555)"/><path class="g" d="M241.889,253.049s15.338-11.024,17.256-5.752-11.5,14.859-11.5,14.859Z" transform="translate(151.939 -232.678)"/><path d="M234.845,260.588c0,19.06-8.206,19.652-21.575,19.652s-26.837-.592-26.837-19.652,10.837-34.511,24.206-34.511S234.845,241.528,234.845,260.588Z" transform="translate(213.387 -226.077)"/><path class="g" d="M210.47,276.857s1.917,14.38-7.19,15.338S233,296.03,233,296.03s-10.066-9.107-4.793-16.3S210.47,276.857,210.47,276.857Z" transform="translate(204.928 -242.585)"/><path d="M294.254,662.983l-3.355,28.28s-16.776,20.611-6.231,19.173,17.256.306,17.256-1.612.248-8.768,1.686-8.768,2.628,10.817,2.628,10.817,4.314-.327,4.793-.806.959-27.912.959-27.912,1.438-8.149-1.438-11.983-2.4-7.19-2.4-7.19Z" transform="translate(72.732 -371.794)"/><path d="M179.681,662.517l-3.355,28.28s-16.776,20.611-6.231,19.173,17.256.306,17.256-1.612.248-8.768,1.686-8.768,2.628,10.817,2.628,10.817,4.314-.327,4.793-.806.959-27.912.959-27.912,1.438-8.148-1.438-11.983-2.4-7.19-2.4-7.19Z" transform="translate(263.665 -371.638)"/><path d="M191.726,410.548s-15.338,43.618-16.3,53.2.959,42.181.959,42.181-13.9,56.316-11.024,56.8,18.892,2.752,19.371.355,2.188-6.107,1.709-7.545,1.438-6.71,1.438-9.586,6.721-17.971,6.242-20.367,8.148-37.867,9.587-40.742,5.273-23.008,5.273-23.008,21.57,58.957,22.049,60.395,2.4,3.835,1.438,4.314,1.438,3.835,1.438,3.835,4.967,19.888,4.967,20.847-.959,11.809.959,12.289,21.5.449,22.46-2.907S252.121,518.4,252.121,518.4s-8.149-24.446-5.752-30.677-2.4-43.618-4.314-46.494-2.4-20.132-2.4-20.132Z" transform="translate(200.185 -287.602)"/><ellipse class="g" cx="15.338" cy="15.338" rx="15.338" ry="15.338" transform="translate(408.448 11.504)"/><path class="h" d="M213.152,294.873s17.256.479,18.214-.959,24.925,3.355,24.925,12.942-13.9,46.974-13.9,46.974-5.273,26.842-3.835,29.718-53.2-6.231-51.767-11.024,9.586-15.338-.959-24.446a60.566,60.566,0,0,1-14.859-18.694l12.462-33.073s12.462-1.917,15.338,0S213.152,294.873,213.152,294.873Z" transform="translate(202.246 -248.618)"/><path class="h" d="M280.226,318.455l-3.355-2.4s-31.156-32.594-23.007-38.825,20.132-11.983,25.884-12.462,10.545-4.793,10.545-4.793,6.231-11.024,11.024-3.835,10.066,9.586,3.355,11.983-11.024,1.438-14.38,3.835-16.3,6.231-10.545,7.669a51.451,51.451,0,0,1,9.586,3.355l6.231,11.024Z" transform="translate(96.347 -235.292)"/><path class="g" d="M204.266,472.4s-12.462,18.214-3.355,17.256,13.421-13.421,13.421-13.421Z" transform="translate(226.47 -308.23)"/><path class="h" d="M192.429,309.862l3.355,2.4s11.024,60.395,0,76.213S183.8,403.33,183.8,403.33s-1.917-1.438-2.876,8.149.479,13.421-2.4,13.421-15.818-2.876-14.859-5.273,7.19-16.3,7.669-19.652,2.876-11.024,3.835-15.338-4.314-6.711-1.917-15.818,5.752-25.4,5.752-28.759S192.429,309.862,192.429,309.862Z" transform="translate(262.753 -254.021)"/><path d="M233.411,241.177c0,5.162-7.082,9.347-15.818,9.347s-16.776,2.766-16.776-2.4,8.041-16.3,16.776-16.3S233.411,236.015,233.411,241.177Z" transform="translate(205.234 -227.995)"/><path d="M223.248,282.712s-.646,17.376,16.621,16.417-2.333-14.853-2.333-14.853Z" transform="translate(176.715 -244.966)"/><rect class="i" width="468.472" height="1.493" transform="translate(0 337.547)"/></g></g></svg>