<svg xmlns="http://www.w3.org/2000/svg" xmlns:xlink="http://www.w3.org/1999/xlink" width="247" height="50" viewBox="0 0 247 50">
  <defs>
    <linearGradient id="linear-gradient" x1="1" y1="-0.097" x2="0" y2="0.883" gradientUnits="objectBoundingBox">
      <stop offset="0" stop-color="#ff8600"/>
      <stop offset="0.197" stop-color="#f90"/>
      <stop offset="0.452" stop-color="#ff9f00"/>
      <stop offset="0.47" stop-color="#ff9c00"/>
      <stop offset="0.711" stop-color="#f70"/>
      <stop offset="1" stop-color="#f14b0e"/>
    </linearGradient>
    <linearGradient id="linear-gradient-2" x1="0.568" y1="0.324" x2="0.5" y2="0.864" gradientUnits="objectBoundingBox">
      <stop offset="0" stop-color="#fcae48"/>
      <stop offset="1" stop-color="#f70"/>
    </linearGradient>
  </defs>
  <g id="Group_663" data-name="Group 663" transform="translate(-138 -62)">
    <g id="Group_662" data-name="Group 662">
      <g id="Group_659" data-name="Group 659" transform="translate(138 62)">
        <path id="Path_1" data-name="Path 1" d="M291.144,135.7c-.051.532-1.381.623-1.381.623a7.23,7.23,0,0,0-2-1.156,8.328,8.328,0,0,0-5.289-.361,8,8,0,0,0-4.083,3.234,14.154,14.154,0,0,0-.871,3.011c-.063.22-.585.146-.608,0a5.239,5.239,0,0,1,0-1.306,16.141,16.141,0,0,1,.293-1.706s-3.105-1.066-5.463-.319a7.351,7.351,0,0,0-4.206,3.426,14.324,14.324,0,0,0-1.165,3.759c-.19,1.168-.083,1.983-.222,2.137-.1.112-.381-.064-.557-.614a11.026,11.026,0,0,1-.211-2.527,9.021,9.021,0,0,1,.632-3.127s-5.415-.918-7.851.752-2.7,1.807-4,3.806-1.077,3.268-.819,5.982a10.942,10.942,0,0,0,1.851,4.876s-5.566,2-6.491,6.329,2.955,10.755,2.955,10.755a75.78,75.78,0,0,1,7.356-9.134,97.916,97.916,0,0,1,9.083-8.1l-1.232,4.107s-4,3.326-7.851,7.287a79.536,79.536,0,0,0-7.155,8.7,20.433,20.433,0,0,1-3.156-4.741,18.438,18.438,0,0,1-1.793-8.413c.377-5.151,6.044-7.59,6.044-7.59s-1.846-4.167-1.311-7.562,2.661-6.007,6.3-8.022,8.428-.82,8.428-.82a10.477,10.477,0,0,1,4.905-2.931,14.519,14.519,0,0,1,6.4.622,9.045,9.045,0,0,1,2.578-2.262,9.181,9.181,0,0,1,3.817-1.184,12.047,12.047,0,0,1,5.9.97C290.967,134.744,291.194,135.17,291.144,135.7Z" transform="translate(-246.88 -133.196)" fill="url(#linear-gradient)"/>
        <path id="Path_2" data-name="Path 2" d="M246.422,174.229c.05-.532,1.2-.8,1.2-.8a9.063,9.063,0,0,0,2.314,1.406,8.607,8.607,0,0,0,5.367.231,9.222,9.222,0,0,0,3.575-3.005,16.517,16.517,0,0,0,1.053-3.2c.063-.22.651-.146.674,0a3.539,3.539,0,0,1,.105,1.306,8.114,8.114,0,0,1-.358,1.58s3.263,1.063,5.621.316a5.92,5.92,0,0,0,3.766-3.069,12.136,12.136,0,0,0,1.1-3.477,20.6,20.6,0,0,1,.3-2.327c.1-.112.4.025.575.575A8.583,8.583,0,0,1,271.9,166a8.072,8.072,0,0,1-.192,1.807,5.053,5.053,0,0,1-.465,1.314s5.421.739,7.42-.356a18.252,18.252,0,0,0,2.656-1.7,7.444,7.444,0,0,0,1.78-1.88c1.3-2,1.49-3.537,1.232-6.252a13.712,13.712,0,0,0-1.9-5.276,13.094,13.094,0,0,0,4.805-3.275,6.889,6.889,0,0,0,1.708-2.99c.925-4.327-2.385-10-2.385-10a95.315,95.315,0,0,0-9.717,4.093c-4.964,2.448-10.215,5.63-10.215,5.63l-.712-2.177a86.317,86.317,0,0,1,10.215-5.517c5.23-2.313,10.856-4.236,10.856-4.236s.578.941,1.958,3.808a14.655,14.655,0,0,1,1.637,7.474c-.153,2.086-1.239,3.614-2.847,5.41a9.319,9.319,0,0,1-3.272,2.42s2.418,4.985,1.305,8.879a11.087,11.087,0,0,1-5.757,6.7,10.871,10.871,0,0,1-3.906,1.208,17.175,17.175,0,0,1-4.97-.295,10.467,10.467,0,0,1-4.922,2.981,14.9,14.9,0,0,1-6.441-.6,9.1,9.1,0,0,1-2.622,2.355,13.4,13.4,0,0,1-4.617,1.161,11.3,11.3,0,0,1-5.2-1.161C245.814,174.7,246.422,174.229,246.422,174.229Z" transform="translate(-238.068 -132.127)" fill="#0182ac"/>
        <path id="Path_3" data-name="Path 3" d="M283.816,157.352l1.533-4.819,1.506,4.819h4.956l-4.025,3.012,1.615,4.819-4.244-2.875-3.888,2.875,1.478-4.819-4.189-3.012Z" transform="translate(-259.124 -140.67)" fill="url(#linear-gradient-2)"/>
        <path id="Path_4" data-name="Path 4" d="M268.945,163.433l1.513,1.1a66.359,66.359,0,0,0-6.656,5.019c-4.538,3.737-11.5,9.93-11.5,9.93s6.233-6.417,10.393-10.429S268.945,163.433,268.945,163.433Z" transform="translate(-248.977 -144.882)" fill="#0182ac"/>
        <path id="Path_5" data-name="Path 5" d="M300.694,153.726h2.239s.954-.647,4.2-2.546,8.9-4.983,8.9-4.983-7.192,3.333-11,5.232A45.55,45.55,0,0,0,300.694,153.726Z" transform="translate(-267.678 -138.221)" fill="#ff7c00"/>
      </g>
      <g id="Group_661" data-name="Group 661" transform="translate(0 -3)">
        <g id="Group_660" data-name="Group 660">
          <text id="Gaza" transform="translate(197 94)" fill="#3b5a6f" font-size="26" font-family=" Abdoullah AshgarEL-kharef, Abdoullah Ashgar EL-kharef" letter-spacing="0.077em"><tspan x="0" y="0">Gaza</tspan></text>
          <text id="Geeks" transform="translate(308 94)" fill="#3b5a6f" font-size="26" font-family=" Abdoullah AshgarEL-kharef, Abdoullah Ashgar EL-kharef" letter-spacing="0.067em"><tspan x="0" y="0">Geeks</tspan></text>
          <g id="Group_1" data-name="Group 1" transform="translate(263.329 73.498)">
            <path id="Path_6" data-name="Path 6" d="M271.5,219.931h-1.55a4.076,4.076,0,0,0-.839-2.282,3.727,3.727,0,0,0-2.389-1.485c-2.183-.4-3.4-.39-4.778.646a3.479,3.479,0,0,0-1.162,3.53c.113.438.619.936,1.485,1.464a19.426,19.426,0,0,0,4.2,1.055,7.551,7.551,0,0,1,5.159,2.66,4.521,4.521,0,0,1,.364,3.778,5.274,5.274,0,0,1-2.036,2.543,11.028,11.028,0,0,1-8.734,0,4.727,4.727,0,0,1-2.3-2.543,5.5,5.5,0,0,1-.321-3.038h1.455a5.4,5.4,0,0,0,1.164,3.71c1.014,1.043,3.247,1.389,4.558,1.455a6.214,6.214,0,0,0,3.75-1.343,3.183,3.183,0,0,0,.9-3.3c-.494-1.922-5.82-2.5-7.894-3.128s-3.308-1.582-3.411-3.724.428-3.824,3-4.843a7.977,7.977,0,0,1,7.426.861A5.34,5.34,0,0,1,271.5,219.931Z" transform="translate(-258.508 -214.542)" fill="#3b5a6f"/>
            <path id="Path_7" data-name="Path 7" d="M279.6,215.06h-1.655v17.45H279.6v-4.871l2.589-1.93,5.024,6.8h1.8l-5.68-7.985,5.2-4.641h-2.028l-6.9,6.053Z" transform="translate(-261.103 -214.638)" fill="#3b5a6f"/>
            <path id="Path_8" data-name="Path 8" d="M291.392,220.992h1.654l4.074,10.658,3.82-10.658h1.6s-5.056,14.041-5.747,15.387a2.594,2.594,0,0,1-2.11,1.746,7.3,7.3,0,0,1-2.037.182v-1.528a3.728,3.728,0,0,0,2.037-.218c.909-.437,1.673-3.274,1.673-3.274Z" transform="translate(-262.588 -215.735)" fill="#3b5a6f"/>
          </g>
        </g>
      </g>
    </g>
    <text id="Code_Academy" data-name="Code Academy" transform="translate(300 106)" fill="#fea729" font-size="12" font-family=" Abdoullah AshgarEL-kharef, Abdoullah Ashgar EL-kharef" letter-spacing="0.071em"><tspan x="0" y="0">Code Academy</tspan></text>
  </g>
</svg>
