<svg xmlns="http://www.w3.org/2000/svg" xmlns:xlink="http://www.w3.org/1999/xlink" width="987.999" height="705.681" viewBox="0 0 987.999 705.681">
  <defs>
    <linearGradient id="linear-gradient" x1="0.285" y1="0.418" x2="1.18" y2="0.694" gradientUnits="objectBoundingBox">
      <stop offset="0.012" stop-color="#5692a3"/>
      <stop offset="0.168" stop-color="#629da4"/>
      <stop offset="0.996" stop-color="#a0d6ad"/>
    </linearGradient>
    <linearGradient id="linear-gradient-2" x1="0.934" y1="0.74" x2="1.418" y2="0.105" xlink:href="#linear-gradient"/>
    <linearGradient id="linear-gradient-3" x1="0.217" y1="0.775" x2="0.789" y2="0.36" xlink:href="#linear-gradient"/>
    <linearGradient id="linear-gradient-4" x1="2.093" y1="-0.232" x2="3.018" y2="-0.232" xlink:href="#linear-gradient"/>
    <linearGradient id="linear-gradient-5" x1="2.691" y1="-0.069" x2="3.084" y2="-0.891" xlink:href="#linear-gradient"/>
    <linearGradient id="linear-gradient-6" x1="2.527" y1="0.221" x2="3.228" y2="0.221" xlink:href="#linear-gradient"/>
    <linearGradient id="linear-gradient-7" x1="0.5" y1="0.592" x2="0.5" y2="-0.08" gradientUnits="objectBoundingBox">
      <stop offset="0.002" stop-color="#d7dff2"/>
      <stop offset="0.486" stop-color="#e9ecf1"/>
      <stop offset="1" stop-color="#f1f1f1"/>
    </linearGradient>
    <linearGradient id="linear-gradient-8" x1="0" y1="0.5" x2="1" y2="0.5" xlink:href="#linear-gradient-7"/>
    <linearGradient id="linear-gradient-9" x1="114.242" y1="0.5" x2="115.243" y2="0.5" xlink:href="#linear-gradient-7"/>
    <linearGradient id="linear-gradient-10" x1="0.5" y1="1.099" x2="0.5" y2="-0.61" gradientUnits="objectBoundingBox">
      <stop offset="0" stop-color="#66a8de"/>
      <stop offset="0.437" stop-color="#9ec3e7"/>
      <stop offset="0.804" stop-color="#c7d7ef"/>
      <stop offset="0.993" stop-color="#d7dff2"/>
    </linearGradient>
    <linearGradient id="linear-gradient-11" x1="0.5" y1="1.804" x2="0.5" y2="-0.571" xlink:href="#linear-gradient-10"/>
    <linearGradient id="linear-gradient-12" x1="0.5" y1="2.098" x2="0.5" y2="0.079" xlink:href="#linear-gradient-10"/>
    <linearGradient id="linear-gradient-13" y1="0.5" x2="1" y2="0.5" gradientUnits="objectBoundingBox">
      <stop offset="0.007" stop-color="#d7dff2"/>
      <stop offset="0.196" stop-color="#c7d7ef"/>
      <stop offset="0.563" stop-color="#9ec3e7"/>
      <stop offset="1" stop-color="#66a8de"/>
    </linearGradient>
    <linearGradient id="linear-gradient-15" x1="0.5" y1="0.865" x2="0.5" y2="-0.492" xlink:href="#linear-gradient-10"/>
    <linearGradient id="linear-gradient-16" x1="0.425" y1="0.077" x2="0.637" y2="1.267" xlink:href="#linear-gradient-10"/>
    <linearGradient id="linear-gradient-17" x1="0" y1="0.5" x2="1" y2="0.5" xlink:href="#linear-gradient-10"/>
    <linearGradient id="linear-gradient-21" x1="0.5" y1="0.828" x2="0.5" y2="-0.454" xlink:href="#linear-gradient-13"/>
    <linearGradient id="linear-gradient-22" x1="0.5" y1="1.103" x2="0.5" y2="0.087" xlink:href="#linear-gradient-10"/>
    <linearGradient id="linear-gradient-23" x1="0" y1="0.5" x2="1" y2="0.5" xlink:href="#linear-gradient"/>
    <linearGradient id="linear-gradient-30" x1="-0.009" y1="0.5" x2="0.991" y2="0.5" gradientUnits="objectBoundingBox">
      <stop offset="0.357" stop-color="#d7dff2"/>
      <stop offset="0.479" stop-color="#c7d7ef"/>
      <stop offset="0.717" stop-color="#9ec3e7"/>
      <stop offset="1" stop-color="#66a8de"/>
    </linearGradient>
  </defs>
  <g id="Group_760" data-name="Group 760" transform="translate(-21.889 -408.543)">
    <g id="Group_759" data-name="Group 759" transform="translate(21.889 408.543)">
      <g id="Group_710" data-name="Group 710" transform="translate(46.941 206.787)">
        <g id="Group_699" data-name="Group 699" transform="translate(613.793)">
          <g id="Group_692" data-name="Group 692" transform="translate(0 271.78)">
            <g id="Group_691" data-name="Group 691">
              <g id="Group_690" data-name="Group 690">
                <path id="Path_342" data-name="Path 342" d="M588.885,511.362c-5.369-2.227-35.326-1.718-48.776-1.369a14.408,14.408,0,0,0-10.6,5.057c-3.887,4.568-9.69,11.147-13.389,14.3.944-7.1,2.446-14.235,2.863-21.548-6.755-1.243-14.391-.824-21.294-1.677a151.73,151.73,0,0,0-21.638-1.386c-6.531.125-16.031-1.045-20.38,3.081-4.442,4.219-9.2,12.156-12.786,17.251-.133-4.445,1.3-9.4,2.293-13.947,1.8-8.189.309-7.5-8.344-9.2a155.647,155.647,0,0,0-31.22-3.1,228.4,228.4,0,0,0-38.164,3.48c-7.5,1.268-7.217.573-9.954,7.782a157.793,157.793,0,0,1-6.747,14.617c-6.727-3.212-6.938-15.933-7.352-22.14-16.287-.151-33.209,17.279-44.213,27.785-2.157,2.062-23.024,23.544-24.091,24.651a23.513,23.513,0,0,0,8.264,38.184c8.144,3.242,18.359,6.83,31.107,10.622,11.192,3.335,63.606,13.761,79.25,9.53-2.192-7.684-6.227-15.611-7.239-23.67,6.782,3.8,11.659,12.081,15.2,18.738.409.773,1.431,2.569,2.6,4.59a14.257,14.257,0,0,0,14.416,7c15.509-2.253,44.173-9.726,57.529-14.557-3.86-7.112-8.028-11.626-12.151-18.876,7.481,2.619,12.854,10.994,19.464,15.054,4.751,2.908,2.878,3.415,8.322.495,3.028-1.625,5.577-3.656,8.58-5.308-7.415-7.018-13.068-16.345-20.317-23.946,5.072,5.281,12.764,8.942,18.743,13.02,8.1,5.527,9.261,5.6,17.892.846,14.818-8.169,30.829-17.462,44.11-27.637,10.6-8.123,26.638-19.22,32.248-31.454C596.576,520.085,597.953,515.134,588.885,511.362Z" transform="translate(-268.494 -498.824)" fill="url(#linear-gradient)"/>
              </g>
              <path id="Path_343" data-name="Path 343" d="M554.3,528.991c-16.945,5.1-34.081,9.831-51.362,14.027a183.445,183.445,0,0,0,48.831-1.009c2.32-.362,3.362,3.187,1.01,3.551a189.681,189.681,0,0,1-58.6,0,1.785,1.785,0,0,1-.748-.289q-10.023,2.309-20.1,4.349A146.334,146.334,0,0,0,510.4,565.8c2.293.643,1.419,4.226-.881,3.583a149.794,149.794,0,0,1-40.936-18.364,1.836,1.836,0,0,1-.4-.387c-6.413,1.248-12.844,2.38-19.283,3.443,4.1,3.533,8.359,6.848,12.134,10.793,4.5,4.7,8.56,9.791,12.638,14.848,1.489,1.846-1.69,3.734-3.164,1.906-8.126-10.077-16.96-18.06-26.316-26.763q-11.654,1.834-23.353,3.2c4.668,4.244,9.876,7.885,14.346,12.4a112.362,112.362,0,0,1,12.583,15.391c1.351,1.958-1.818,3.859-3.164,1.906a105.778,105.778,0,0,0-14.095-16.709c-4.618-4.4-9.977-7.94-14.464-12.45q-10.708,1.164-21.445,1.891c9.916,10.052,17.693,21.681,25.329,33.551,1.288,2-1.878,3.907-3.164,1.906-8.046-12.505-16.227-24.8-27.052-35.13q-18.592,1.1-37.219.768a206.2,206.2,0,0,1,17.7,34.2c.889,2.195-2.677,3.184-3.563,1a200.843,200.843,0,0,0-18.6-35.316q-10.822-.316-21.631-1.2c7.727,8.972,14.029,18.909,17.419,30.354.675,2.275-2.885,3.282-3.561,1-3.5-11.825-10.208-21.919-18.437-31.015a1.892,1.892,0,0,1-.422-.761c-7.245-.668-14.484-1.557-21.716-2.624a61.431,61.431,0,0,1,16.3,19.559c1.11,2.089-2.047,4.01-3.167,1.906a57.89,57.89,0,0,0-21.575-22.826c-5.986-1.02-11.968-2.134-17.939-3.455-2.33-.517-1.444-4.1.881-3.583,5.808,1.286,11.626,2.388,17.45,3.39a1.617,1.617,0,0,1,.894.156c.173.03.344.055.517.083a78.981,78.981,0,0,0,27.572-34.528c.917-2.192,4.158-.4,3.252,1.765a82.137,82.137,0,0,1-25.744,33.571q11.338,1.74,22.7,2.82a1.809,1.809,0,0,1,.768-1.431c14.517-10.534,28.86-21.251,39.236-36.1,1.348-1.931,4.61-.181,3.252,1.763-10.333,14.785-24.338,25.663-38.769,36.182q17.134,1.443,34.289,1.492c13.221-16.985,26.271-34.284,32.433-55.2.67-2.272,4.266-1.4,3.593.884-6.037,20.488-18.444,37.624-31.359,54.3q11.375-.075,22.74-.691c11.651-14.014,24.965-27.768,30.5-45.519.706-2.257,4.3-1.386,3.593.886-5.366,17.2-17.58,30.758-29.018,44.323q9.921-.637,19.825-1.637a1.6,1.6,0,0,1,.811-.979c14.9-8.048,26.916-19.6,38.819-31.444,1.685-1.677,4.377.859,2.689,2.536-10.707,10.657-21.515,21.076-34.342,29.018q10.95-1.277,21.862-2.961c.721-3.473,6.531-7.129,8.4-8.912q10.467-9.985,21.39-19.481c1.778-1.552,4.48.977,2.689,2.539q-7.458,6.513-14.733,13.224c-1.05.972-10.047,8.6-13.1,11.882q10.2-1.65,20.35-3.6c.013-.013.015-.028.028-.04A159.874,159.874,0,0,1,498.4,521.764c2.029-1.243,3.947,1.913,1.918,3.156a156,156,0,0,0-27.049,20.945q19.345-3.936,38.482-8.847a1.609,1.609,0,0,1,.7-.648l29.794-14.7c2.117-1.045,4.053,2.1,1.919,3.156l-15.775,7.782q12.517-3.439,24.91-7.174C555.572,524.752,556.586,528.3,554.3,528.991Z" transform="translate(-263.29 -494.842)" fill="#4d8593"/>
            </g>
          </g>
          <g id="Group_695" data-name="Group 695" transform="translate(3.626 129.282)">
            <g id="Group_694" data-name="Group 694">
              <g id="Group_693" data-name="Group 693">
                <path id="Path_344" data-name="Path 344" d="M528.792,442.166c-5.791.495-32.1,14.748-43.859,21.251a14.346,14.346,0,0,0-7.049,9.371c-1.331,5.843-3.428,14.358-5.243,18.861-2.453-6.74-4.427-13.758-7.443-20.443-6.561,2.009-13.138,5.9-19.649,8.319a151.456,151.456,0,0,0-19.818,8.739c-5.73,3.119-14.692,6.456-16.634,12.124-1.984,5.788-2.526,15.026-3.345,21.2-2.175-3.882-3.2-8.934-4.427-13.434-2.2-8.1-3.2-6.8-11.656-4.322a155.152,155.152,0,0,0-29.106,11.629,227.652,227.652,0,0,0-32.21,20.669c-6.057,4.578-6.13,3.832-5.216,11.491a158.39,158.39,0,0,1,.791,16.081c-7.448.249-13.53-10.943-16.772-16.264-14.507,7.37-21.427,30.633-26.311,45.029-.959,2.822-9.5,31.5-9.934,32.978a23.584,23.584,0,0,0,25.013,30.083c8.719-.874,19.436-2.393,32.489-4.9,11.466-2.2,62.747-17.088,74.65-28.049-5.5-5.811-12.751-10.989-17.379-17.676,7.772.256,15.928,5.356,22.148,9.633.721.5,2.458,1.62,4.427,2.88a14.252,14.252,0,0,0,16.018-.427c12.7-9.143,34.646-28.978,44.246-39.419-6.717-4.532-12.5-6.622-19.514-11.157,7.842-1.12,16.483,3.837,24.222,4.394,5.557.394,4.131,1.708,7.6-3.393,1.933-2.838,3.249-5.813,5.145-8.663-9.823-2.815-19.15-8.488-29.1-11.9,6.941,2.35,15.453,2.057,22.643,2.923,9.736,1.175,10.805.708,16.249-7.491,9.349-14.077,19.23-29.7,26.289-44.848,5.627-12.093,14.7-29.33,14.009-42.774C539.65,446.364,538.575,441.335,528.792,442.166Z" transform="translate(-269.938 -442.076)" fill="url(#linear-gradient-2)"/>
              </g>
              <path id="Path_345" data-name="Path 345" d="M511.312,457.069c-12.656,12.329-25.651,24.428-39.02,36.112A182.874,182.874,0,0,0,515.1,469.79c1.891-1.389,4.457,1.281,2.539,2.689A189,189,0,0,1,465.7,499.469a1.749,1.749,0,0,1-.8.088q-7.812,6.667-15.8,13.12a146.211,146.211,0,0,0,40.356-2.714c2.33-.487,3.214,3.1.879,3.583a149.664,149.664,0,0,1-44.788,2.559,1.852,1.852,0,0,1-.532-.158q-7.658,6.094-15.493,11.938c5.273,1.248,10.579,2.227,15.755,3.99,6.162,2.1,12.121,4.746,18.077,7.358,2.175.952.231,4.093-1.921,3.149-11.87-5.2-23.4-8.216-35.72-11.631q-9.481,6.995-19.215,13.6c6.1,1.617,12.4,2.448,18.457,4.394a112.749,112.749,0,0,1,18.281,7.865c2.107,1.117.178,4.264-1.921,3.151a106.27,106.27,0,0,0-20.232-8.342c-6.13-1.775-12.52-2.451-18.585-4.387q-8.953,5.97-18.13,11.556c13.444,4.357,25.724,11.1,37.99,18.113,2.067,1.183.146,4.334-1.921,3.151-12.925-7.4-25.872-14.544-40.248-18.723q-15.97,9.541-32.629,17.826a206.949,206.949,0,0,1,31.524,22.208c1.805,1.539-.9,4.06-2.692,2.526a201.761,201.761,0,0,0-32.848-22.776q-9.737,4.7-19.725,8.9c11,4.4,21.191,10.321,29.5,18.919,1.65,1.708-1.037,4.241-2.694,2.526-8.58-8.882-19.2-14.753-30.708-19.037a1.91,1.91,0,0,1-.723-.479q-10.1,4.117-20.463,7.674a61.6,61.6,0,0,1,23.509,9.849c1.954,1.343.045,4.5-1.919,3.151a58.034,58.034,0,0,0-29.7-10.321c-5.778,1.853-11.6,3.618-17.5,5.2-2.305.615-3.179-2.971-.879-3.586,5.743-1.534,11.41-3.237,17.035-5.03a1.611,1.611,0,0,1,.864-.274c.166-.053.331-.11.5-.163a78.851,78.851,0,0,0,8.44-43.346c-.2-2.368,3.5-2.278,3.7.068a82.018,82.018,0,0,1-7.262,41.656q10.852-3.68,21.42-7.953a1.814,1.814,0,0,1,.02-1.625c7.985-16.036,15.732-32.157,18.05-50.114.3-2.333,4-2.283,3.7.068-2.308,17.882-9.68,33.99-17.6,49.973q15.854-6.61,31.08-14.471c3.847-21.166,7.4-42.531,3.174-63.932-.459-2.328,3.134-3.207,3.6-.871,4.141,20.965,1.082,41.89-2.637,62.644q10.046-5.307,19.835-11.086c3.834-17.806,9.258-36.147,5.946-54.453-.422-2.33,3.169-3.212,3.593-.869,3.212,17.738-1.331,35.4-5.185,52.71q8.5-5.138,16.812-10.587a1.591,1.591,0,0,1,.266-1.243c9.477-14.009,14.773-29.8,19.835-45.792.718-2.262,4.276-1.25,3.561,1.015-4.555,14.391-9.3,28.616-16.993,41.574q9.108-6.177,18-12.7c-.969-3.415,2.486-9.339,3.317-11.782,3.1-9.123,6.433-18.163,9.934-27.142.854-2.2,4.42-1.2,3.558,1.014-2.393,6.145-4.718,12.312-6.931,18.522-.48,1.346-4.919,12.259-6.1,16.581q8.268-6.162,16.367-12.568a.345.345,0,0,1,0-.05A159.417,159.417,0,0,1,458.421,476.4c1.223-2.036,4.384-.118,3.161,1.921a155.669,155.669,0,0,0-14.268,31.047q15.319-12.4,30.005-25.575a1.622,1.622,0,0,1,.316-.9q9.8-13.383,19.6-26.771c1.394-1.9,4.568,0,3.161,1.921l-10.373,14.173q9.5-8.818,18.753-17.841C510.476,452.725,513.017,455.409,511.312,457.069Z" transform="translate(-268.484 -424.268)" fill="#4d8593"/>
            </g>
          </g>
          <g id="Group_698" data-name="Group 698" transform="translate(6.717)">
            <g id="Group_697" data-name="Group 697">
              <g id="Group_696" data-name="Group 696">
                <path id="Path_346" data-name="Path 346" d="M455.394,392.1c-5.3,2.376-25.4,24.5-34.337,34.518a14.33,14.33,0,0,0-3.546,11.172c.683,5.956,1.527,14.685,1.306,19.539-4.548-5.557-8.736-11.536-13.8-16.854-5.524,4.058-10.439,9.9-15.78,14.328a151.231,151.231,0,0,0-15.8,14.78c-4.372,4.834-11.719,10.938-11.674,16.927.045,6.122,2.6,15.024,3.87,21.123-3.34-2.95-5.981-7.385-8.628-11.23-4.761-6.918-5.268-5.361-12.43-.241a154.5,154.5,0,0,0-23.6,20.571,226.7,226.7,0,0,0-23.539,30.128c-4.2,6.32-4.515,5.64-1.115,12.57a158.139,158.139,0,0,1,6.074,14.926c-6.943,2.689-16.387-5.879-21.211-9.833-11.242,11.737-10.065,35.987-9.9,51.189.033,2.981,1.477,32.878,1.557,34.415A23.627,23.627,0,0,0,306.4,670.3c7.935-3.7,17.542-8.663,29.026-15.33,10.087-5.851,53.531-36.805,61.13-51.081-7.114-3.674-15.669-6.172-22.253-10.964,7.418-2.32,16.8-.191,24.086,1.8.846.236,2.858.721,5.13,1.26a14.215,14.215,0,0,0,14.971-5.677c8.955-12.819,23.082-38.779,28.677-51.8-7.837-2.069-13.984-2.134-22.1-4.106,7.026-3.644,16.822-1.808,24.307-3.829,5.371-1.461,4.462.249,6.049-5.71.881-3.315,1.138-6.562,1.984-9.876-10.2.578-20.88-1.708-31.394-1.647,7.327-.068,15.26-3.149,22.329-4.7,9.575-2.1,10.429-2.888,12.847-12.425,4.156-16.372,8.3-34.382,9.944-51.013,1.3-13.271,4.151-32.541-.957-45.006C467.027,392.493,464.346,388.1,455.394,392.1Z" transform="translate(-271.169 -390.592)" fill="url(#linear-gradient-3)"/>
              </g>
              <path id="Path_347" data-name="Path 347" d="M449.793,407.21c-7.855,15.812-16.106,31.517-24.847,46.955a182.242,182.242,0,0,0,32.634-36.19c1.323-1.934,4.628-.259,3.285,1.7a188.431,188.431,0,0,1-40.052,42.6,1.778,1.778,0,0,1-.726.347q-5.16,8.867-10.557,17.6a145.854,145.854,0,0,0,37.169-15.86c2.036-1.225,4.058,1.866,2.016,3.1a149.3,149.3,0,0,1-41.4,17.171,1.818,1.818,0,0,1-.555.025q-5.206,8.275-10.662,16.377c5.389-.56,10.72-1.381,16.184-1.421,6.509-.05,13.007.49,19.494.992,2.365.183,1.574,3.789-.771,3.609-12.92-1-24.792-.055-37.551.783q-6.625,9.725-13.623,19.167c6.293-.485,12.515-1.775,18.868-1.929a112.555,112.555,0,0,1,19.853,1.4c2.355.359,1.577,3.965-.768,3.606a106.264,106.264,0,0,0-21.852-1.21c-6.371.344-12.623,1.81-18.986,1.981q-6.467,8.584-13.274,16.885c14.125-.316,27.943,2,41.84,4.588,2.343.437,1.572,4.043-.768,3.608-14.642-2.724-29.227-5.21-44.173-4.419q-11.9,14.268-24.875,27.582a207.164,207.164,0,0,1,37.1,10.587c2.215.859.5,4.128-1.7,3.272a202,202,0,0,0-38.533-10.687q-7.628,7.65-15.659,14.9c11.842.535,23.413,2.767,34.1,8.148,2.127,1.07.429,4.347-1.7,3.272-11.036-5.557-23-7.606-35.273-7.86a1.863,1.863,0,0,1-.844-.216q-8.162,7.217-16.762,13.989a61.575,61.575,0,0,1,25.442,1.557c2.288.625,1.534,4.236-.768,3.606a58.037,58.037,0,0,0-31.434.038c-4.836,3.654-9.741,7.237-14.788,10.67-1.969,1.341-3.983-1.758-2.016-3.1,4.909-3.34,9.693-6.813,14.4-10.361a1.618,1.618,0,0,1,.726-.542c.138-.105.274-.214.414-.319a78.963,78.963,0,0,0-6.4-43.713c-.977-2.17,2.546-3.3,3.513-1.155a82.165,82.165,0,0,1,6.948,41.729q9.017-7.047,17.573-14.567a1.813,1.813,0,0,1-.52-1.539c2.22-17.776,4.186-35.552.424-53.27-.49-2.3,3.021-3.475,3.513-1.155,3.747,17.648,2.127,35.286-.045,52.989q12.765-11.466,24.526-23.906c-3.383-21.254-7.109-42.6-18.188-61.419-1.205-2.047,1.893-4.06,3.1-2.006,10.853,18.434,14.9,39.2,18.268,60.025q7.722-8.32,15.039-17c-2.283-18.08-3.239-37.187-12.43-53.381-1.17-2.062,1.926-4.078,3.1-2.006,8.907,15.694,10.471,33.867,12.573,51.485q6.313-7.65,12.35-15.534a1.6,1.6,0,0,1-.158-1.263c4.3-16.352,4.065-33.006,3.541-49.777-.073-2.373,3.621-2.591,3.694-.213.472,15.089.7,30.088-2.258,44.856q6.55-8.833,12.776-17.919c-2.044-2.905-.748-9.638-.773-12.219-.1-9.638.053-19.273.379-28.9.078-2.358,3.774-2.589,3.694-.216-.223,6.592-.372,13.181-.4,19.775-.008,1.429-.58,13.2-.266,17.668q5.759-8.543,11.275-17.261c0-.018-.01-.028-.013-.048a159.388,159.388,0,0,1,3.076-40.373c.477-2.325,4.1-1.554,3.619.773a155.52,155.52,0,0,0-3.174,34.02q10.343-16.762,19.833-34.038a1.6,1.6,0,0,1,0-.949q4.806-15.869,9.617-31.738c.683-2.255,4.309-1.5,3.618.771q-2.546,8.4-5.092,16.8,6.042-11.454,11.782-23.027C447.563,403.383,450.853,405.081,449.793,407.21Z" transform="translate(-269.85 -369.529)" fill="#4d8593"/>
            </g>
          </g>
        </g>
        <g id="Group_709" data-name="Group 709" transform="translate(0 5.707)">
          <g id="Group_702" data-name="Group 702" transform="translate(0 253.789)">
            <g id="Group_701" data-name="Group 701">
              <g id="Group_700" data-name="Group 700">
                <path id="Path_348" data-name="Path 348" d="M29.783,539.96c4.972-3.013,34.663-7.026,48.01-8.711a14.4,14.4,0,0,1,11.24,3.4c4.533,3.927,11.262,9.555,15.393,12.119-2-6.88-4.563-13.7-6.079-20.87,6.489-2.245,14.1-2.983,20.8-4.869a151.912,151.912,0,0,1,21.181-4.635c6.476-.859,15.692-3.448,20.611-.025,5.03,3.5,10.931,10.627,15.245,15.124-.54-4.415-2.7-9.093-4.372-13.442-3.008-7.825-1.434-7.363,6.863-10.356a155.77,155.77,0,0,1,30.394-7.772,228.425,228.425,0,0,1,38.254-2.315c7.6.12,7.219-.522,11.011,6.192a158.583,158.583,0,0,0,8.874,13.429c6.167-4.188,4.457-16.794,3.93-22.994,16.079-2.607,35.437,12.071,47.9,20.8,2.443,1.713,26.311,19.8,27.534,20.734a23.514,23.514,0,0,1-2.413,38.995c-7.558,4.432-17.116,9.522-29.146,15.192-10.562,4.985-60.806,23.195-76.91,21.372,1.009-7.925,3.8-16.372,3.588-24.491-6.13,4.784-9.7,13.7-12.2,20.814-.286.829-1.027,2.757-1.871,4.932a14.251,14.251,0,0,1-13.2,9.1c-15.672.113-45.134-2.951-59.068-5.713,2.745-7.611,6.185-12.7,9.168-20.491-7,3.717-11.051,12.8-16.973,17.816-4.256,3.591-2.33,3.809-8.151,1.745-3.239-1.15-6.064-2.775-9.284-3.955,6.273-8.056,10.454-18.128,16.473-26.735-4.216,5.984-11.267,10.762-16.563,15.7-7.172,6.684-8.312,6.938-17.56,3.536-15.88-5.841-33.109-12.613-47.774-20.666-11.7-6.433-29.232-14.984-36.624-26.233C23.5,549.743,21.389,545.055,29.783,539.96Z" transform="translate(-24.061 -493.932)" fill="url(#linear-gradient-4)"/>
              </g>
              <path id="Path_349" data-name="Path 349" d="M40.14,549.962c17.52,2.483,35.175,4.58,52.891,6.122A183.608,183.608,0,0,1,44.6,562.449c-2.348-.007-2.843,3.659-.46,3.664a189.709,189.709,0,0,0,57.931-8.842,1.773,1.773,0,0,0,.7-.4q10.257.769,20.528,1.268a146.278,146.278,0,0,1-34.211,21.588c-2.17.979-.766,4.39,1.411,3.408a149.807,149.807,0,0,0,37.7-24.325,1.91,1.91,0,0,0,.336-.444c6.526.269,13.055.417,19.579.495-3.521,4.113-7.229,8.033-10.366,12.5-3.739,5.323-6.986,10.968-10.255,16.586-1.19,2.049,2.235,3.435,3.418,1.406,6.511-11.187,14.04-20.41,21.98-30.427q11.793.057,23.567-.359c-3.975,4.9-8.575,9.283-12.312,14.418A112.114,112.114,0,0,0,154.028,590.1c-1.042,2.14,2.378,3.541,3.415,1.406a105.782,105.782,0,0,1,11.413-18.645c3.9-5.042,8.666-9.354,12.42-14.489q10.765-.463,21.485-1.366c-8.287,11.435-14.22,24.1-19.978,36.988-.972,2.172,2.446,3.578,3.415,1.409,6.067-13.578,12.3-26.969,21.442-38.809q18.547-1.718,36.911-4.854a206.144,206.144,0,0,0-12.335,36.479c-.547,2.305,3.126,2.747,3.671.452a200.863,200.863,0,0,1,13.065-37.719q10.648-1.944,21.2-4.445c-6.283,10.037-11.016,20.809-12.641,32.634-.324,2.35,3.347,2.81,3.671.449,1.68-12.216,6.785-23.208,13.547-33.44a1.871,1.871,0,0,0,.3-.814q10.592-2.633,21.073-5.871a61.407,61.407,0,0,0-13.168,21.794c-.783,2.235,2.629,3.656,3.415,1.409a57.888,57.888,0,0,1,17.889-25.819c5.763-1.911,11.508-3.917,17.211-6.122,2.225-.861.811-4.269-1.411-3.407-5.549,2.144-11.134,4.113-16.739,5.981a1.59,1.59,0,0,0-.859.289c-.166.055-.334.105-.5.158a78.957,78.957,0,0,1-32.463-29.972c-1.238-2.029-4.173.226-2.948,2.235a82.122,82.122,0,0,0,30.512,29.3q-10.946,3.431-22.012,6.21a1.8,1.8,0,0,0-.977-1.3c-15.94-8.226-31.735-16.659-44.23-29.769-1.625-1.705-4.585.517-2.951,2.235,12.445,13.055,27.931,21.7,43.783,29.92q-16.72,4.011-33.671,6.647c-15.632-14.8-31.143-29.93-40.388-49.677-1-2.144-4.427-.738-3.418,1.419,9.055,19.34,23.906,34.41,39.188,48.951q-11.255,1.642-22.585,2.75c-13.633-12.1-28.865-23.687-37.019-40.4-1.037-2.127-4.462-.723-3.418,1.416,7.9,16.194,22.017,27.755,35.371,39.442q-9.9.866-19.845,1.371a1.6,1.6,0,0,0-.949-.846c-15.945-5.71-29.566-15.318-43.118-25.231-1.918-1.4-4.2,1.512-2.275,2.915,12.191,8.919,24.445,17.59,38.324,23.506q-11.014.388-22.055.372c-1.238-3.325-7.533-6.064-9.653-7.543q-11.854-8.294-24.084-16.031c-1.989-1.268-4.279,1.64-2.275,2.915q8.354,5.311,16.558,10.848c1.183.8,11.23,6.986,14.743,9.771-6.885-.063-13.773-.214-20.661-.49-.013-.01-.018-.025-.033-.038a159.887,159.887,0,0,0-35.085-20.3c-2.192-.922-3.613,2.488-1.419,3.412a155.9,155.9,0,0,1,29.9,16.624q-19.715-.972-39.374-2.941a1.63,1.63,0,0,0-.786-.535Q66.8,545.925,50.96,540.909c-2.252-.713-3.691,2.692-1.419,3.41q8.381,2.659,16.767,5.313Q53.415,548.122,40.6,546.3C38.244,545.964,37.78,549.628,40.14,549.962Z" transform="translate(-2.116 -487.004)" fill="#4d8593"/>
            </g>
          </g>
          <g id="Group_705" data-name="Group 705" transform="translate(30.037 137.896)">
            <g id="Group_704" data-name="Group 704">
              <g id="Group_703" data-name="Group 703">
                <path id="Path_350" data-name="Path 350" d="M45.585,447.79c5.8-.384,33.96,9.735,46.563,14.394a14.336,14.336,0,0,1,8.382,8.2c2.2,5.575,5.552,13.675,8.028,17.854,1.409-7.031,2.3-14.271,4.274-21.332,6.79,1,13.876,3.849,20.679,5.261a151.376,151.376,0,0,1,20.91,5.647c6.135,2.22,15.5,4.168,18.271,9.477,2.835,5.424,4.764,14.474,6.5,20.455,1.564-4.168,1.818-9.319,2.35-13.952.957-8.334,2.137-7.2,10.873-6.029a155.147,155.147,0,0,1,30.525,7.106,227.3,227.3,0,0,1,34.96,15.574c6.677,3.611,6.639,2.865,6.888,10.572a158.694,158.694,0,0,0,1.645,16.016c7.4-.876,11.724-12.859,14.127-18.607,15.451,5.1,25.8,27.052,32.8,40.547,1.371,2.644,14.14,29.709,14.793,31.1a23.584,23.584,0,0,1-20.192,33.51c-8.749.452-19.571.565-32.855.055-11.664-.44-64.605-7.425-78.027-16.468,4.563-6.572,10.951-12.784,14.517-20.094-7.644,1.424-14.939,7.7-20.443,12.862-.635.6-2.185,1.974-3.94,3.516a14.255,14.255,0,0,1-15.9,2c-13.937-7.124-38.621-23.423-49.685-32.3,5.956-5.494,11.36-8.43,17.608-13.969-7.923.073-15.717,6.278-23.283,8-5.434,1.228-3.827,2.31-8.028-2.2-2.338-2.516-4.088-5.258-6.393-7.789,9.286-4.264,17.653-11.28,26.972-16.149-6.509,3.37-14.966,4.364-21.942,6.3-9.447,2.632-10.574,2.33-17.193-4.952-11.365-12.508-23.491-26.459-32.752-40.371-7.388-11.1-18.959-26.778-20.3-40.173C35.486,453.578,35.789,448.446,45.585,447.79Z" transform="translate(-36.023 -447.78)" fill="url(#linear-gradient-5)"/>
              </g>
              <path id="Path_351" data-name="Path 351" d="M50.992,461.881c14.371,10.278,29.043,20.277,44.022,29.812a182.854,182.854,0,0,1-45.848-16.666c-2.077-1.087-4.211,1.936-2.1,3.041a189.068,189.068,0,0,0,55.412,18.848,1.8,1.8,0,0,0,.8-.033q8.727,5.409,17.6,10.587a146.323,146.323,0,0,1-40.306,3.4c-2.375-.13-2.709,3.546-.326,3.676a149.774,149.774,0,0,0,44.66-4.226,1.892,1.892,0,0,0,.5-.239c5.66,3.247,11.373,6.386,17.118,9.464-5.025,2.029-10.122,3.8-14.971,6.32-5.778,3-11.267,6.521-16.762,10-2.006,1.271.389,4.083,2.373,2.825,10.948-6.933,21.889-11.651,33.558-16.887q10.426,5.484,21.046,10.542c-5.791,2.519-11.9,4.294-17.583,7.129A112.739,112.739,0,0,0,133.3,550.008c-1.911,1.421.47,4.241,2.376,2.825a106.033,106.033,0,0,1,18.743-11.295c5.791-2.682,12.006-4.314,17.711-7.141q9.748,4.55,19.664,8.691c-12.633,6.333-23.755,14.846-34.824,23.634-1.866,1.482.51,4.3,2.375,2.825,11.659-9.258,23.381-18.278,36.963-24.579q17.225,7.025,34.944,12.7a207.154,207.154,0,0,0-27.815,26.708c-1.552,1.8,1.5,3.88,3.043,2.092A201.715,201.715,0,0,1,235.519,559q10.332,3.179,20.84,5.823c-10.215,6.014-19.393,13.4-26.309,23.15-1.374,1.941,1.665,4.038,3.043,2.094,7.144-10.074,16.757-17.48,27.486-23.451a1.894,1.894,0,0,0,.643-.585q10.6,2.55,21.384,4.5a61.6,61.6,0,0,0-21.754,13.281c-1.728,1.622.635,4.457,2.373,2.825a58.029,58.029,0,0,1,27.8-14.68c5.991.959,12.008,1.826,18.082,2.494,2.37.261,2.692-3.415.326-3.676-5.909-.65-11.767-1.477-17.6-2.4a1.633,1.633,0,0,0-.894-.138c-.173-.028-.344-.06-.517-.088a78.832,78.832,0,0,1-14.881-41.576c-.158-2.373-3.8-1.723-3.649.625a82,82,0,0,0,13.464,40.082q-11.285-2-22.376-4.63a1.8,1.8,0,0,0-.264-1.6c-10.313-14.65-20.4-29.417-25.4-46.819-.648-2.26-4.3-1.652-3.646.625,4.979,17.329,14.7,32.142,24.933,46.746q-16.667-4.143-32.905-9.618c-7-20.342-13.731-40.926-12.781-62.722.105-2.37-3.581-2.7-3.684-.319-.932,21.349,5.248,41.574,12.053,61.529q-10.731-3.729-21.279-7.968c-6.476-17.025-14.6-34.337-14.092-52.931.065-2.368-3.618-2.7-3.684-.319-.5,18.02,6.657,34.794,13.075,51.324q-9.172-3.8-18.213-7.93a1.606,1.606,0,0,0-.452-1.188c-11.483-12.42-19.1-27.228-26.517-42.277-1.047-2.127-4.415-.59-3.365,1.542,6.672,13.537,13.515,26.884,23.069,38.533q-9.936-4.731-19.712-9.833c.444-3.523-3.865-8.857-5.055-11.147q-6.667-12.829-13.914-25.334c-1.178-2.044-4.553-.517-3.365,1.539q4.938,8.569,9.645,17.266c.675,1.255,6.712,11.375,8.535,15.468q-9.1-4.844-18.075-9.956c-.008-.018-.005-.03-.013-.048A159.43,159.43,0,0,0,106.2,473.018c-1.517-1.828-4.354.545-2.838,2.375a155.425,155.425,0,0,1,18.788,28.541q-17.014-9.951-33.521-20.759a1.605,1.605,0,0,0-.447-.839q-11.7-11.752-23.408-23.509c-1.665-1.67-4.515.691-2.838,2.375q6.2,6.222,12.395,12.448Q63.6,466.366,53.1,458.84C51.165,457.459,49.055,460.495,50.992,461.881Z" transform="translate(-20.653 -431.948)" fill="#4d8593"/>
            </g>
          </g>
          <g id="Group_708" data-name="Group 708" transform="translate(76.719)">
            <g id="Group_707" data-name="Group 707">
              <g id="Group_706" data-name="Group 706">
                <path id="Path_352" data-name="Path 352" d="M68.931,393.583c5.595,1.549,28.8,20.393,39.15,28.945a14.321,14.321,0,0,1,5.188,10.509c.223,5.991.708,14.748,1.657,19.511,3.659-6.177,6.9-12.721,11.1-18.743,6.072,3.182,11.812,8.211,17.761,11.787a151.086,151.086,0,0,1,17.849,12.226c5.052,4.121,13.236,9.045,14.095,14.974.879,6.059-.3,15.242-.64,21.465,2.858-3.42,4.8-8.2,6.838-12.4,3.661-7.556,4.4-6.094,12.249-2.112a154.665,154.665,0,0,1,26.437,16.774,226.818,226.818,0,0,1,27.813,26.233c5.1,5.615,5.313,4.894,3,12.259a158.827,158.827,0,0,0-3.752,15.669c7.27,1.612,15.315-8.282,19.484-12.92,12.884,9.909,15.378,34.058,17.512,49.112.417,2.951,3.5,32.725,3.651,34.254a23.626,23.626,0,0,1-30.138,25c-8.4-2.458-18.645-5.916-31-10.778-10.853-4.261-58.471-28.31-68.136-41.275,6.481-4.7,14.559-8.468,20.345-14.2-7.681-1.175-16.636,2.345-23.539,5.411-.8.359-2.714,1.143-4.882,2.019a14.221,14.221,0,0,1-15.657-3.355c-10.783-11.323-28.664-34.854-36.162-46.882,7.438-3.227,13.5-4.219,21.234-7.393-7.5-2.544-16.9.748-24.606-.12-5.532-.633-4.377.919-6.843-4.731-1.374-3.146-2.114-6.315-3.45-9.467,10.17-.964,20.383-4.834,30.786-6.363-7.255,1.04-15.561-.811-22.783-1.278-9.781-.628-10.745-1.283-14.574-10.346-6.577-15.559-13.394-32.735-17.522-48.929-3.29-12.925-9.012-31.542-5.843-44.637C57.49,395.723,59.476,390.974,68.931,393.583Z" transform="translate(-54.613 -392.865)" fill="url(#linear-gradient-6)"/>
              </g>
              <path id="Path_353" data-name="Path 353" d="M69.908,408.9c10.15,14.446,20.674,28.727,31.645,42.671a182.264,182.264,0,0,1-37.719-30.856c-1.6-1.71-4.613.442-2.991,2.18a188.37,188.37,0,0,0,46.021,36.069,1.731,1.731,0,0,0,.766.234q6.441,7.989,13.093,15.8a145.892,145.892,0,0,1-39.138-10.072c-2.2-.907-3.729,2.456-1.527,3.365a149.361,149.361,0,0,0,43.52,10.73,1.872,1.872,0,0,0,.552-.06q6.392,7.4,13.01,14.582c-5.409.261-10.805.251-16.214,1.035-6.441.934-12.784,2.446-19.119,3.922-2.31.537-.984,3.983,1.306,3.45,12.621-2.94,24.5-3.792,37.24-4.889q8.015,8.614,16.36,16.895c-6.3.469-12.641.133-18.946.937a112.674,112.674,0,0,0-19.411,4.382c-2.275.713-.964,4.161,1.3,3.45a106.266,106.266,0,0,1,21.417-4.492c6.348-.623,12.751-.116,19.067-.907q7.688,7.511,15.669,14.69c-14.012,1.818-27.321,6.195-40.667,10.848-2.25.784-.947,4.234,1.3,3.45,14.062-4.9,28.1-9.557,43-11.031q13.918,12.309,28.75,23.516a207.032,207.032,0,0,0-35.075,16.058c-2.059,1.183.128,4.158,2.177,2.978a201.826,201.826,0,0,1,36.481-16.375q8.69,6.411,17.726,12.37c-11.624,2.315-22.725,6.265-32.476,13.2-1.941,1.379.231,4.362,2.177,2.981,10.072-7.162,21.59-10.989,33.684-13.09a1.874,1.874,0,0,0,.8-.342q9.157,5.9,18.68,11.3a61.613,61.613,0,0,0-24.915,5.376c-2.167.964-.879,4.419,1.3,3.45a58.029,58.029,0,0,1,31.08-4.7c5.331,2.883,10.72,5.683,16.227,8.317,2.149,1.03,3.671-2.338,1.527-3.365-5.359-2.561-10.609-5.273-15.8-8.071a1.6,1.6,0,0,0-.8-.424c-.153-.085-.3-.171-.457-.254a78.965,78.965,0,0,1-.269-44.18c.638-2.29-3.016-2.88-3.646-.61a82.123,82.123,0,0,0-.575,42.3q-9.978-5.6-19.569-11.749a1.807,1.807,0,0,0,.281-1.6c-4.877-17.239-9.5-34.513-8.452-52.6.136-2.35-3.511-2.981-3.649-.613-1.042,18.012,3.219,35.2,8.038,52.376q-14.351-9.409-27.851-19.933c.138-21.52.6-43.186,8.714-63.46.884-2.2-2.483-3.726-3.367-1.514-7.948,19.86-8.816,41-9.007,62.094q-8.886-7.062-17.43-14.542c-.472-18.216-2.406-37.247,4.236-54.644.846-2.215-2.519-3.741-3.37-1.514-6.436,16.857-5.243,35.057-4.661,52.791q-7.4-6.61-14.554-13.495a1.6,1.6,0,0,0-.033-1.273c-6.717-15.513-9-32.011-11.009-48.672-.284-2.355-3.968-2.014-3.684.347,1.811,14.986,3.845,29.849,9,44q-7.8-7.744-15.333-15.787c1.582-3.182-.713-9.64-1.077-12.194-1.358-9.542-2.958-19.044-4.733-28.518-.434-2.315-4.123-1.989-3.686.346,1.215,6.481,2.358,12.972,3.382,19.486.221,1.411,2.561,12.96,2.928,17.427q-6.983-7.575-13.751-15.363a.307.307,0,0,1,.005-.048,159.34,159.34,0,0,0-9.13-39.449c-.824-2.225-4.284-.919-3.46,1.311a155.476,155.476,0,0,1,8.269,33.151q-12.754-15.01-24.739-30.658a1.636,1.636,0,0,0-.146-.939Q91.06,425.52,83.913,410.559c-1.017-2.124-4.487-.836-3.463,1.308q3.785,7.921,7.568,15.843Q80.315,417.3,72.9,406.722C71.535,404.781,68.54,406.956,69.908,408.9Z" transform="translate(-45.903 -373.071)" fill="#4d8593"/>
            </g>
          </g>
        </g>
      </g>
      <path id="Path_354" data-name="Path 354" d="M851.409,585.393c-5.349,0-10.544.07-15.534.2-26.015-5.836-184.671-10.326-376.541-10.326-210.038,0-380.308,5.381-380.308,12.016,0,.55,1.188,1.087,3.438,1.617-46.877,2.2-77.1,5.637-77.1,9.51,0,6.634,88.727,12.013,198.178,12.013,105.285,0,191.353-4.977,197.754-11.262,18.921.09,38.3.138,58.034.138,137.515,0,257.977-2.305,324.775-5.76,3.166,3.792,32.082,6.762,67.3,6.762,37.335,0,67.6-3.337,67.6-7.455S888.744,585.393,851.409,585.393Z" transform="translate(-5.368 95.257)" fill="#f2f2f2" style="mix-blend-mode: multiply;isolation: isolate"/>
      <g id="Group_713" data-name="Group 713" transform="translate(303.473 244.06)">
        <g id="Group_711" data-name="Group 711" transform="translate(107.49 313.923)">
          <rect id="Rectangle_58" data-name="Rectangle 58" width="64.82" height="105.422" transform="translate(106.74)" fill="#cecece"/>
          <path id="Rectangle_59" data-name="Rectangle 59" d="M8.43,0H272.007a8.43,8.43,0,0,1,8.43,8.43V21.8a0,0,0,0,1,0,0H0a0,0,0,0,1,0,0V8.43A8.43,8.43,0,0,1,8.43,0Z" transform="translate(0 96.874)" fill="#cecece"/>
        </g>
        <path id="Path_450" data-name="Path 450" d="M5.294,0H490.125a5.294,5.294,0,0,1,5.294,5.294V370.569a5.294,5.294,0,0,1-5.294,5.294H5.294A5.294,5.294,0,0,1,0,370.569V5.294A5.294,5.294,0,0,1,5.294,0Z" fill="#cecece"/>
        <rect id="Rectangle_61" data-name="Rectangle 61" width="457.725" height="302.927" transform="translate(18.847 18.222)" fill="url(#linear-gradient-7)"/>
        <path id="Path_355" data-name="Path 355" d="M251.57,556.981a16.864,16.864,0,1,1-13.329-19.775A16.864,16.864,0,0,1,251.57,556.981Z" transform="translate(12.692 -206.793)" fill="#03304e"/>
        <rect id="Rectangle_62" data-name="Rectangle 62" width="457.622" height="49.252" transform="translate(18.917 271.897)" fill="#03304e"/>
        <g id="Group_712" data-name="Group 712" transform="translate(61.883 102.018)">
          <text id="WELCOME" transform="translate(183 68)" fill="#03304e" font-size="72" font-family="Raleway-Bold, Raleway" font-weight="700"><tspan x="-183.384" y="0">WELCOME</tspan></text>
        </g>
      </g>
      <g id="Group_727" data-name="Group 727" transform="translate(457.867)">
        <path id="Path_356" data-name="Path 356" d="M218.382,416.66c4.206,16.068-4.44,35.361-11.772,50.282,0,0,41.185,29.438,92.943,2.33l-4.234-11.28a69.187,69.187,0,0,1-4.183-38.688l8.759-48.688a23.01,23.01,0,0,0-15.654-25.975l-11.724-3.724-3.659-1.16a44.6,44.6,0,0,0-13.462-2.082h-4.781a44.548,44.548,0,0,0-20.533,5.012h0L219,348.434a22.948,22.948,0,0,0-11.631,26.228Z" transform="translate(-159.139 -263.767)" fill="#ed6d23"/>
        <path id="Path_357" data-name="Path 357" d="M240.033,341.517a21.972,21.972,0,0,1,9.941,6.1c4.517,4.6,44.893,75.9,44.893,75.9,1.444,8.558-28.24,13.379-28.24,13.379l-26.738-44.68Z" transform="translate(-108.85 -257.963)" fill="#ed6d23"/>
        <path id="Path_358" data-name="Path 358" d="M274.555,371.366a38.737,38.737,0,0,0-25.807,9.248c-.658.552.289,1.492.942.942a37.272,37.272,0,0,1,24.865-8.854A.668.668,0,0,0,274.555,371.366Z" transform="translate(-95.801 -212.863)" fill="#fff"/>
        <path id="Path_359" data-name="Path 359" d="M245.346,341.517a21.971,21.971,0,0,0-9.941,6.1c-4.517,4.6-44.891,75.9-44.891,75.9-1.446,8.558,28.237,13.379,28.237,13.379l26.741-44.68Z" transform="translate(-183.539 -257.963)" fill="#ed6d23"/>
        <path id="Path_360" data-name="Path 360" d="M220.773,381.741a31.409,31.409,0,0,0-26.726-10.459c-.846.08-.856,1.416,0,1.333a30.147,30.147,0,0,1,25.781,10.07C220.4,383.326,221.343,382.379,220.773,381.741Z" transform="translate(-179.087 -213.214)" fill="#fff"/>
        <path id="Path_361" data-name="Path 361" d="M316.095,391.6h28.517l-45.744,39.912L254.8,434.7l-59.135-44.568,33.835-1.057Z" transform="translate(-175.68 -186.099)" fill="#4d8593"/>
        <path id="Path_362" data-name="Path 362" d="M316.095,391.6h28.517l-45.744,39.912L254.8,434.7l-59.135-44.568,33.835-1.057Z" transform="translate(-175.68 -186.099)" style="mix-blend-mode: multiply;isolation: isolate"/>
        <g id="Group_714" data-name="Group 714" transform="translate(55.326 110.415)">
          <path id="Path_363" data-name="Path 363" d="M211.5,352.855c.05-.856-1.286-.854-1.336,0a240.3,240.3,0,0,0,1.009,40.411c.093.844,1.429.854,1.333,0A240.035,240.035,0,0,1,211.5,352.855Z" transform="translate(-209.738 -352.214)" fill="url(#linear-gradient-8)"/>
          <path id="Path_364" data-name="Path 364" d="M241.247,352.855c-.05-.856,1.283-.854,1.333,0a240.035,240.035,0,0,1-1.009,40.411c-.09.844-1.426.854-1.333,0A240.3,240.3,0,0,0,241.247,352.855Z" transform="translate(-163.657 -352.214)" fill="url(#linear-gradient-9)"/>
        </g>
        <path id="Path_365" data-name="Path 365" d="M230.518,360.368h0a9.05,9.05,0,0,0,9.05-9.05V333.042a2.487,2.487,0,0,0-2.486-2.486H223.954a2.488,2.488,0,0,0-2.486,2.486v18.276A9.05,9.05,0,0,0,230.518,360.368Z" transform="translate(-136.687 -274.526)" fill="#f1cbb3"/>
        <path id="Path_366" data-name="Path 366" d="M230.518,357.772h0a9.05,9.05,0,0,0,9.05-9.05V330.446a2.485,2.485,0,0,0-2.486-2.486H223.954a2.487,2.487,0,0,0-2.486,2.486v18.276A9.05,9.05,0,0,0,230.518,357.772Z" transform="translate(-136.687 -278.449)" fill="#e29f77"/>
        <g id="Group_715" data-name="Group 715" transform="translate(61.081 7.142)">
          <path id="Path_367" data-name="Path 367" d="M278.436,349.9c-1.349,5.861-5.778,7.707-9.906,8.889a42.594,42.594,0,0,1-7.624,10.87,23.239,23.239,0,0,1-12.109,7.759l-.412.083c-.276.055-.55.138-.826.193-.193.028-.384.028-.578.055-.166.028-.3.028-.467.055-.359.028-.743.055-1.1.055-.384,0-.743-.028-1.1-.055-.166-.028-.329-.028-.495-.055-.193-.028-.387-.028-.55-.055-.3-.055-.55-.138-.826-.193-.138-.028-.276-.055-.439-.083a23.254,23.254,0,0,1-12.111-7.759,43.355,43.355,0,0,1-6.767-9.246c-.3-.552-.578-1.075-.854-1.625a18.5,18.5,0,0,1-3.661-1.349,10.364,10.364,0,0,1-6.217-7.541c-.743-3.274-.359-7.265,1.321-9.467a3.679,3.679,0,0,1,2.725-1.622,6.511,6.511,0,0,1,3.742,1.072,51.054,51.054,0,0,1,10.788-21.658,17.509,17.509,0,0,1,7.182-5.75,12.123,12.123,0,0,1,4.322-1.266,39.268,39.268,0,0,1,5.889,0,11.987,11.987,0,0,1,4.294,1.266,17.509,17.509,0,0,1,7.182,5.75,50.487,50.487,0,0,1,10.788,21.658,9.241,9.241,0,0,1,1.677-.771,5.11,5.11,0,0,1,2.064-.3C278.243,339.138,279.483,345.248,278.436,349.9Z" transform="translate(-212.03 -311.087)" fill="#f1cbb3"/>
        </g>
        <path id="Path_368" data-name="Path 368" d="M282.013,323.671c-5.394-.424-10.313-6.17-14.326-9.477-4.517-3.719-8.683-4.972-14.281-5.534a27.9,27.9,0,0,0-7.187-.259c-2.948.482-4.593,2.313-7.463,2.494-7.933.5-11.026.259-15.837,7.109-3.453,4.914-7.157,11.2-12.721,13.962,1.361.1,6.775-.8,7.8.075,1.1.942-.206,4.856-.141,6.514.143,3.661,1.871,7.019,3.978,9.972a69.874,69.874,0,0,0,4.455,15.782c-.163-10.06.723-21.9,6.157-30.648a49.309,49.309,0,0,1,.417,7.322c3.952-3.237,6.793-7.556,10.323-11.134,2.777,4.035,5.371,7.521,9.856,9.974.249-4.088,1.672-7.573,2.835-11.441,2.335,3.207,3.679,6.981,5.911,10.255,2.549,3.744,5.675,7.159,7.32,11.488,2.227,5.863,1.687,13.3,1.107,19.491,2.021-4.741,4.6-8.626,5.565-13.821a60.91,60.91,0,0,0,1-11.061c-.018-6.845-1.158-13.148-1.389-19.838C277.812,324.781,279.866,324.992,282.013,323.671Z" transform="translate(-153.717 -308.243)"/>
        <g id="Group_723" data-name="Group 723" transform="translate(79.332 34.11)">
          <g id="Group_717" data-name="Group 717">
            <g id="Group_716" data-name="Group 716">
              <path id="Path_369" data-name="Path 369" d="M220.044,326.794a.782.782,0,0,0,.741-.419,4.953,4.953,0,0,1,6.589-2.536.788.788,0,1,0,.658-1.431,6.5,6.5,0,0,0-8.643,3.234.785.785,0,0,0,.334,1.062A.713.713,0,0,0,220.044,326.794Z" transform="translate(-219.298 -321.827)" fill="#253770"/>
            </g>
          </g>
          <g id="Group_719" data-name="Group 719" transform="translate(23.549 1.391)">
            <g id="Group_718" data-name="Group 718">
              <path id="Path_370" data-name="Path 370" d="M228.876,323.963a.666.666,0,0,0,.7.141,4.157,4.157,0,0,1,5.577,2.006.661.661,0,1,0,1.2-.547,5.455,5.455,0,0,0-7.265-2.694.664.664,0,0,0-.372.861A.639.639,0,0,0,228.876,323.963Z" transform="translate(-228.676 -322.381)" fill="#253770"/>
            </g>
          </g>
          <g id="Group_721" data-name="Group 721" transform="translate(7.335 19.721)">
            <g id="Group_720" data-name="Group 720">
              <path id="Path_371" data-name="Path 371" d="M229.119,336.329a.785.785,0,0,0-.65-.545,4.933,4.933,0,0,1-4.671-5.261.784.784,0,1,0-1.564-.113,6.473,6.473,0,0,0,6.037,6.936.787.787,0,0,0,.879-.683A.745.745,0,0,0,229.119,336.329Z" transform="translate(-222.219 -329.68)" fill="#253770"/>
            </g>
          </g>
          <g id="Group_722" data-name="Group 722" transform="translate(14.769 7.2)">
            <path id="Path_372" data-name="Path 372" d="M228.588,341.385a2.953,2.953,0,0,0,1.627-.475c1.544-1.007,1.936-3.315,1.042-6.17l-2.016-9.507a.679.679,0,1,0-1.328.281l2.034,9.57c.839,2.7.3,4.181-.472,4.686-.8.52-2.016.223-3.114-.741a.725.725,0,0,0-.989.025.644.644,0,0,0,.005.922A5.022,5.022,0,0,0,228.588,341.385Z" transform="translate(-225.18 -324.694)" fill="#253770"/>
          </g>
          <path id="Path_373" data-name="Path 373" d="M233.511,327.426A2.326,2.326,0,1,1,231.4,324.7,2.44,2.44,0,0,1,233.511,327.426Z" transform="translate(-204.809 -317.493)" fill="#253770"/>
          <path id="Path_374" data-name="Path 374" d="M225.361,327.423a2.326,2.326,0,1,1-2.1-2.722A2.441,2.441,0,0,1,225.361,327.423Z" transform="translate(-217.125 -317.494)" fill="#253770"/>
        </g>
        <path id="Path_375" data-name="Path 375" d="M230.32,411.364l-2.305-11.89a5.307,5.307,0,0,1,3-5.806l2.536-1.163a8.278,8.278,0,0,1,8.515,1.009l8.955,6.973a4.315,4.315,0,0,0,4.869.339l.5-.291,7.089-4.126s38.372-32.225,49.469-20.754a13.871,13.871,0,0,1-8.068,21.086L269.6,405.888l-9.477,2.463-6.24,1.627a7.266,7.266,0,0,1-3.852-.1l-12.837-4a1.49,1.49,0,0,0-1.919,1.175l-1.464,4.52A1.81,1.81,0,0,1,230.32,411.364Z" transform="translate(-126.932 -210.105)" fill="#f1cbb3"/>
        <path id="Path_376" data-name="Path 376" d="M274.507,411.364l2.305-11.89a5.3,5.3,0,0,0-3-5.806l-2.536-1.163a8.278,8.278,0,0,0-8.515,1.009l-8.952,6.973a4.32,4.32,0,0,1-4.872.339l-.5-.291-7.091-4.126s-38.372-32.225-49.466-20.754a13.87,13.87,0,0,0,8.066,21.086l35.278,9.145,9.479,2.463,6.238,1.627a7.266,7.266,0,0,0,3.852-.1l12.837-4a1.493,1.493,0,0,1,1.921,1.175l1.461,4.52A1.81,1.81,0,0,0,274.507,411.364Z" transform="translate(-184.905 -210.105)" fill="#f1cbb3"/>
        <g id="Group_725" data-name="Group 725" transform="translate(36.274 146.887)">
          <g id="Group_724" data-name="Group 724">
            <rect id="Rectangle_63" data-name="Rectangle 63" width="107.526" height="69.236" transform="translate(4.421)" fill="url(#linear-gradient-10)"/>
            <path id="Path_377" data-name="Path 377" d="M315.828,394.31H204.84A2.689,2.689,0,0,0,202.151,397h0a2.691,2.691,0,0,0,2.689,2.689H315.828A2.689,2.689,0,0,0,318.518,397h0A2.688,2.688,0,0,0,315.828,394.31Z" transform="translate(-202.151 -325.074)" fill="url(#linear-gradient-11)"/>
          </g>
          <path id="Path_378" data-name="Path 378" d="M240.583,388.121a9.366,9.366,0,1,1-9.366-9.366A9.366,9.366,0,0,1,240.583,388.121Z" transform="translate(-172.384 -348.579)" fill="url(#linear-gradient-12)"/>
        </g>
        <g id="Group_726" data-name="Group 726" transform="translate(0 202.702)">
          <path id="Path_379" data-name="Path 379" d="M188.211,414.183a20.247,20.247,0,0,0,15.544,15.3,19.421,19.421,0,0,0,2,.316c25.887,7.106,54.408,12.144,85.109,15.451,8.367.922,16.915,1.688,25.6,2.34l15,13.944c.136.113.269.246.427.359,6.747,5.308,16.465-.831,15-9.289l-.876-4.992c0-.045-.023-.068-.023-.09a14.766,14.766,0,0,0-11.312-9.314l-15.521-2.832c-7.488-2.36-14.866-4.746-22.04-7.152-31.243-10.481-59.066-21.638-80.546-36.775a20.2,20.2,0,0,0-28.363,22.738Z" transform="translate(-187.706 -388.177)"/>
          <path id="Path_380" data-name="Path 380" d="M228.787,421.937c8.367.922,16.915,1.688,25.6,2.34l15,13.944c.136.113.269.246.427.359,6.747,5.308,16.465-.831,15-9.289l-.876-4.992c0-.045-.023-.068-.023-.09A14.766,14.766,0,0,0,272.6,414.9l-15.521-2.832c-7.488-2.36-14.866-4.746-22.04-7.152Z" transform="translate(-125.628 -364.869)" fill="#ed6d23"/>
          <path id="Path_381" data-name="Path 381" d="M216.272,461.419c.158-.136.294-.249.427-.362l15.2-14.145c7.762-.811,15.431-1.645,22.944-2.521,33.465-3.867,63.965-8.48,86.437-15.137.673-.068,1.326-.181,2-.314a20.2,20.2,0,1,0-12.822-38.013c-23.032,14.891-50.337,26.924-80.476,37-7.581,2.564-15.34,4.969-23.258,7.287l.023.09-13.294,2.428a14.781,14.781,0,0,0-11.29,9.289c0,.045-.023.068-.023.113l-.876,4.992C199.809,460.586,209.525,466.7,216.272,461.419Z" transform="translate(-167.43 -388.966)"/>
          <path id="Path_382" data-name="Path 382" d="M216.272,437.973c.158-.136.294-.249.427-.362l15.2-14.145c7.762-.811,15.431-1.645,22.944-2.521-1.215-4.161-3.217-10.886-4.859-16.463-7.581,2.564-15.34,4.969-23.258,7.287l.023.09-13.294,2.428a14.781,14.781,0,0,0-11.29,9.289c0,.045-.023.068-.023.113l-.876,4.992C199.809,437.139,209.525,443.256,216.272,437.973Z" transform="translate(-167.43 -365.519)" fill="#ed6d23"/>
        </g>
        <path id="Path_383" data-name="Path 383" d="M250.543,339.465c-.319-.786-1.612-.442-1.288.354,7.649,18.856-34.512,22.062-29.018-.291.2-.834-1.082-1.188-1.288-.354C212.917,363.717,258.988,360.282,250.543,339.465Z" transform="translate(-141.32 -262.223)" fill="#fff"/>
      </g>
      <g id="Group_748" data-name="Group 748" transform="translate(70.372 261.899)">
        <g id="Group_743" data-name="Group 743" transform="translate(81.228)">
          <g id="Group_729" data-name="Group 729" transform="translate(35.581 150.808)">
            <circle id="Ellipse_37" data-name="Ellipse 37" cx="12.423" cy="12.423" r="12.423" transform="translate(106.282 247.53)" fill="#001e48"/>
            <path id="Path_384" data-name="Path 384" d="M100.064,583.593a12.422,12.422,0,1,0,12.422-12.422A12.423,12.423,0,0,0,100.064,583.593Z" transform="translate(-49.454 -323.64)" fill="#001e48"/>
            <circle id="Ellipse_38" data-name="Ellipse 38" cx="12.423" cy="12.423" r="12.423" transform="translate(0 247.531)" fill="#001e48"/>
            <g id="Group_728" data-name="Group 728" transform="translate(19.937 26.685)">
              <path id="Path_385" data-name="Path 385" d="M108.517,653.737h0a5.214,5.214,0,0,0,5.213-5.216V524.448H103.3V648.521A5.216,5.216,0,0,0,108.517,653.737Z" transform="translate(-64.5 -420.928)" fill="#cecece"/>
              <rect id="Rectangle_64" data-name="Rectangle 64" width="10.429" height="74.228" transform="translate(84.658 74.229) rotate(180)" fill="#cecece"/>
              <rect id="Rectangle_65" data-name="Rectangle 65" width="10.429" height="74.228" transform="translate(10.429 74.229) rotate(180)" fill="#cecece"/>
              <rect id="Rectangle_66" data-name="Rectangle 66" width="25.926" height="31.646" transform="translate(57.052 120.851) rotate(180)" fill="#cecece"/>
            </g>
            <path id="Path_386" data-name="Path 386" d="M97.025,543.96H187.2a16.869,16.869,0,0,0,16.87-16.872h0a16.869,16.869,0,0,0-16.87-16.87H97.025a16.87,16.87,0,0,0-16.87,16.87h0A16.871,16.871,0,0,0,97.025,543.96Z" transform="translate(-79.539 -415.746)" fill="#212429"/>
            <path id="Path_387" data-name="Path 387" d="M100.3,506.335h81.955a16.867,16.867,0,0,0,16.87-16.87h0a16.869,16.869,0,0,0-16.87-16.87H100.3a16.87,16.87,0,0,0-16.87,16.87h0A16.869,16.869,0,0,0,100.3,506.335Z" transform="translate(-74.59 -472.596)" fill="#001e48"/>
            <path id="Path_388" data-name="Path 388" d="M99.9,559.811H181.23a16.983,16.983,0,0,1,16.985,16.983v20.975a4.833,4.833,0,0,1-4.831,4.831h0a4.832,4.832,0,0,1-4.831-4.831V578.951a9.481,9.481,0,0,0-9.479-9.479H102.331a9.481,9.481,0,0,0-9.479,9.479v18.818a4.832,4.832,0,0,1-4.831,4.831h-.05a4.831,4.831,0,0,1-4.831-4.781l-.223-20.842A16.981,16.981,0,0,1,99.9,559.811Z" transform="translate(-75.369 -340.806)" fill="#cecece"/>
          </g>
          <g id="Group_742" data-name="Group 742">
            <path id="Path_389" data-name="Path 389" d="M148.822,467.368l-8.209,54.983a16.756,16.756,0,0,1-20.925,13.708L65.74,521.547l1.233-13.088,50.5,4.435,4.651-39.7a34.48,34.48,0,0,1,18.9-26.859h0C149.44,442.749,150.173,458.318,148.822,467.368Z" transform="translate(-65.74 -362.267)" fill="#ed6d23"/>
            <g id="Group_730" data-name="Group 730" transform="translate(74.562 4.254)">
              <path id="Path_390" data-name="Path 390" d="M117.534,457.544a14.088,14.088,0,0,0,2.92-1.379A2.265,2.265,0,0,1,117.534,457.544Z" transform="translate(-62.037 -350.872)" fill="#001e48"/>
              <path id="Path_391" data-name="Path 391" d="M96.879,455.615c1.032-5.778.972-11.7,2.328-17.46a48.927,48.927,0,0,1,6.577-14.693,21.963,21.963,0,0,1,7.152-7.2c2.069-1.241,6.506-3.149,8.633-1.168l13.424,1.429c4.184-1.258,9.432,1.3,13.065,4.083,5.288,4.05,7.739,10.054,10.622,16.744,2.343,5.434,2.858,10.763,2.4,16.9-.352,4.668-2.139,8.425-2.114,13.319a19.968,19.968,0,0,0,4.309,12.45c1.888,2.35,3.937,4.826,6.313,6.343,1.477.942,3.508,1.474,4.776,2.714-2.647.889-7.167-1.3-9.746-2.308-2.222-.874-4.065-2.855-6.275-3.654.678,3.116,2.165,5.233,2.421,8.761.382,5.248-1.233,8.435-3.839,12.412-3.578,5.459-8.482,8.826-12.977,12.907-2.624,2.381-5.71,5.447-8.877,7.355,1.251-3.054-.841-10.029-1.185-12.5-.372-2.664-1.529-4.781-1.607-7.5a34.033,34.033,0,0,1,.3-6.7c-5.346,8.693-13.753,19.813-9.811,31.966-3.536-3.139-6.775-7.385-9.906-11.214-3.189-3.9-6.793-7.935-9.577-12.307-4.954-7.779-7.347-16.6-7.724-26.628A111.744,111.744,0,0,1,96.879,455.615Z" transform="translate(-95.433 -414.234)" fill="#001e48"/>
            </g>
            <path id="Path_392" data-name="Path 392" d="M144.432,561.355l-55.889,1.09,16.508-28.079c-3.629-20.483-7.546-51.565-8.317-70.645-.362-8.952,5.738-16.5,13.565-16.819l53.268-2.157c8.352-.339-.4,5.73-.937,15.267s4.646,21.613,5.09,29.734c.542,9.861-5.09,6.428-6.963,21.965a57.571,57.571,0,0,0-.311,8.54,101.567,101.567,0,0,0,7.435,34.7l2.355,5.9-24.867.485c-.06.06-.123.125-.186.186Z" transform="translate(-31.283 -363.894)" fill="#ed6d23"/>
            <path id="Path_393" data-name="Path 393" d="M118.788,485.715a.5.5,0,0,1,.467-.434c3.084-5.118,6.175-10.587,4.5-16.777-1.148-4.254-3.819-7.792-4.746-12.154-.178-.836,1.107-1.2,1.286-.354,1.175,5.527,5.228,10.213,5.331,16,.09,5.178-2.825,9.992-5.4,14.255-.055.09-.138.1-.211.153-2,12.01-3.629,24.122,1.971,35.457.379.768-.771,1.444-1.153.673C115.037,510.784,116.7,498.2,118.788,485.715Z" transform="translate(11.497 -347.596)" fill="#fff"/>
            <g id="Group_731" data-name="Group 731" transform="translate(14.27 196.504)">
              <path id="Path_394" data-name="Path 394" d="M129.8,558.074s-6.441,47.023-18.379,36.6a22.916,22.916,0,0,1-3.29,9.2c-5.183,7.37,11.865,10.042,18.439,6.823,6.609-3.219,2.873-28.441,2.873-28.441S138.768,567.172,129.8,558.074Z" transform="translate(-17.406 -389.127)" fill="#ed6d23"/>
              <path id="Path_395" data-name="Path 395" d="M104.234,490.794l69.469.379c11.923.065,21.618,11.189,21.543,24.724a26.293,26.293,0,0,1-6.253,17.083,6.414,6.414,0,0,1-.357.927c-4.289,7.842-12.048,13.256-22.364,16.927-.56.178-5.017,1.929-6.9,2.6l-27.358-7.014v-.135a18.165,18.165,0,0,1,1.946-6.115L103.965,540c-11.923-.065-21.618-11.189-21.543-24.722S92.311,490.729,104.234,490.794Z" transform="translate(-54.802 -490.794)"/>
              <path id="Path_396" data-name="Path 396" d="M139.842,589.318c-.055,2.883-.108,5.791-.188,8.729-.347,15.586-1.04,31.868-1.76,47.563,0,0-5.206,38.116-14.974,38.116a5.207,5.207,0,0,1-3.418-1.5c.829-8.005,1.816-15.639,3.043-22.447.266-1.574.588-3.1.881-4.51.158-.8.347-1.655.56-2.509.588-2.35,1.253-4.751,2.109-7.207-.028-.347-1.763-6.087-4.271-15.3-2.27-8.382-5.233-19.592-8.141-32.215q-.441-1.883-.881-3.844a496.976,496.976,0,0,1-9.394-53.464c-1.682-14.918-2.217-29.066-.7-40.6l27.358,7.021c-.4.133-.693.214-.8.266C138.614,509.482,140.507,545.863,139.842,589.318Z" transform="translate(-25.496 -476.67)" fill="#edc2a9"/>
              <path id="Path_397" data-name="Path 397" d="M139.842,589.318c-.055,2.883-.108,5.791-.188,8.729h-25.97q-.441-1.883-.881-3.844a496.976,496.976,0,0,1-9.394-53.464c-1.682-14.918-2.217-29.066-.7-40.6l27.358,7.021c-.4.133-.693.214-.8.266C138.614,509.482,140.507,545.863,139.842,589.318Z" transform="translate(-25.496 -476.67)"/>
              <path id="Path_398" data-name="Path 398" d="M112.7,558.048a72.583,72.583,0,0,0-2.052,7.219c.573-2.365,1.256-4.771,2.089-7.219Z" transform="translate(-12.148 -389.167)" fill="#dbbdaf"/>
              <path id="Path_399" data-name="Path 399" d="M166.08,509.55c.64,27.306-21.379,61.763-46.069,97.1-.8,1.12-1.574,2.267-2.4,3.39-9.263,13.211-18.791,26.53-27.627,39.582l-9.047-8.141,11.37-31.441,7.448-20.553,29.412-81.274c3.551-9.715,11.85-16.016,21.113-16.016a14.941,14.941,0,0,1,11,5.072A18.476,18.476,0,0,1,166.08,509.55Z" transform="translate(-57.047 -488.668)" fill="#edc2a9"/>
              <path id="Path_400" data-name="Path 400" d="M84.69,596.694c6.33-7.483,14.974-17.337,19.667-36.87a180.984,180.984,0,0,1-11.993,20.845c-4.957,7.021-14.753-.337-10.916-8.2C86.515,562.108,95.3,551.707,95.3,551.707l-.073-.085C81.114,565.067,75.9,572,71.8,588.955,69.452,598.68,78.58,603.923,84.69,596.694Z" transform="translate(-71.423 -398.877)" fill="#ed6d23"/>
              <path id="Path_401" data-name="Path 401" d="M86.855,580.617a180.984,180.984,0,0,0,11.993-20.845L89.8,551.656s-8.789,10.4-13.856,20.759C72.1,580.28,81.9,587.637,86.855,580.617Z" transform="translate(-65.914 -398.825)" fill="#edc2a9"/>
            </g>
            <g id="Group_733" data-name="Group 733" transform="translate(35.615 80.754)">
              <path id="Path_402" data-name="Path 402" d="M119.085,478.459A23.227,23.227,0,0,1,101.7,462.092a14.771,14.771,0,0,0,4.651-3.026.438.438,0,0,0-.153-.726.448.448,0,0,0-.3-.613,14.211,14.211,0,0,1-3.3-1.326,7.855,7.855,0,0,1-2.5-1.825,23.42,23.42,0,0,0,4.455-3.347q3.247-2.637,6.343-5.444c.444-.4-.234-1.04-.676-.64-1.745,1.574-3.518,3.121-5.334,4.618-1.479,1.22-3.259,3.1-5.145,3.965a.485.485,0,0,0-.663.249c-.08.025-.161.065-.241.085-.58.151-.306,1.04.274.889.023,0,.043-.017.065-.023a6.028,6.028,0,0,0,2.134,1.778,14.884,14.884,0,0,0,4.2,1.871,13.712,13.712,0,0,1-4.653,2.873.485.485,0,0,0-.053.876,24.147,24.147,0,0,0,18.077,17.04A.466.466,0,0,0,119.085,478.459Z" transform="translate(-51.838 -444.216)" fill="#fff"/>
              <path id="Path_403" data-name="Path 403" d="M127.464,455.109A43.2,43.2,0,0,1,117.2,444.9c-.347-.485-1.14,0-.791.49a44.689,44.689,0,0,0,10.18,10.21.409.409,0,0,0-.216.158c-.638,1.085-3.578,1.361-4.746,1.589a39.786,39.786,0,0,1-5.339.656.455.455,0,0,0-.2.841.394.394,0,0,0,.068.354,15.4,15.4,0,0,0,4.957,4.517,28.129,28.129,0,0,1-13.238,14.627c-.532.279-.04,1.067.49.791a28.886,28.886,0,0,0,13.708-15.3.477.477,0,0,0-.008-.382.4.4,0,0,0-.213-.374,14.321,14.321,0,0,1-4.786-4.224,39.3,39.3,0,0,0,5.848-.841c1.386-.316,3.488-.47,4.279-1.813a.385.385,0,0,0,.03-.239A.468.468,0,0,0,127.464,455.109Z" transform="translate(-38.032 -444.698)" fill="#fff"/>
              <g id="Group_732" data-name="Group 732" transform="translate(0 104.178)">
                <path id="Path_404" data-name="Path 404" d="M145.235,493.086H108.08v-6.9l35.032,4.954Z" transform="translate(-37.376 -486.185)" fill="url(#linear-gradient-13)"/>
                <rect id="Rectangle_67" data-name="Rectangle 67" width="70.703" height="6.9" transform="translate(70.703 6.9) rotate(180)" fill="url(#linear-gradient-13)"/>
              </g>
            </g>
            <g id="Group_741" data-name="Group 741" transform="translate(72.685 6.181)">
              <path id="Path_405" data-name="Path 405" d="M120.532,466.205l-8.937,18-6.936-21.088a23.159,23.159,0,0,1-1.153-8.292l.121-2.953-.018-.5-.153-9.53,19.587-2.722-.05,7.875c-.013,1.431-.035,2.915-.126,4.364-.005.344.038,1.956.09,3.764a8.97,8.97,0,0,1-.018,1.22A23.106,23.106,0,0,1,120.532,466.205Z" transform="translate(-81.431 -378.558)" fill="#edc2a9"/>
              <path id="Path_406" data-name="Path 406" d="M122.941,456.342a23.569,23.569,0,0,1-19.33-4.972l-.153-9.53,19.587-2.722-.05,7.875c-.013,1.431-.035,2.915-.126,4.364-.005.344.038,1.956.09,3.764A8.97,8.97,0,0,1,122.941,456.342Z" transform="translate(-81.431 -378.558)" fill="#e29f77"/>
              <path id="Path_407" data-name="Path 407" d="M100.311,438.445a6.491,6.491,0,0,1,3.526,1.607,50.365,50.365,0,0,1,13.736-19.757,17.081,17.081,0,0,1,7.882-4.63,12.37,12.37,0,0,1,4.432-.648,40.649,40.649,0,0,1,5.786.846,12.3,12.3,0,0,1,4.06,1.888,17.047,17.047,0,0,1,6.228,6.69,50.428,50.428,0,0,1,7.511,22.861,6.488,6.488,0,0,1,3.839-.532c3.747.884,4.106,7.079,2.4,11.483-2.17,5.587-6.8,6.76-11.011,7.32a42.615,42.615,0,0,1-9.065,9.6,23.078,23.078,0,0,1-13.033,5.891c-.141.015-.284.025-.427.038-.279.02-.555.063-.836.073-.188,0-.379-.023-.567-.028-.161,0-.319-.015-.477-.023-.364-.023-.731-.053-1.092-.108s-.723-.125-1.08-.208c-.153-.038-.309-.073-.462-.115-.183-.05-.372-.078-.552-.136-.269-.09-.52-.211-.781-.311-.133-.05-.266-.1-.4-.156a23.083,23.083,0,0,1-10.8-9.376,42.643,42.643,0,0,1-5.939-11.792c-3.877-1.743-7.975-4.191-8.455-10.162C94.35,444.052,96.469,438.219,100.311,438.445Z" transform="translate(-94.686 -415.001)" fill="#edc2a9"/>
              <g id="Group_740" data-name="Group 740" transform="translate(19.049 25.19)">
                <g id="Group_734" data-name="Group 734" transform="translate(7.682 21.375)">
                  <path id="Path_408" data-name="Path 408" d="M111.287,440.725a9.963,9.963,0,0,0,7.855-6.207.692.692,0,1,0-1.266-.56c-3.352,7.576-11.312,5.268-11.654,5.168a.69.69,0,0,0-.4,1.321A13.575,13.575,0,0,0,111.287,440.725Z" transform="translate(-105.331 -433.545)" fill="#001e48"/>
                </g>
                <g id="Group_735" data-name="Group 735" transform="translate(20.243 10.535)">
                  <path id="Path_409" data-name="Path 409" d="M114.965,432.078a2.342,2.342,0,1,1-1.79-2.8A2.352,2.352,0,0,1,114.965,432.078Z" transform="translate(-110.333 -429.228)" fill="#001e48"/>
                </g>
                <g id="Group_736" data-name="Group 736" transform="translate(1.449 7.79)">
                  <path id="Path_410" data-name="Path 410" d="M107.48,430.985a2.342,2.342,0,1,1-1.79-2.8A2.346,2.346,0,0,1,107.48,430.985Z" transform="translate(-102.849 -428.135)" fill="#001e48"/>
                </g>
                <g id="Group_737" data-name="Group 737" transform="translate(21.789 2.564)">
                  <path id="Path_411" data-name="Path 411" d="M117.719,431.443l.073-.018a.691.691,0,0,0,.487-.849,5.706,5.706,0,0,0-6.787-4.412.689.689,0,0,0-.527.819.671.671,0,0,0,.819.535,4.378,4.378,0,0,1,5.16,3.423A.692.692,0,0,0,117.719,431.443Z" transform="translate(-110.949 -426.054)" fill="#001e48"/>
                </g>
                <g id="Group_738" data-name="Group 738">
                  <path id="Path_412" data-name="Path 412" d="M110.584,427.319l.045-.058a.692.692,0,0,0-.163-.964,5.705,5.705,0,0,0-8.046.9.691.691,0,0,0,.113.969.672.672,0,0,0,.972-.108,4.377,4.377,0,0,1,6.16-.63A.692.692,0,0,0,110.584,427.319Z" transform="translate(-102.272 -425.033)" fill="#001e48"/>
                </g>
                <g id="Group_739" data-name="Group 739" transform="translate(7.167 14.159)">
                  <path id="Path_413" data-name="Path 413" d="M107.808,437.466a.666.666,0,0,0,.758-.562.675.675,0,0,0-.56-.763c-.013,0-1.273-.218-1.5-.949-.105-.337-.108-1.333,2.067-3.36a.671.671,0,0,0-.914-.982c-2.039,1.9-2.838,3.45-2.436,4.741.482,1.547,2.491,1.863,2.576,1.876Z" transform="translate(-105.126 -430.671)" fill="#001e48"/>
                </g>
              </g>
            </g>
            <path id="Path_414" data-name="Path 414" d="M126.3,431.359c-.442-4.646-2.634-12.6-8.051-13.379l-.972,1.318c-1.838,7.9-1,18.155,3.636,25.1C123.644,440.68,126.763,436.236,126.3,431.359Z" transform="translate(10.77 -404.318)" fill="#001e48"/>
            <path id="Path_415" data-name="Path 415" d="M178.727,498.917a16.686,16.686,0,0,1,3.8,13.168c-.844,5.981-5.286,10.843-10.936,12.98L120.3,539.83l-5.889-6.127,41.945-23.627L129.582,480.4c-7.8-8.648-11.775-15.345-8.794-26.608l.8-3.269a7.772,7.772,0,0,1,13.48-3.169Z" transform="translate(7.813 -364.09)" fill="#ed6d23"/>
            <path id="Path_416" data-name="Path 416" d="M130.359,479.761s-25.746,2.069-25.452,18.21c0,0-.294,5.577,4.693-4.987,0,0,2.348-3.229,4.111-2.936,0,0-6.217,8.083-6,10.469.11,1.21,3.654,3.325,8.349-8.708,0,0-4.769,11.96.111,11.31l3.116-10.722-.512,9.638s3.47,4.447,4.035-8.465h0c.033.013.065.038.1.033,4.829-.733,8.683-1.966,11.717-6.009l.414-1.065Z" transform="translate(-6.56 -310.961)" fill="#edc2a9"/>
            <path id="Path_417" data-name="Path 417" d="M152.562,433.112A22.655,22.655,0,0,0,142.2,417.6c-7.355-4.6-17.427-6.069-25.889-4.377-12.576,2.516-20.4,18.341-17.763,30.527a24.7,24.7,0,0,1,.613,4.1c4.033-.131,7.867-3.543,10.835-5.931,3.415-2.752,7.546-6.589,9.816-10.363-2.016,5.313,3.413,10.733,7.342,13.367-2.448-4.942,2.094-9.745,6.017-12.354.379,2.77-.3,4.9,1.153,7.659a33.512,33.512,0,0,0,3.031,4.731,26.437,26.437,0,0,1,5.693,15.707c2.546-1.308,4.327-5.662,5.65-8.1C151.565,447.272,153.536,438.684,152.562,433.112Z" transform="translate(-16.94 -412.539)" fill="#001e48"/>
            <path id="Path_418" data-name="Path 418" d="M101.519,433.781a2.78,2.78,0,1,1-2.78-2.78A2.782,2.782,0,0,1,101.519,433.781Z" transform="translate(-20.076 -384.642)" fill="#e26b6d"/>
            <path id="Path_419" data-name="Path 419" d="M121.583,436.837a2.781,2.781,0,1,1-2.78-2.78A2.779,2.779,0,0,1,121.583,436.837Z" transform="translate(10.239 -380.024)" fill="#e26b6d"/>
            <path id="Path_420" data-name="Path 420" d="M99.643,485.343a.5.5,0,0,0-.467-.434c-3.084-5.118-6.175-10.587-4.5-16.777,1.148-4.256,3.819-7.792,4.746-12.154.178-.839-1.107-1.2-1.286-.354-1.175,5.525-5.228,10.21-5.329,16-.093,5.178,2.822,9.992,5.4,14.255.055.09.141.1.211.151,2,12.013,3.629,24.122-1.971,35.459-.379.766.771,1.444,1.153.673C103.394,510.411,101.729,497.828,99.643,485.343Z" transform="translate(-24.85 -348.16)" fill="#fff"/>
            <path id="Path_421" data-name="Path 421" d="M157.451,509.55c.64,27.306-21.379,61.763-46.069,97.1-.8,1.12-1.574,2.267-2.4,3.39l-22.336-7.578,4.48-12.975,29.412-81.274c3.551-9.715,11.85-16.016,21.113-16.016a14.941,14.941,0,0,1,11,5.072A18.476,18.476,0,0,1,157.451,509.55Z" transform="translate(-34.149 -292.163)"/>
          </g>
        </g>
        <g id="Group_745" data-name="Group 745" transform="translate(2.903 191.688)">
          <g id="Group_744" data-name="Group 744" transform="translate(0 11.682)">
            <path id="Path_422" data-name="Path 422" d="M182.708,713.342h8.429L155.665,493.528H144.707Z" transform="translate(131.911 -493.528)" fill="#401c08"/>
            <path id="Path_423" data-name="Path 423" d="M168.346,713.342h8.43L141.3,493.528H130.346Z" transform="translate(110.21 -493.528)" fill="#401c08"/>
            <path id="Path_424" data-name="Path 424" d="M42.978,713.342H34.549L70.02,493.528H80.978Z" transform="translate(-34.549 -493.528)" fill="#401c08"/>
            <path id="Path_425" data-name="Path 425" d="M57.339,713.342H48.91L84.382,493.528H95.34Z" transform="translate(-12.848 -493.528)" fill="#401c08"/>
          </g>
          <path id="Path_426" data-name="Path 426" d="M39.817,503.744H349.845c2.456,0,4.447-3.33,4.447-7.435h0c0-4.1-1.991-7.433-4.447-7.433H39.817c-2.456,0-4.447,3.33-4.447,7.433h0C35.37,500.414,37.361,503.744,39.817,503.744Z" transform="translate(-33.307 -488.876)" fill="#782d01"/>
        </g>
        <g id="Group_747" data-name="Group 747" transform="translate(0 70.133)">
          <g id="Group_746" data-name="Group 746">
            <path id="Path_427" data-name="Path 427" d="M33.393,441.951H153.352l15.52,94.7H48.913Z" transform="translate(-33.393 -438.229)" fill="url(#linear-gradient-15)"/>
            <path id="Path_428" data-name="Path 428" d="M48.558,455.986h55.076l7.126,43.479H55.683Z" transform="translate(-10.477 -417.02)" fill="url(#linear-gradient-16)"/>
            <path id="Path_429" data-name="Path 429" d="M70.491,458.382l2.988-3.982,6.867,43.7-2.729,3.764Z" transform="translate(22.666 -419.416)" fill="url(#linear-gradient-17)"/>
            <path id="Path_430" data-name="Path 430" d="M106.622,454.4H51.361l-2.8,3.982h55.076Z" transform="translate(-10.477 -419.416)" fill="url(#linear-gradient-17)"/>
            <path id="Path_431" data-name="Path 431" d="M96.685,538.889l2.587-3.945L84.4,440.469l-3.233,3.721Z" transform="translate(38.795 -440.469)" fill="url(#linear-gradient-17)"/>
            <path id="Path_432" data-name="Path 432" d="M156.585,440.469H36.3l-2.908,3.721H153.352Z" transform="translate(-33.393 -440.469)" fill="url(#linear-gradient-17)"/>
          </g>
          <path id="Path_433" data-name="Path 433" d="M54.589,485.541h61.477a8.119,8.119,0,0,1,8.118,8.118H46.473A8.118,8.118,0,0,1,54.589,485.541Z" transform="translate(-13.627 -372.36)" fill="url(#linear-gradient-21)"/>
          <path id="Path_434" data-name="Path 434" d="M93.91,519.935l-3.292-41.5A17,17,0,0,0,73.673,462.78h0a17,17,0,0,0-16.945,15.654l-3.292,41.5Z" transform="translate(-3.105 -406.754)" fill="url(#linear-gradient-22)"/>
        </g>
      </g>
      <g id="Group_758" data-name="Group 758" transform="translate(752.511 315.241)">
        <g id="Group_752" data-name="Group 752">
          <g id="Group_749" data-name="Group 749" transform="translate(57.184)">
            <path id="Path_435" data-name="Path 435" d="M327.828,479.406c.181-8.959,3.7-18.564,11.393-23.544,9.334-6.039,19.172-.583,28.488,3.686-2.737-7.006-10.961-8.99-16.628-12.852,24.98-16.284,57.235-12.543,57.235-12.543s19.064,22.3,19.963,32.765c-5.386-1.26-10.68-3.068-16.282-3.746,5.356,1.964,13.535,10.044,16.1,17.44,2.155,6.212-2.468,17.226-5.424,23.107-5.841,11.621-25.312,33.428-38.734,18.092-11.2-12.8-6.237-30.522-28.96-24.98C337.967,500.979,327.4,500.622,327.828,479.406Z" transform="translate(-327.815 -433.782)" fill="url(#linear-gradient-23)"/>
            <path id="Path_436" data-name="Path 436" d="M334.561,606.859c-1.007-30.673-1.891-62.157,7.137-91.853a181.088,181.088,0,0,1,13.808-33.217c-2.509-1.524-4.708-4.043-7.172-5.5a40.981,40.981,0,0,0-13.223-4.892c-1.512-.294-.816-2.589.688-2.3a43.722,43.722,0,0,1,11.672,3.978,40.488,40.488,0,0,1,5.145,3.141c1.235.889,2.644,2.4,4.081,3.4,1.014-1.79,2.054-3.553,3.126-5.253.377-.6.814-1.163,1.213-1.748a49.2,49.2,0,0,0-12.653-12.875c-1.261-.881-.02-2.933,1.248-2.047a52.37,52.37,0,0,1,12.844,12.847,102.552,102.552,0,0,1,9.286-10.763,59.841,59.841,0,0,0-7.646-15.483c-.874-1.276,1.23-2.428,2.1-1.165a61.82,61.82,0,0,1,7.405,14.758c3.423-3.41,6.978-6.707,10.474-9.974q-2.5-4.991-4.641-10.147c-.583-1.414,1.509-2.589,2.1-1.165,1.341,3.254,2.81,6.446,4.374,9.595,2.062-1.938,4.1-3.875,6.042-5.818,1.095-1.092,2.755.635,1.665,1.728-1.8,1.8-3.691,3.6-5.6,5.409q6.9.426,13.8.849c1.537.1,1.471,2.494-.073,2.4l-14.933-.919a1.132,1.132,0,0,1-.836-.412c-3.392,3.182-6.853,6.4-10.188,9.718a72.02,72.02,0,0,1,13.06,1.956c3.86.9,7.81,1.527,10.808,4.281,1.138,1.047-.6,2.7-1.728,1.665-2.9-2.662-7.574-3.174-11.287-4a61.115,61.115,0,0,0-12.746-1.595,1.055,1.055,0,0,1-.3-.065,106.052,106.052,0,0,0-8.279,9.484c11.99,1.223,23.891,3.468,33.089,11.88,1.14,1.045-.593,2.7-1.728,1.665-9.115-8.339-21.161-10.177-33.018-11.307-.977,1.394-1.926,2.8-2.775,4.254-.625,1.072-1.23,2.17-1.838,3.259,5.811,1.323,11.985,2.3,17.163,5.374,4.467,2.657,7.912,6.6,10.921,10.772.9,1.251-1.205,2.4-2.1,1.165-3.049-4.229-6.667-8.186-11.358-10.612-4.821-2.491-10.552-3.295-15.795-4.51l-.048,0a177.938,177.938,0,0,0-14.951,36.7C335.043,547.9,336,577.8,336.959,606.935,337.009,608.477,334.611,608.4,334.561,606.859Z" transform="translate(-318.543 -430.493)" fill="#4d8593"/>
          </g>
          <g id="Group_750" data-name="Group 750" transform="translate(0 40.067)">
            <path id="Path_437" data-name="Path 437" d="M386.2,486.465c-.146-7.212-2.978-14.943-9.173-18.954-7.513-4.861-15.431-.467-22.929,2.968,2.2-5.64,8.821-7.237,13.384-10.346-20.109-13.108-46.074-10.1-46.074-10.1s-15.345,17.954-16.066,26.374c4.334-1.012,8.6-2.468,13.1-3.016-4.312,1.582-10.893,8.086-12.96,14.04-1.735,5,1.989,13.866,4.367,18.6,4.7,9.354,20.375,26.909,31.178,14.564,9.015-10.3,5.022-24.568,23.313-20.109C378.042,503.829,386.547,503.543,386.2,486.465Z" transform="translate(-305.042 -449.738)" fill="url(#linear-gradient-23)"/>
            <path id="Path_438" data-name="Path 438" d="M365.357,589.057c.811-24.689,1.522-50.034-5.745-73.937A145.78,145.78,0,0,0,348.5,488.382c2.019-1.225,3.789-3.254,5.771-4.427a33.064,33.064,0,0,1,10.644-3.94c1.218-.236.658-2.084-.552-1.848a35.119,35.119,0,0,0-9.394,3.2,32.314,32.314,0,0,0-4.143,2.529c-.994.716-2.127,1.931-3.285,2.74-.816-1.444-1.652-2.86-2.516-4.229-.3-.48-.655-.937-.977-1.409a39.654,39.654,0,0,1,10.185-10.363c1.014-.708.018-2.36-1-1.647a42.227,42.227,0,0,0-10.338,10.343,82.246,82.246,0,0,0-7.475-8.666,48.084,48.084,0,0,1,6.157-12.463c.7-1.025-.992-1.954-1.69-.937a49.733,49.733,0,0,0-5.959,11.88c-2.755-2.747-5.617-5.4-8.432-8.031q2.015-4.015,3.736-8.169c.467-1.135-1.215-2.084-1.687-.937-1.08,2.619-2.262,5.188-3.523,7.724-1.66-1.562-3.3-3.121-4.864-4.683-.879-.881-2.217.51-1.338,1.389,1.449,1.451,2.971,2.9,4.512,4.354q-5.556.343-11.112.683c-1.238.078-1.185,2.006.06,1.931l12.018-.738a.926.926,0,0,0,.673-.331c2.732,2.559,5.517,5.145,8.2,7.822a58.141,58.141,0,0,0-10.514,1.572c-3.106.723-6.285,1.23-8.7,3.448-.917.841.48,2.177,1.391,1.338,2.33-2.142,6.094-2.554,9.085-3.214a49.083,49.083,0,0,1,10.26-1.283,1.045,1.045,0,0,0,.244-.053A85.444,85.444,0,0,1,340.6,479.6c-9.653.984-19.232,2.79-26.633,9.562-.919.841.477,2.175,1.389,1.341,7.337-6.712,17.035-8.191,26.577-9.1.789,1.12,1.552,2.252,2.235,3.423.5.864.989,1.745,1.479,2.624-4.678,1.065-9.648,1.846-13.816,4.324a30.347,30.347,0,0,0-8.789,8.673c-.726,1.007.969,1.931,1.687.937a26.966,26.966,0,0,1,9.143-8.543c3.88-2,8.493-2.652,12.711-3.629l.04,0a143.138,143.138,0,0,1,12.033,29.543c6.313,22.841,5.542,46.907,4.774,70.361C363.386,590.357,365.317,590.3,365.357,589.057Z" transform="translate(-297.081 -447.09)" fill="#4d8593"/>
          </g>
          <g id="Group_751" data-name="Group 751" transform="translate(72.078 52.339)">
            <path id="Path_439" data-name="Path 439" d="M339.611,480.223c1.924-7.292,6.707-14.451,13.992-17,8.834-3.089,15.8,3.33,22.572,8.668-.849-6.273-7.184-9.527-11.051-13.814,23.665-8.362,49.308,1.1,49.308,1.1s11.169,22.03,9.828,30.763c-4.156-2.1-8.128-4.628-12.576-6.3,3.993,2.669,9.078,10.9,9.71,17.462.53,5.509-5.439,13.6-9.022,17.826-7.081,8.347-27.338,22.321-35.273,7.114-6.624-12.688.952-26.206-18.735-26.183C343.624,499.882,335.051,497.494,339.611,480.223Z" transform="translate(-326.737 -454.625)" fill="url(#linear-gradient-23)"/>
            <path id="Path_440" data-name="Path 440" d="M333.771,587.314c5.261-25.292,10.785-51.221,24.064-73.723a152.229,152.229,0,0,1,17.887-24.43c-1.75-1.745-3.051-4.244-4.774-5.924a34.6,34.6,0,0,0-9.849-6.627c-1.178-.54-.153-2.28,1.019-1.743a36.681,36.681,0,0,1,8.756,5.57,33.61,33.61,0,0,1,3.586,3.591c.836.974,1.688,2.486,2.664,3.593,1.185-1.263,2.386-2.5,3.6-3.676.427-.414.9-.788,1.341-1.19a41.465,41.465,0,0,0-7.8-13.043c-.856-.969.565-2.4,1.429-1.426a44.149,44.149,0,0,1,7.955,13.058,86.235,86.235,0,0,1,9.733-6.961A50.394,50.394,0,0,0,390.2,460.2c-.465-1.215,1.487-1.743,1.946-.537a52.143,52.143,0,0,1,3.129,13.542c3.475-2.112,7.039-4.1,10.547-6.082q-1.058-4.577-1.783-9.221c-.2-1.271,1.75-1.818,1.946-.537.452,2.928,1.019,5.831,1.675,8.716,2.072-1.175,4.123-2.355,6.1-3.558,1.112-.678,2.127,1.065,1.02,1.743-1.833,1.115-3.734,2.215-5.66,3.312q5.563,1.718,11.124,3.433c1.238.382.711,2.33-.535,1.946l-12.036-3.714a.955.955,0,0,1-.6-.5c-3.408,1.929-6.875,3.872-10.263,5.929a60.637,60.637,0,0,1,10.3,4.191c2.978,1.5,6.087,2.8,7.99,5.647.726,1.082-1.022,2.092-1.743,1.017-1.841-2.752-5.565-4.1-8.44-5.507a51.4,51.4,0,0,0-10.11-3.834.862.862,0,0,1-.236-.113,89.194,89.194,0,0,0-8.653,6.115c9.565,3.38,18.853,7.578,24.709,16.284.726,1.082-1.022,2.092-1.743,1.02-5.8-8.631-15.293-12.523-24.767-15.8-1.077.944-2.132,1.908-3.114,2.928-.726.753-1.436,1.529-2.152,2.3,4.492,2.235,9.351,4.254,12.975,7.8a31.736,31.736,0,0,1,6.795,10.981c.49,1.2-1.461,1.725-1.946.535-1.655-4.063-3.829-8.021-7.187-10.933-3.448-3-7.975-4.789-12.023-6.823l-.04-.013a149.83,149.83,0,0,0-19.511,27.057c-12.046,21.656-17.2,46.3-22.193,70.328C335.451,589.122,333.5,588.584,333.771,587.314Z" transform="translate(-333.746 -451.59)" fill="#4d8593"/>
          </g>
        </g>
        <g id="Group_757" data-name="Group 757" transform="translate(28.791 82.52)">
          <g id="Group_753" data-name="Group 753" transform="translate(32.65)">
            <path id="Path_441" data-name="Path 441" d="M329.517,492.7c.1-5.118,2.112-10.6,6.506-13.444,5.329-3.448,10.946-.331,16.264,2.1-1.562-4-6.258-5.133-9.494-7.337,14.263-9.3,32.682-7.162,32.682-7.162s10.883,12.734,11.4,18.708a86.544,86.544,0,0,0-9.294-2.139c3.058,1.12,7.727,5.735,9.191,9.956,1.233,3.548-1.409,9.839-3.1,13.193-3.335,6.637-14.451,19.087-22.115,10.333-6.393-7.307-3.563-17.429-16.536-14.266C335.305,505.013,329.274,504.809,329.517,492.7Z" transform="translate(-329.51 -466.645)" fill="url(#linear-gradient-23)"/>
            <path id="Path_442" data-name="Path 442" d="M333.361,565.468c-.575-17.515-1.077-35.492,4.076-52.447a103.528,103.528,0,0,1,7.885-18.966c-1.434-.869-2.689-2.308-4.1-3.141a23.418,23.418,0,0,0-7.548-2.792c-.864-.168-.467-1.479.392-1.311a24.952,24.952,0,0,1,6.664,2.27,23.237,23.237,0,0,1,2.938,1.793c.706.51,1.509,1.371,2.328,1.944.58-1.022,1.173-2.029,1.785-3,.216-.342.467-.666.693-1a28.085,28.085,0,0,0-7.224-7.35c-.718-.5-.01-1.675.713-1.17a29.976,29.976,0,0,1,7.332,7.338,58.264,58.264,0,0,1,5.3-6.147,34.123,34.123,0,0,0-4.367-8.839c-.5-.728.7-1.386,1.2-.665a35.25,35.25,0,0,1,4.229,8.427c1.954-1.949,3.983-3.829,5.979-5.7q-1.428-2.851-2.649-5.8c-.331-.806.861-1.479,1.2-.666.766,1.858,1.6,3.681,2.5,5.479,1.178-1.107,2.343-2.212,3.45-3.322.625-.625,1.574.364.952.987-1.03,1.027-2.107,2.057-3.2,3.089l7.882.485c.876.053.841,1.424-.043,1.368l-8.525-.525a.648.648,0,0,1-.477-.234c-1.939,1.816-3.912,3.651-5.818,5.547a41.066,41.066,0,0,1,7.458,1.117c2.2.512,4.46.871,6.17,2.443.65.6-.339,1.544-.984.952-1.655-1.519-4.327-1.813-6.446-2.283a34.851,34.851,0,0,0-7.277-.909.6.6,0,0,1-.173-.038,61.144,61.144,0,0,0-4.728,5.414c6.848.7,13.643,1.981,18.894,6.785.65.6-.339,1.542-.987.949-5.2-4.761-12.083-5.811-18.853-6.456-.557.8-1.1,1.6-1.582,2.431-.359.61-.7,1.238-1.052,1.861,3.32.756,6.845,1.308,9.8,3.066a21.562,21.562,0,0,1,6.235,6.152c.515.713-.688,1.371-1.2.665a19.123,19.123,0,0,0-6.484-6.059c-2.752-1.421-6.024-1.881-9.017-2.574l-.028,0a101.729,101.729,0,0,0-8.538,20.955c-4.477,16.2-3.93,33.275-3.385,49.911C334.76,566.39,333.391,566.347,333.361,565.468Z" transform="translate(-324.216 -464.767)" fill="#4d8593"/>
          </g>
          <g id="Group_754" data-name="Group 754" transform="translate(0 22.877)">
            <path id="Path_443" data-name="Path 443" d="M362.848,496.725c-.083-4.118-1.7-8.533-5.238-10.823-4.289-2.775-8.811-.266-13.093,1.7,1.258-3.219,5.04-4.131,7.644-5.906-11.481-7.485-26.306-5.765-26.306-5.765s-8.764,10.25-9.176,15.059a70.494,70.494,0,0,1,7.483-1.723c-2.461.9-6.22,4.618-7.4,8.015-.989,2.855,1.135,7.917,2.493,10.619,2.684,5.344,11.634,15.365,17.8,8.317,5.148-5.881,2.868-14.027,13.311-11.481C358.188,506.639,363.044,506.476,362.848,496.725Z" transform="translate(-316.508 -475.755)" fill="url(#linear-gradient-23)"/>
            <path id="Path_444" data-name="Path 444" d="M350.945,555.3c.465-14.1.869-28.569-3.279-42.217a83.154,83.154,0,0,0-6.348-15.267c1.155-.7,2.165-1.858,3.3-2.529a18.881,18.881,0,0,1,6.077-2.247c.7-.136.377-1.19-.316-1.057a20.1,20.1,0,0,0-5.364,1.828,18.46,18.46,0,0,0-2.363,1.444c-.57.409-1.215,1.1-1.876,1.564-.467-.824-.944-1.632-1.436-2.413-.173-.276-.377-.535-.557-.806a22.648,22.648,0,0,1,5.813-5.916c.58-.4.01-1.349-.573-.942a24.116,24.116,0,0,0-5.9,5.906,46.656,46.656,0,0,0-4.269-4.947,27.527,27.527,0,0,1,3.516-7.116c.4-.585-.565-1.115-.964-.535a28.467,28.467,0,0,0-3.4,6.782c-1.572-1.567-3.207-3.081-4.814-4.585q1.153-2.29,2.132-4.663c.269-.648-.693-1.19-.962-.535-.618,1.5-1.293,2.963-2.011,4.409-.949-.891-1.886-1.78-2.777-2.674-.5-.5-1.266.294-.766.794.829.829,1.7,1.657,2.576,2.489q-3.172.192-6.343.389c-.706.043-.678,1.145.033,1.1l6.863-.422a.522.522,0,0,0,.384-.191c1.559,1.461,3.149,2.941,4.683,4.467a33.078,33.078,0,0,0-6,.9c-1.775.412-3.591.7-4.967,1.966-.525.482.274,1.243.794.766,1.331-1.223,3.48-1.459,5.185-1.836a28.126,28.126,0,0,1,5.861-.733.482.482,0,0,0,.138-.03,48.331,48.331,0,0,1,3.8,4.359c-5.509.563-10.979,1.592-15.207,5.459-.525.48.274,1.243.793.766,4.191-3.832,9.728-4.678,15.177-5.2.45.64.884,1.286,1.276,1.954.286.492.565,1,.844,1.5-2.672.608-5.509,1.055-7.887,2.468a17.3,17.3,0,0,0-5.02,4.952c-.414.575.552,1.1.964.535a15.377,15.377,0,0,1,5.221-4.877c2.215-1.145,4.849-1.514,7.257-2.074h.023a81.8,81.8,0,0,1,6.87,16.867c3.606,13.043,3.167,26.783,2.724,40.175C349.82,556.044,350.922,556.009,350.945,555.3Z" transform="translate(-311.962 -474.243)" fill="#4d8593"/>
          </g>
          <g id="Group_755" data-name="Group 755" transform="translate(41.154 29.885)">
            <path id="Path_445" data-name="Path 445" d="M336.246,493.161c1.1-4.163,3.829-8.251,7.988-9.705,5.045-1.765,9.022,1.9,12.889,4.947-.485-3.581-4.1-5.439-6.31-7.885,13.512-4.776,28.154.625,28.154.625s6.376,12.578,5.61,17.565a72.823,72.823,0,0,0-7.179-3.593c2.28,1.524,5.183,6.225,5.545,9.969.3,3.146-3.106,7.767-5.15,10.177-4.045,4.766-15.611,12.746-20.141,4.063-3.782-7.245.542-14.964-10.7-14.948C338.536,504.386,333.642,503.022,336.246,493.161Z" transform="translate(-328.894 -478.546)" fill="url(#linear-gradient-23)"/>
            <path id="Path_446" data-name="Path 446" d="M332.91,554.306c3.006-14.439,6.16-29.244,13.741-42.094a87.128,87.128,0,0,1,10.213-13.949c-1-1-1.743-2.423-2.727-3.382a19.791,19.791,0,0,0-5.622-3.784c-.673-.306-.088-1.3.583-.994a20.926,20.926,0,0,1,5,3.182,19.244,19.244,0,0,1,2.049,2.049c.475.555.962,1.421,1.519,2.052.678-.721,1.361-1.426,2.054-2.1.246-.236.515-.449.766-.678a23.6,23.6,0,0,0-4.452-7.448c-.487-.555.324-1.371.816-.813a25.208,25.208,0,0,1,4.543,7.455,49.358,49.358,0,0,1,5.557-3.975,28.746,28.746,0,0,0-1.815-8.1c-.266-.693.849-.994,1.11-.306a29.549,29.549,0,0,1,1.785,7.732c1.986-1.205,4.02-2.34,6.024-3.47q-.607-2.618-1.02-5.266c-.111-.726,1-1.04,1.112-.306.256,1.67.583,3.327.957,4.977,1.183-.673,2.353-1.346,3.48-2.034a.577.577,0,0,1,.583.994c-1.047.638-2.132,1.266-3.232,1.893l6.351,1.959c.708.219.407,1.331-.306,1.112l-6.87-2.122a.537.537,0,0,1-.341-.286c-1.946,1.1-3.925,2.21-5.861,3.385a34.643,34.643,0,0,1,5.878,2.393c1.7.856,3.475,1.6,4.563,3.224.414.618-.585,1.2-.995.58-1.052-1.569-3.179-2.338-4.819-3.144a29.2,29.2,0,0,0-5.773-2.187.622.622,0,0,1-.136-.065,50.94,50.94,0,0,0-4.942,3.49c5.462,1.931,10.768,4.327,14.11,9.3.414.618-.585,1.2-1,.58-3.312-4.927-8.731-7.149-14.14-9.02-.615.54-1.218,1.09-1.778,1.672-.414.429-.821.874-1.228,1.313,2.564,1.276,5.339,2.431,7.408,4.455a18.12,18.12,0,0,1,3.88,6.268c.279.688-.834.987-1.112.306a16.1,16.1,0,0,0-4.1-6.243c-1.971-1.71-4.555-2.735-6.865-3.895l-.023-.007a85.5,85.5,0,0,0-11.142,15.448c-6.878,12.367-9.818,26.439-12.671,40.155C333.87,555.338,332.76,555.032,332.91,554.306Z" transform="translate(-332.896 -476.813)" fill="#4d8593"/>
          </g>
          <g id="Group_756" data-name="Group 756" transform="translate(5.467 58.021)">
            <path id="Path_447" data-name="Path 447" d="M348.994,498.905c-.688-2.609-2.4-5.168-5-6.079-3.156-1.1-5.647,1.19-8.071,3.1.3-2.242,2.569-3.408,3.952-4.939-8.462-2.991-17.633.392-17.633.392s-3.993,7.877-3.513,11a45.243,45.243,0,0,1,4.5-2.25,10.131,10.131,0,0,0-3.473,6.243c-.191,1.971,1.944,4.864,3.227,6.376,2.531,2.983,9.776,7.98,12.613,2.544,2.368-4.537-.341-9.371,6.7-9.364C347.558,505.934,350.624,505.08,348.994,498.905Z" transform="translate(-318.685 -489.75)" fill="url(#linear-gradient-23)"/>
            <path id="Path_448" data-name="Path 448" d="M351.344,537.2c-1.883-9.045-3.857-18.316-8.606-26.362a54.534,54.534,0,0,0-6.4-8.739c.625-.623,1.09-1.517,1.708-2.117a12.34,12.34,0,0,1,3.521-2.37c.422-.191.055-.814-.364-.623a13.219,13.219,0,0,0-3.131,1.991,11.942,11.942,0,0,0-1.283,1.286c-.3.347-.6.889-.952,1.283-.424-.452-.854-.891-1.288-1.313-.151-.148-.319-.284-.477-.427a14.816,14.816,0,0,1,2.787-4.663c.306-.347-.2-.859-.51-.51a15.746,15.746,0,0,0-2.845,4.671,30.712,30.712,0,0,0-3.48-2.491,18.037,18.037,0,0,1,1.138-5.072c.166-.434-.532-.62-.7-.191a18.614,18.614,0,0,0-1.12,4.841c-1.243-.753-2.516-1.467-3.772-2.172q.38-1.638.638-3.3c.07-.455-.625-.65-.7-.191-.161,1.047-.364,2.084-.6,3.116-.743-.419-1.477-.841-2.182-1.273a.361.361,0,0,0-.364.623c.655.4,1.336.794,2.024,1.185l-3.978,1.228c-.442.136-.254.834.191.7q2.155-.663,4.3-1.328a.336.336,0,0,0,.213-.178c1.22.688,2.458,1.384,3.671,2.119a21.443,21.443,0,0,0-3.681,1.5,6.724,6.724,0,0,0-2.858,2.019c-.259.387.367.748.623.364.658-.984,1.991-1.467,3.018-1.969a18.29,18.29,0,0,1,3.616-1.371.633.633,0,0,0,.083-.04,31.66,31.66,0,0,1,3.1,2.185c-3.423,1.21-6.742,2.709-8.837,5.823-.259.387.364.748.623.364,2.074-3.086,5.469-4.477,8.857-5.65.384.339.761.683,1.112,1.047.261.269.515.547.771.824a17.464,17.464,0,0,0-4.641,2.79,11.331,11.331,0,0,0-2.428,3.925c-.176.432.522.618.7.193a10.05,10.05,0,0,1,2.569-3.91,20.219,20.219,0,0,1,4.3-2.441l.015-.005a53.514,53.514,0,0,1,6.976,9.675c4.309,7.744,6.15,16.558,7.938,25.149C350.741,537.844,351.437,537.651,351.344,537.2Z" transform="translate(-316.44 -488.665)" fill="#4d8593"/>
          </g>
        </g>
        <path id="Path_449" data-name="Path 449" d="M381.781,618.808c0-24.719-4.467-46.737-11.431-60.989a118.051,118.051,0,0,1-11.6-51.859H344.471a118.05,118.05,0,0,1-11.6,51.859c-6.963,14.253-11.43,36.27-11.43,60.989,0,34.256,8.58,63.325,20.5,73.728v5.494h19.343v-5.494C373.2,682.132,381.781,653.064,381.781,618.808Z" transform="translate(-280.261 -324.716)" fill="url(#linear-gradient-30)"/>
      </g>
    </g>
  </g>
</svg>
