<svg xmlns="http://www.w3.org/2000/svg" width="22" height="24" viewBox="0 0 22 24"><g transform="translate(-1)"><path d="M3.58,21.2H17.839l-.681-2.2,1.629,1.4,1.493,1.338L23,24V2.475A2.654,2.654,0,0,0,20.352,0L3.585,0A2.553,2.553,0,0,0,1,2.48V18.72A2.5,2.5,0,0,0,3.58,21.2ZM14.128,5.683l-.033.012.012-.012ZM6.5,6.952a6.169,6.169,0,0,1,3.532-1.27l.137.135a7.279,7.279,0,0,0-3.26,1.537s.272-.133.747-.336a11.419,11.419,0,0,1,9.374.4A8.225,8.225,0,0,0,13.9,5.883l.186-.183a6.175,6.175,0,0,1,3.479,1.26,15.437,15.437,0,0,1,1.844,7.02,5.329,5.329,0,0,1-3.931,1.726s-.472-.534-.808-1a4.039,4.039,0,0,0,2.24-1.4,14.716,14.716,0,0,1-1.419.737,9.5,9.5,0,0,1-1.828.535,9.729,9.729,0,0,1-6.033-.936l-.523-.266a4.014,4.014,0,0,0,2.174,1.4c-.411.469-.818,1-.818,1a4.447,4.447,0,0,1-3.8-1.806A15.473,15.473,0,0,1,6.5,6.952Z"/><path d="M14.308,12.771a1.338,1.338,0,0,0,0-2.675v0a1.337,1.337,0,0,0,0,2.672Z"/><path d="M9.69,12.771a1.338,1.338,0,0,0,0-2.675l0,0a1.337,1.337,0,0,0,0,2.672Z"/></g></svg>